<?xml version="1.0" encoding="utf-8" standalone="no"?>
<!DOCTYPE svg PUBLIC "-//W3C//DTD SVG 1.1//EN"
  "http://www.w3.org/Graphics/SVG/1.1/DTD/svg11.dtd">
<svg xmlns:xlink="http://www.w3.org/1999/xlink" width="864pt" height="576pt" viewBox="0 0 864 576" xmlns="http://www.w3.org/2000/svg" version="1.1">
 <metadata>
  <rdf:RDF xmlns:dc="http://purl.org/dc/elements/1.1/" xmlns:cc="http://creativecommons.org/ns#" xmlns:rdf="http://www.w3.org/1999/02/22-rdf-syntax-ns#">
   <cc:Work>
    <dc:type rdf:resource="http://purl.org/dc/dcmitype/StillImage"/>
    <dc:date>2025-06-30T09:41:29.136198</dc:date>
    <dc:format>image/svg+xml</dc:format>
    <dc:creator>
     <cc:Agent>
      <dc:title>Matplotlib v3.10.0, https://matplotlib.org/</dc:title>
     </cc:Agent>
    </dc:creator>
   </cc:Work>
  </rdf:RDF>
 </metadata>
 <defs>
  <style type="text/css">*{stroke-linejoin: round; stroke-linecap: butt}</style>
 </defs>
 <g id="figure_1">
  <g id="patch_1">
   <path d="M 0 576 
L 864 576 
L 864 0 
L 0 0 
z
" style="fill: #ffffff; stroke: #ffffff; stroke-linejoin: miter"/>
  </g>
  <g id="axes_1">
   <g id="patch_2">
    <path d="M 54.76875 524.272 
L 855.36 524.272 
L 855.36 40.64 
L 54.76875 40.64 
z
" style="fill: #fafafa"/>
   </g>
   <g id="matplotlib.axis_1">
    <g id="xtick_1">
     <g id="line2d_1">
      <path d="M 91.159261 524.272 
L 91.159261 40.64 
" clip-path="url(#pe5883ea68a)" style="fill: none; stroke: #f5f5f5; stroke-linecap: square"/>
     </g>
     <g id="text_1">
      <!-- 0 -->
      <g style="fill: #4d4d4d" transform="translate(85.438949 531.872) scale(0.1 -0.1)">
       <defs>
        <path id="NotoSans-Regular-30" d="M 3347 2291 
Q 3347 1734 3264 1299 
Q 3181 864 2998 560 
Q 2816 256 2525 96 
Q 2234 -64 1824 -64 
Q 1312 -64 976 217 
Q 640 499 477 1027 
Q 314 1555 314 2291 
Q 314 3034 464 3558 
Q 614 4083 947 4361 
Q 1280 4640 1824 4640 
Q 2336 4640 2675 4361 
Q 3014 4083 3180 3558 
Q 3347 3034 3347 2291 
z
M 877 2291 
Q 877 1664 969 1248 
Q 1062 832 1270 624 
Q 1478 416 1824 416 
Q 2170 416 2378 621 
Q 2586 826 2682 1245 
Q 2778 1664 2778 2291 
Q 2778 2918 2682 3331 
Q 2586 3744 2378 3952 
Q 2170 4160 1824 4160 
Q 1478 4160 1270 3952 
Q 1062 3744 969 3331 
Q 877 2918 877 2291 
z
" transform="scale(0.015625)"/>
       </defs>
       <use xlink:href="#NotoSans-Regular-30"/>
      </g>
     </g>
    </g>
    <g id="xtick_2">
     <g id="line2d_2">
      <path d="M 159.00454 524.272 
L 159.00454 40.64 
" clip-path="url(#pe5883ea68a)" style="fill: none; stroke: #f5f5f5; stroke-linecap: square"/>
     </g>
     <g id="text_2">
      <!-- 2000 -->
      <g style="fill: #4d4d4d" transform="translate(136.12329 531.872) scale(0.1 -0.1)">
       <defs>
        <path id="NotoSans-Regular-32" d="M 3328 0 
L 307 0 
L 307 467 
L 1504 1677 
Q 1850 2022 2086 2291 
Q 2323 2560 2444 2819 
Q 2566 3078 2566 3386 
Q 2566 3763 2342 3958 
Q 2118 4154 1760 4154 
Q 1427 4154 1174 4038 
Q 922 3923 659 3718 
L 358 4096 
Q 538 4250 752 4371 
Q 966 4493 1219 4563 
Q 1472 4634 1760 4634 
Q 2189 4634 2496 4486 
Q 2803 4339 2972 4067 
Q 3142 3795 3142 3418 
Q 3142 3059 2995 2745 
Q 2848 2432 2585 2128 
Q 2323 1824 1971 1478 
L 1018 538 
L 1018 512 
L 3328 512 
L 3328 0 
z
" transform="scale(0.015625)"/>
       </defs>
       <use xlink:href="#NotoSans-Regular-32"/>
       <use xlink:href="#NotoSans-Regular-30" transform="translate(57.199997 0)"/>
       <use xlink:href="#NotoSans-Regular-30" transform="translate(114.399994 0)"/>
       <use xlink:href="#NotoSans-Regular-30" transform="translate(171.599991 0)"/>
      </g>
     </g>
    </g>
    <g id="xtick_3">
     <g id="line2d_3">
      <path d="M 226.849819 524.272 
L 226.849819 40.64 
" clip-path="url(#pe5883ea68a)" style="fill: none; stroke: #f5f5f5; stroke-linecap: square"/>
     </g>
     <g id="text_3">
      <!-- 4000 -->
      <g style="fill: #4d4d4d" transform="translate(203.968569 531.872) scale(0.1 -0.1)">
       <defs>
        <path id="NotoSans-Regular-34" d="M 3533 1037 
L 2867 1037 
L 2867 0 
L 2323 0 
L 2323 1037 
L 134 1037 
L 134 1517 
L 2285 4595 
L 2867 4595 
L 2867 1542 
L 3533 1542 
L 3533 1037 
z
M 2323 2982 
Q 2323 3149 2326 3286 
Q 2330 3424 2336 3545 
Q 2342 3667 2345 3779 
Q 2349 3891 2355 3994 
L 2330 3994 
Q 2278 3872 2201 3731 
Q 2125 3590 2054 3494 
L 685 1542 
L 2323 1542 
L 2323 2982 
z
" transform="scale(0.015625)"/>
       </defs>
       <use xlink:href="#NotoSans-Regular-34"/>
       <use xlink:href="#NotoSans-Regular-30" transform="translate(57.199997 0)"/>
       <use xlink:href="#NotoSans-Regular-30" transform="translate(114.399994 0)"/>
       <use xlink:href="#NotoSans-Regular-30" transform="translate(171.599991 0)"/>
      </g>
     </g>
    </g>
    <g id="xtick_4">
     <g id="line2d_4">
      <path d="M 294.695097 524.272 
L 294.695097 40.64 
" clip-path="url(#pe5883ea68a)" style="fill: none; stroke: #f5f5f5; stroke-linecap: square"/>
     </g>
     <g id="text_4">
      <!-- 6000 -->
      <g style="fill: #4d4d4d" transform="translate(271.813847 531.872) scale(0.1 -0.1)">
       <defs>
        <path id="NotoSans-Regular-36" d="M 352 1952 
Q 352 2349 406 2733 
Q 461 3117 595 3459 
Q 730 3802 966 4067 
Q 1203 4333 1564 4483 
Q 1926 4634 2445 4634 
Q 2579 4634 2742 4621 
Q 2906 4608 3008 4576 
L 3008 4096 
Q 2893 4134 2749 4153 
Q 2605 4173 2458 4173 
Q 2016 4173 1721 4025 
Q 1427 3878 1257 3622 
Q 1088 3366 1011 3033 
Q 934 2701 915 2323 
L 954 2323 
Q 1050 2477 1197 2598 
Q 1344 2720 1552 2790 
Q 1760 2861 2035 2861 
Q 2432 2861 2729 2697 
Q 3027 2534 3193 2224 
Q 3360 1914 3360 1472 
Q 3360 998 3181 652 
Q 3002 307 2678 121 
Q 2355 -64 1907 -64 
Q 1581 -64 1299 57 
Q 1018 179 803 428 
Q 589 678 470 1059 
Q 352 1440 352 1952 
z
M 1901 410 
Q 2304 410 2553 669 
Q 2803 928 2803 1472 
Q 2803 1907 2582 2163 
Q 2362 2419 1920 2419 
Q 1619 2419 1395 2294 
Q 1171 2170 1046 1978 
Q 922 1786 922 1581 
Q 922 1370 982 1165 
Q 1043 960 1168 787 
Q 1293 614 1475 512 
Q 1658 410 1901 410 
z
" transform="scale(0.015625)"/>
       </defs>
       <use xlink:href="#NotoSans-Regular-36"/>
       <use xlink:href="#NotoSans-Regular-30" transform="translate(57.199997 0)"/>
       <use xlink:href="#NotoSans-Regular-30" transform="translate(114.399994 0)"/>
       <use xlink:href="#NotoSans-Regular-30" transform="translate(171.599991 0)"/>
      </g>
     </g>
    </g>
    <g id="xtick_5">
     <g id="line2d_5">
      <path d="M 362.540376 524.272 
L 362.540376 40.64 
" clip-path="url(#pe5883ea68a)" style="fill: none; stroke: #f5f5f5; stroke-linecap: square"/>
     </g>
     <g id="text_5">
      <!-- 8000 -->
      <g style="fill: #4d4d4d" transform="translate(339.659126 531.872) scale(0.1 -0.1)">
       <defs>
        <path id="NotoSans-Regular-38" d="M 1824 4634 
Q 2227 4634 2534 4509 
Q 2842 4384 3018 4141 
Q 3194 3898 3194 3539 
Q 3194 3264 3075 3059 
Q 2957 2854 2758 2697 
Q 2560 2541 2323 2419 
Q 2605 2285 2835 2115 
Q 3066 1946 3203 1722 
Q 3341 1498 3341 1184 
Q 3341 800 3155 521 
Q 2970 243 2634 89 
Q 2298 -64 1843 -64 
Q 1350 -64 1008 83 
Q 666 230 490 502 
Q 314 774 314 1165 
Q 314 1478 445 1708 
Q 576 1939 793 2105 
Q 1011 2272 1261 2387 
Q 1037 2515 854 2678 
Q 672 2842 566 3053 
Q 461 3264 461 3546 
Q 461 3898 640 4138 
Q 819 4378 1126 4506 
Q 1434 4634 1824 4634 
z
M 864 1158 
Q 864 826 1101 605 
Q 1338 384 1830 384 
Q 2298 384 2544 605 
Q 2790 826 2790 1178 
Q 2790 1402 2672 1571 
Q 2554 1741 2339 1875 
Q 2125 2010 1830 2118 
L 1728 2157 
Q 1446 2035 1254 1894 
Q 1062 1754 963 1574 
Q 864 1395 864 1158 
z
M 1818 4179 
Q 1466 4179 1238 4009 
Q 1011 3840 1011 3520 
Q 1011 3283 1123 3123 
Q 1235 2963 1427 2851 
Q 1619 2739 1850 2637 
Q 2074 2733 2250 2848 
Q 2426 2963 2531 3126 
Q 2637 3290 2637 3520 
Q 2637 3840 2413 4009 
Q 2189 4179 1818 4179 
z
" transform="scale(0.015625)"/>
       </defs>
       <use xlink:href="#NotoSans-Regular-38"/>
       <use xlink:href="#NotoSans-Regular-30" transform="translate(57.199997 0)"/>
       <use xlink:href="#NotoSans-Regular-30" transform="translate(114.399994 0)"/>
       <use xlink:href="#NotoSans-Regular-30" transform="translate(171.599991 0)"/>
      </g>
     </g>
    </g>
    <g id="xtick_6">
     <g id="line2d_6">
      <path d="M 430.385655 524.272 
L 430.385655 40.64 
" clip-path="url(#pe5883ea68a)" style="fill: none; stroke: #f5f5f5; stroke-linecap: square"/>
     </g>
     <g id="text_6">
      <!-- 10000 -->
      <g style="fill: #4d4d4d" transform="translate(401.784092 531.872) scale(0.1 -0.1)">
       <defs>
        <path id="NotoSans-Regular-31" d="M 2272 0 
L 1722 0 
L 1722 3194 
Q 1722 3379 1725 3507 
Q 1728 3635 1734 3747 
Q 1741 3859 1747 3981 
Q 1645 3878 1561 3808 
Q 1478 3738 1350 3629 
L 864 3232 
L 570 3610 
L 1805 4570 
L 2272 4570 
L 2272 0 
z
" transform="scale(0.015625)"/>
       </defs>
       <use xlink:href="#NotoSans-Regular-31"/>
       <use xlink:href="#NotoSans-Regular-30" transform="translate(57.199997 0)"/>
       <use xlink:href="#NotoSans-Regular-30" transform="translate(114.399994 0)"/>
       <use xlink:href="#NotoSans-Regular-30" transform="translate(171.599991 0)"/>
       <use xlink:href="#NotoSans-Regular-30" transform="translate(228.799988 0)"/>
      </g>
     </g>
    </g>
    <g id="xtick_7">
     <g id="line2d_7">
      <path d="M 498.230934 524.272 
L 498.230934 40.64 
" clip-path="url(#pe5883ea68a)" style="fill: none; stroke: #f5f5f5; stroke-linecap: square"/>
     </g>
     <g id="text_7">
      <!-- 12000 -->
      <g style="fill: #4d4d4d" transform="translate(469.629371 531.872) scale(0.1 -0.1)">
       <use xlink:href="#NotoSans-Regular-31"/>
       <use xlink:href="#NotoSans-Regular-32" transform="translate(57.199997 0)"/>
       <use xlink:href="#NotoSans-Regular-30" transform="translate(114.399994 0)"/>
       <use xlink:href="#NotoSans-Regular-30" transform="translate(171.599991 0)"/>
       <use xlink:href="#NotoSans-Regular-30" transform="translate(228.799988 0)"/>
      </g>
     </g>
    </g>
    <g id="xtick_8">
     <g id="line2d_8">
      <path d="M 566.076212 524.272 
L 566.076212 40.64 
" clip-path="url(#pe5883ea68a)" style="fill: none; stroke: #f5f5f5; stroke-linecap: square"/>
     </g>
     <g id="text_8">
      <!-- 14000 -->
      <g style="fill: #4d4d4d" transform="translate(537.47465 531.872) scale(0.1 -0.1)">
       <use xlink:href="#NotoSans-Regular-31"/>
       <use xlink:href="#NotoSans-Regular-34" transform="translate(57.199997 0)"/>
       <use xlink:href="#NotoSans-Regular-30" transform="translate(114.399994 0)"/>
       <use xlink:href="#NotoSans-Regular-30" transform="translate(171.599991 0)"/>
       <use xlink:href="#NotoSans-Regular-30" transform="translate(228.799988 0)"/>
      </g>
     </g>
    </g>
    <g id="xtick_9">
     <g id="line2d_9">
      <path d="M 633.921491 524.272 
L 633.921491 40.64 
" clip-path="url(#pe5883ea68a)" style="fill: none; stroke: #f5f5f5; stroke-linecap: square"/>
     </g>
     <g id="text_9">
      <!-- 16000 -->
      <g style="fill: #4d4d4d" transform="translate(605.319928 531.872) scale(0.1 -0.1)">
       <use xlink:href="#NotoSans-Regular-31"/>
       <use xlink:href="#NotoSans-Regular-36" transform="translate(57.199997 0)"/>
       <use xlink:href="#NotoSans-Regular-30" transform="translate(114.399994 0)"/>
       <use xlink:href="#NotoSans-Regular-30" transform="translate(171.599991 0)"/>
       <use xlink:href="#NotoSans-Regular-30" transform="translate(228.799988 0)"/>
      </g>
     </g>
    </g>
    <g id="xtick_10">
     <g id="line2d_10">
      <path d="M 701.76677 524.272 
L 701.76677 40.64 
" clip-path="url(#pe5883ea68a)" style="fill: none; stroke: #f5f5f5; stroke-linecap: square"/>
     </g>
     <g id="text_10">
      <!-- 18000 -->
      <g style="fill: #4d4d4d" transform="translate(673.165207 531.872) scale(0.1 -0.1)">
       <use xlink:href="#NotoSans-Regular-31"/>
       <use xlink:href="#NotoSans-Regular-38" transform="translate(57.199997 0)"/>
       <use xlink:href="#NotoSans-Regular-30" transform="translate(114.399994 0)"/>
       <use xlink:href="#NotoSans-Regular-30" transform="translate(171.599991 0)"/>
       <use xlink:href="#NotoSans-Regular-30" transform="translate(228.799988 0)"/>
      </g>
     </g>
    </g>
    <g id="xtick_11">
     <g id="line2d_11">
      <path d="M 769.612048 524.272 
L 769.612048 40.64 
" clip-path="url(#pe5883ea68a)" style="fill: none; stroke: #f5f5f5; stroke-linecap: square"/>
     </g>
     <g id="text_11">
      <!-- 20000 -->
      <g style="fill: #4d4d4d" transform="translate(741.010486 531.872) scale(0.1 -0.1)">
       <use xlink:href="#NotoSans-Regular-32"/>
       <use xlink:href="#NotoSans-Regular-30" transform="translate(57.199997 0)"/>
       <use xlink:href="#NotoSans-Regular-30" transform="translate(114.399994 0)"/>
       <use xlink:href="#NotoSans-Regular-30" transform="translate(171.599991 0)"/>
       <use xlink:href="#NotoSans-Regular-30" transform="translate(228.799988 0)"/>
      </g>
     </g>
    </g>
    <g id="xtick_12">
     <g id="line2d_12">
      <path d="M 837.457327 524.272 
L 837.457327 40.64 
" clip-path="url(#pe5883ea68a)" style="fill: none; stroke: #f5f5f5; stroke-linecap: square"/>
     </g>
     <g id="text_12">
      <!-- 22000 -->
      <g style="fill: #4d4d4d" transform="translate(808.855765 531.872) scale(0.1 -0.1)">
       <use xlink:href="#NotoSans-Regular-32"/>
       <use xlink:href="#NotoSans-Regular-32" transform="translate(57.199997 0)"/>
       <use xlink:href="#NotoSans-Regular-30" transform="translate(114.399994 0)"/>
       <use xlink:href="#NotoSans-Regular-30" transform="translate(171.599991 0)"/>
       <use xlink:href="#NotoSans-Regular-30" transform="translate(228.799988 0)"/>
      </g>
     </g>
    </g>
    <g id="xtick_13">
     <g id="line2d_13">
      <path d="M 57.236622 524.272 
L 57.236622 40.64 
" clip-path="url(#pe5883ea68a)" style="fill: none; stroke: #f5f5f5; stroke-width: 0.5; stroke-linecap: square"/>
     </g>
    </g>
    <g id="xtick_14">
     <g id="line2d_14">
      <path d="M 125.081901 524.272 
L 125.081901 40.64 
" clip-path="url(#pe5883ea68a)" style="fill: none; stroke: #f5f5f5; stroke-width: 0.5; stroke-linecap: square"/>
     </g>
    </g>
    <g id="xtick_15">
     <g id="line2d_15">
      <path d="M 192.927179 524.272 
L 192.927179 40.64 
" clip-path="url(#pe5883ea68a)" style="fill: none; stroke: #f5f5f5; stroke-width: 0.5; stroke-linecap: square"/>
     </g>
    </g>
    <g id="xtick_16">
     <g id="line2d_16">
      <path d="M 260.772458 524.272 
L 260.772458 40.64 
" clip-path="url(#pe5883ea68a)" style="fill: none; stroke: #f5f5f5; stroke-width: 0.5; stroke-linecap: square"/>
     </g>
    </g>
    <g id="xtick_17">
     <g id="line2d_17">
      <path d="M 328.617737 524.272 
L 328.617737 40.64 
" clip-path="url(#pe5883ea68a)" style="fill: none; stroke: #f5f5f5; stroke-width: 0.5; stroke-linecap: square"/>
     </g>
    </g>
    <g id="xtick_18">
     <g id="line2d_18">
      <path d="M 396.463016 524.272 
L 396.463016 40.64 
" clip-path="url(#pe5883ea68a)" style="fill: none; stroke: #f5f5f5; stroke-width: 0.5; stroke-linecap: square"/>
     </g>
    </g>
    <g id="xtick_19">
     <g id="line2d_19">
      <path d="M 464.308294 524.272 
L 464.308294 40.64 
" clip-path="url(#pe5883ea68a)" style="fill: none; stroke: #f5f5f5; stroke-width: 0.5; stroke-linecap: square"/>
     </g>
    </g>
    <g id="xtick_20">
     <g id="line2d_20">
      <path d="M 532.153573 524.272 
L 532.153573 40.64 
" clip-path="url(#pe5883ea68a)" style="fill: none; stroke: #f5f5f5; stroke-width: 0.5; stroke-linecap: square"/>
     </g>
    </g>
    <g id="xtick_21">
     <g id="line2d_21">
      <path d="M 599.998852 524.272 
L 599.998852 40.64 
" clip-path="url(#pe5883ea68a)" style="fill: none; stroke: #f5f5f5; stroke-width: 0.5; stroke-linecap: square"/>
     </g>
    </g>
    <g id="xtick_22">
     <g id="line2d_22">
      <path d="M 667.84413 524.272 
L 667.84413 40.64 
" clip-path="url(#pe5883ea68a)" style="fill: none; stroke: #f5f5f5; stroke-width: 0.5; stroke-linecap: square"/>
     </g>
    </g>
    <g id="xtick_23">
     <g id="line2d_23">
      <path d="M 735.689409 524.272 
L 735.689409 40.64 
" clip-path="url(#pe5883ea68a)" style="fill: none; stroke: #f5f5f5; stroke-width: 0.5; stroke-linecap: square"/>
     </g>
    </g>
    <g id="xtick_24">
     <g id="line2d_24">
      <path d="M 803.534688 524.272 
L 803.534688 40.64 
" clip-path="url(#pe5883ea68a)" style="fill: none; stroke: #f5f5f5; stroke-width: 0.5; stroke-linecap: square"/>
     </g>
    </g>
   </g>
   <g id="matplotlib.axis_2">
    <g id="ytick_1">
     <g id="line2d_25">
      <path d="M 54.76875 433.591 
L 855.36 433.591 
" clip-path="url(#pe5883ea68a)" style="fill: none; stroke: #f5f5f5; stroke-linecap: square"/>
     </g>
     <g id="text_13">
      <!-- No -->
      <g style="fill: #4d4d4d" transform="translate(38.38875 438.151) scale(0.12 -0.12)">
       <defs>
        <path id="NotoSans-Regular-4e" d="M 4243 0 
L 3571 0 
L 1126 3795 
L 1101 3795 
Q 1114 3648 1123 3446 
Q 1133 3245 1142 3017 
Q 1152 2790 1152 2554 
L 1152 0 
L 621 0 
L 621 4570 
L 1286 4570 
L 3725 787 
L 3750 787 
Q 3744 890 3734 1094 
Q 3725 1299 3715 1542 
Q 3706 1786 3706 1990 
L 3706 4570 
L 4243 4570 
L 4243 0 
z
" transform="scale(0.015625)"/>
        <path id="NotoSans-Regular-6f" d="M 3526 1722 
Q 3526 1293 3414 963 
Q 3302 634 3094 403 
Q 2886 173 2588 54 
Q 2291 -64 1926 -64 
Q 1587 -64 1299 54 
Q 1011 173 800 403 
Q 589 634 470 963 
Q 352 1293 352 1722 
Q 352 2291 544 2684 
Q 736 3078 1094 3286 
Q 1453 3494 1946 3494 
Q 2413 3494 2768 3286 
Q 3123 3078 3324 2684 
Q 3526 2291 3526 1722 
z
M 934 1722 
Q 934 1318 1040 1020 
Q 1146 723 1370 563 
Q 1594 403 1939 403 
Q 2285 403 2509 563 
Q 2733 723 2838 1020 
Q 2944 1318 2944 1722 
Q 2944 2131 2835 2419 
Q 2726 2707 2505 2864 
Q 2285 3021 1933 3021 
Q 1408 3021 1171 2675 
Q 934 2330 934 1722 
z
" transform="scale(0.015625)"/>
       </defs>
       <use xlink:href="#NotoSans-Regular-4e"/>
       <use xlink:href="#NotoSans-Regular-6f" transform="translate(75.999985 0)"/>
      </g>
     </g>
    </g>
    <g id="ytick_2">
     <g id="line2d_26">
      <path d="M 54.76875 282.456 
L 855.36 282.456 
" clip-path="url(#pe5883ea68a)" style="fill: none; stroke: #f5f5f5; stroke-linecap: square"/>
     </g>
     <g id="text_14">
      <!-- No sabe -->
      <g style="fill: #4d4d4d" transform="translate(8.64 287.016) scale(0.12 -0.12)">
       <defs>
        <path id="NotoSans-Regular-20" transform="scale(0.015625)"/>
        <path id="NotoSans-Regular-73" d="M 2778 947 
Q 2778 614 2611 390 
Q 2445 166 2137 51 
Q 1830 -64 1408 -64 
Q 1050 -64 790 -6 
Q 531 51 333 154 
L 333 666 
Q 538 563 829 476 
Q 1120 390 1421 390 
Q 1850 390 2042 528 
Q 2234 666 2234 896 
Q 2234 1024 2163 1126 
Q 2093 1229 1910 1331 
Q 1728 1434 1389 1562 
Q 1056 1690 819 1818 
Q 582 1946 454 2125 
Q 326 2304 326 2586 
Q 326 3021 681 3257 
Q 1037 3494 1613 3494 
Q 1926 3494 2198 3433 
Q 2470 3373 2707 3264 
L 2515 2816 
Q 2298 2906 2061 2970 
Q 1824 3034 1574 3034 
Q 1229 3034 1046 2922 
Q 864 2810 864 2618 
Q 864 2477 947 2377 
Q 1030 2278 1225 2185 
Q 1421 2093 1747 1965 
Q 2074 1843 2304 1715 
Q 2534 1587 2656 1404 
Q 2778 1222 2778 947 
z
" transform="scale(0.015625)"/>
        <path id="NotoSans-Regular-61" d="M 1843 3488 
Q 2470 3488 2771 3213 
Q 3072 2938 3072 2336 
L 3072 0 
L 2662 0 
L 2554 486 
L 2528 486 
Q 2381 301 2224 176 
Q 2067 51 1865 -6 
Q 1664 -64 1376 -64 
Q 1069 -64 822 45 
Q 576 154 435 381 
Q 294 608 294 954 
Q 294 1466 697 1744 
Q 1101 2022 1939 2048 
L 2522 2067 
L 2522 2272 
Q 2522 2701 2336 2867 
Q 2150 3034 1811 3034 
Q 1542 3034 1299 2954 
Q 1056 2874 845 2771 
L 672 3194 
Q 896 3315 1203 3401 
Q 1510 3488 1843 3488 
z
M 2010 1658 
Q 1370 1632 1123 1453 
Q 877 1274 877 947 
Q 877 659 1053 524 
Q 1229 390 1504 390 
Q 1939 390 2227 630 
Q 2515 870 2515 1370 
L 2515 1677 
L 2010 1658 
z
" transform="scale(0.015625)"/>
        <path id="NotoSans-Regular-62" d="M 1107 3680 
Q 1107 3462 1097 3273 
Q 1088 3085 1075 2976 
L 1107 2976 
Q 1254 3194 1510 3341 
Q 1766 3488 2170 3488 
Q 2810 3488 3197 3043 
Q 3584 2598 3584 1715 
Q 3584 1126 3408 729 
Q 3232 333 2912 134 
Q 2592 -64 2170 -64 
Q 1766 -64 1510 83 
Q 1254 230 1107 435 
L 1062 435 
L 947 0 
L 544 0 
L 544 4864 
L 1107 4864 
L 1107 3680 
z
M 2074 3021 
Q 1709 3021 1497 2883 
Q 1286 2746 1196 2461 
Q 1107 2176 1107 1734 
L 1107 1709 
Q 1107 1075 1315 739 
Q 1523 403 2086 403 
Q 2547 403 2774 742 
Q 3002 1082 3002 1722 
Q 3002 2368 2774 2694 
Q 2547 3021 2074 3021 
z
" transform="scale(0.015625)"/>
        <path id="NotoSans-Regular-65" d="M 1869 3494 
Q 2310 3494 2627 3302 
Q 2944 3110 3113 2761 
Q 3283 2413 3283 1946 
L 3283 1606 
L 934 1606 
Q 947 1024 1232 720 
Q 1517 416 2029 416 
Q 2355 416 2608 477 
Q 2861 538 3130 653 
L 3130 160 
Q 2867 45 2611 -9 
Q 2355 -64 2003 -64 
Q 1517 -64 1142 134 
Q 768 333 560 726 
Q 352 1120 352 1690 
Q 352 2253 541 2656 
Q 730 3059 1072 3276 
Q 1414 3494 1869 3494 
z
M 1862 3034 
Q 1459 3034 1225 2774 
Q 992 2515 947 2054 
L 2694 2054 
Q 2694 2349 2604 2566 
Q 2515 2784 2332 2909 
Q 2150 3034 1862 3034 
z
" transform="scale(0.015625)"/>
       </defs>
       <use xlink:href="#NotoSans-Regular-4e"/>
       <use xlink:href="#NotoSans-Regular-6f" transform="translate(75.999985 0)"/>
       <use xlink:href="#NotoSans-Regular-20" transform="translate(136.499969 0)"/>
       <use xlink:href="#NotoSans-Regular-73" transform="translate(162.499954 0)"/>
       <use xlink:href="#NotoSans-Regular-61" transform="translate(210.399948 0)"/>
       <use xlink:href="#NotoSans-Regular-62" transform="translate(266.499939 0)"/>
       <use xlink:href="#NotoSans-Regular-65" transform="translate(327.999924 0)"/>
      </g>
     </g>
    </g>
    <g id="ytick_3">
     <g id="line2d_27">
      <path d="M 54.76875 131.321 
L 855.36 131.321 
" clip-path="url(#pe5883ea68a)" style="fill: none; stroke: #f5f5f5; stroke-linecap: square"/>
     </g>
     <g id="text_15">
      <!-- Sí -->
      <g style="fill: #4d4d4d" transform="translate(45.084375 135.881) scale(0.12 -0.12)">
       <defs>
        <path id="NotoSans-Regular-53" d="M 3213 1222 
Q 3213 813 3014 528 
Q 2816 243 2448 89 
Q 2080 -64 1581 -64 
Q 1325 -64 1091 -38 
Q 858 -13 666 35 
Q 474 83 326 154 
L 326 704 
Q 557 602 899 518 
Q 1242 435 1606 435 
Q 1946 435 2176 524 
Q 2406 614 2521 780 
Q 2637 947 2637 1171 
Q 2637 1395 2541 1548 
Q 2445 1702 2211 1833 
Q 1978 1965 1562 2112 
Q 1267 2221 1046 2345 
Q 826 2470 678 2630 
Q 531 2790 457 2995 
Q 384 3200 384 3469 
Q 384 3834 569 4093 
Q 755 4352 1084 4493 
Q 1414 4634 1843 4634 
Q 2221 4634 2534 4563 
Q 2848 4493 3104 4378 
L 2925 3885 
Q 2688 3987 2409 4057 
Q 2131 4128 1830 4128 
Q 1542 4128 1350 4045 
Q 1158 3962 1062 3811 
Q 966 3661 966 3462 
Q 966 3232 1062 3078 
Q 1158 2925 1376 2803 
Q 1594 2682 1965 2541 
Q 2368 2394 2646 2224 
Q 2925 2054 3069 1817 
Q 3213 1581 3213 1222 
z
" transform="scale(0.015625)"/>
        <path id="NotoSans-Regular-ed" d="M 1107 0 
L 544 0 
L 544 3430 
L 1107 3430 
L 1107 0 
z
M 1773 4838 
Q 1715 4749 1606 4621 
Q 1498 4493 1366 4355 
Q 1235 4218 1104 4093 
Q 973 3968 858 3878 
L 486 3878 
L 486 3955 
Q 582 4077 694 4243 
Q 806 4410 915 4586 
Q 1024 4762 1094 4902 
L 1773 4902 
L 1773 4838 
z
" transform="scale(0.015625)"/>
       </defs>
       <use xlink:href="#NotoSans-Regular-53"/>
       <use xlink:href="#NotoSans-Regular-ed" transform="translate(54.899994 0)"/>
      </g>
     </g>
    </g>
   </g>
   <g id="PolyCollection_1">
    <path d="M 91.159261 501.60175 
L 91.159261 365.58025 
L 93.805227 365.58025 
L 93.805227 501.60175 
z
" clip-path="url(#pe5883ea68a)" style="fill: #bc955c; stroke: #393939; stroke-width: 0.886227"/>
    <path d="M 91.159261 350.46675 
L 91.159261 214.44525 
L 95.365669 214.44525 
L 95.365669 350.46675 
z
" clip-path="url(#pe5883ea68a)" style="fill: #bc955c; stroke: #393939; stroke-width: 0.886227"/>
    <path d="M 91.159261 199.33175 
L 91.159261 63.31025 
L 798.615905 63.31025 
L 798.615905 199.33175 
z
" clip-path="url(#pe5883ea68a)" style="fill: #bc955c; stroke: #393939; stroke-width: 0.886227"/>
   </g>
   <g id="text_16">
    <g clip-path="url(#pe5883ea68a)">
     <!-- 78 -->
     <g style="fill: #10312b" transform="translate(107.294436 436.711) scale(0.12 -0.12)">
      <defs>
       <path id="NotoSans-Regular-37" d="M 870 0 
L 2746 4058 
L 282 4058 
L 282 4570 
L 3347 4570 
L 3347 4134 
L 1491 0 
L 870 0 
z
" transform="scale(0.015625)"/>
      </defs>
      <use xlink:href="#NotoSans-Regular-37"/>
      <use xlink:href="#NotoSans-Regular-38" transform="translate(57.199997 0)"/>
     </g>
    </g>
   </g>
   <g id="text_17">
    <g clip-path="url(#pe5883ea68a)">
     <!-- 124 -->
     <g style="fill: #10312b" transform="translate(105.42269 285.576) scale(0.12 -0.12)">
      <use xlink:href="#NotoSans-Regular-31"/>
      <use xlink:href="#NotoSans-Regular-32" transform="translate(57.199997 0)"/>
      <use xlink:href="#NotoSans-Regular-34" transform="translate(114.399994 0)"/>
     </g>
    </g>
   </g>
   <g id="text_18">
    <g clip-path="url(#pe5883ea68a)">
     <!-- 20,855 -->
     <g style="fill: #10312b" transform="translate(800.200739 134.441) scale(0.12 -0.12)">
      <defs>
       <path id="NotoSans-Regular-2c" d="M 1229 672 
Q 1171 448 1081 185 
Q 992 -77 886 -336 
Q 781 -595 678 -826 
L 262 -826 
Q 326 -582 387 -304 
Q 448 -26 499 246 
Q 550 518 582 742 
L 1184 742 
L 1229 672 
z
" transform="scale(0.015625)"/>
       <path id="NotoSans-Regular-35" d="M 1760 2803 
Q 2227 2803 2572 2643 
Q 2918 2483 3107 2185 
Q 3296 1888 3296 1459 
Q 3296 986 3091 643 
Q 2886 301 2505 118 
Q 2125 -64 1587 -64 
Q 1235 -64 924 0 
Q 614 64 403 186 
L 403 717 
Q 634 576 963 496 
Q 1293 416 1594 416 
Q 1933 416 2185 521 
Q 2438 627 2579 848 
Q 2720 1069 2720 1402 
Q 2720 1850 2445 2090 
Q 2170 2330 1574 2330 
Q 1395 2330 1164 2298 
Q 934 2266 794 2234 
L 512 2413 
L 685 4570 
L 2976 4570 
L 2976 4058 
L 1165 4058 
L 1056 2733 
Q 1165 2752 1350 2777 
Q 1536 2803 1760 2803 
z
" transform="scale(0.015625)"/>
      </defs>
      <use xlink:href="#NotoSans-Regular-32"/>
      <use xlink:href="#NotoSans-Regular-30" transform="translate(57.199997 0)"/>
      <use xlink:href="#NotoSans-Regular-2c" transform="translate(114.399994 0)"/>
      <use xlink:href="#NotoSans-Regular-38" transform="translate(141.199982 0)"/>
      <use xlink:href="#NotoSans-Regular-35" transform="translate(198.399979 0)"/>
      <use xlink:href="#NotoSans-Regular-35" transform="translate(255.599976 0)"/>
     </g>
    </g>
   </g>
  </g>
  <g id="text_19">
   <!-- ¿Cuenta con aguinaldo? -->
   <g style="fill: #691c32" transform="translate(54.76875 25.36) scale(0.22 -0.22)">
    <defs>
     <path id="NotoSans-Bold-bf" d="M 2208 1658 
Q 2208 1446 2150 1280 
Q 2093 1114 1961 970 
Q 1830 826 1613 666 
Q 1421 531 1302 422 
Q 1184 314 1129 205 
Q 1075 96 1075 -45 
Q 1075 -243 1225 -352 
Q 1376 -461 1645 -461 
Q 1914 -461 2176 -377 
Q 2438 -294 2714 -154 
L 3053 -838 
Q 2739 -1011 2374 -1120 
Q 2010 -1229 1574 -1229 
Q 909 -1229 541 -909 
Q 173 -589 173 -96 
Q 173 166 256 358 
Q 339 550 505 716 
Q 672 883 922 1062 
Q 1114 1203 1213 1296 
Q 1312 1389 1347 1481 
Q 1382 1574 1382 1702 
L 1382 1888 
L 2208 1888 
L 2208 1658 
z
M 2310 2957 
Q 2310 2662 2150 2544 
Q 1990 2426 1760 2426 
Q 1542 2426 1379 2544 
Q 1216 2662 1216 2957 
Q 1216 3238 1379 3363 
Q 1542 3488 1760 3488 
Q 1990 3488 2150 3363 
Q 2310 3238 2310 2957 
z
" transform="scale(0.015625)"/>
     <path id="NotoSans-Bold-43" d="M 2515 3827 
Q 2240 3827 2025 3718 
Q 1811 3610 1664 3408 
Q 1517 3206 1443 2918 
Q 1370 2630 1370 2272 
Q 1370 1786 1488 1443 
Q 1606 1101 1862 921 
Q 2118 742 2515 742 
Q 2797 742 3075 806 
Q 3354 870 3680 986 
L 3680 173 
Q 3379 51 3084 -6 
Q 2790 -64 2426 -64 
Q 1722 -64 1264 227 
Q 806 518 588 1046 
Q 371 1574 371 2278 
Q 371 2797 512 3229 
Q 653 3661 925 3974 
Q 1197 4288 1597 4461 
Q 1997 4634 2515 4634 
Q 2854 4634 3196 4547 
Q 3539 4461 3853 4314 
L 3539 3526 
Q 3283 3648 3024 3737 
Q 2765 3827 2515 3827 
z
" transform="scale(0.015625)"/>
     <path id="NotoSans-Bold-75" d="M 3706 3494 
L 3706 0 
L 2976 0 
L 2848 448 
L 2797 448 
Q 2688 269 2518 157 
Q 2349 45 2144 -9 
Q 1939 -64 1722 -64 
Q 1350 -64 1068 70 
Q 787 205 633 486 
Q 480 768 480 1216 
L 480 3494 
L 1434 3494 
L 1434 1453 
Q 1434 1082 1568 890 
Q 1702 698 1997 698 
Q 2291 698 2454 832 
Q 2618 966 2685 1222 
Q 2752 1478 2752 1850 
L 2752 3494 
L 3706 3494 
z
" transform="scale(0.015625)"/>
     <path id="NotoSans-Bold-65" d="M 1939 3558 
Q 2426 3558 2774 3372 
Q 3123 3187 3315 2835 
Q 3507 2483 3507 1971 
L 3507 1510 
L 1254 1510 
Q 1267 1107 1494 876 
Q 1722 646 2125 646 
Q 2464 646 2739 713 
Q 3014 781 3309 922 
L 3309 186 
Q 3053 58 2768 -3 
Q 2483 -64 2080 -64 
Q 1555 -64 1152 131 
Q 749 326 518 723 
Q 288 1120 288 1722 
Q 288 2336 496 2742 
Q 704 3149 1075 3353 
Q 1446 3558 1939 3558 
z
M 1946 2880 
Q 1670 2880 1488 2701 
Q 1306 2522 1274 2144 
L 2611 2144 
Q 2611 2355 2537 2521 
Q 2464 2688 2317 2784 
Q 2170 2880 1946 2880 
z
" transform="scale(0.015625)"/>
     <path id="NotoSans-Bold-6e" d="M 2483 3558 
Q 3046 3558 3385 3254 
Q 3725 2950 3725 2278 
L 3725 0 
L 2771 0 
L 2771 2042 
Q 2771 2419 2636 2608 
Q 2502 2797 2208 2797 
Q 1773 2797 1613 2499 
Q 1453 2202 1453 1645 
L 1453 0 
L 499 0 
L 499 3494 
L 1229 3494 
L 1357 3046 
L 1408 3046 
Q 1523 3226 1689 3338 
Q 1856 3450 2061 3504 
Q 2266 3558 2483 3558 
z
" transform="scale(0.015625)"/>
     <path id="NotoSans-Bold-74" d="M 1971 698 
Q 2131 698 2278 730 
Q 2426 762 2573 806 
L 2573 96 
Q 2419 32 2192 -16 
Q 1965 -64 1696 -64 
Q 1382 -64 1136 38 
Q 890 141 746 393 
Q 602 646 602 1094 
L 602 2778 
L 147 2778 
L 147 3181 
L 672 3501 
L 947 4237 
L 1555 4237 
L 1555 3494 
L 2534 3494 
L 2534 2778 
L 1555 2778 
L 1555 1094 
Q 1555 896 1670 797 
Q 1786 698 1971 698 
z
" transform="scale(0.015625)"/>
     <path id="NotoSans-Bold-61" d="M 1933 3565 
Q 2637 3565 3011 3261 
Q 3386 2957 3386 2330 
L 3386 0 
L 2720 0 
L 2534 474 
L 2509 474 
Q 2362 288 2205 166 
Q 2048 45 1846 -9 
Q 1645 -64 1350 -64 
Q 1043 -64 796 54 
Q 550 173 409 419 
Q 269 666 269 1043 
Q 269 1600 659 1865 
Q 1050 2131 1830 2157 
L 2438 2176 
L 2438 2330 
Q 2438 2605 2294 2733 
Q 2150 2861 1894 2861 
Q 1638 2861 1395 2787 
Q 1152 2714 909 2605 
L 595 3251 
Q 877 3398 1219 3481 
Q 1562 3565 1933 3565 
z
M 2067 1606 
Q 1606 1594 1427 1440 
Q 1248 1286 1248 1037 
Q 1248 819 1376 726 
Q 1504 634 1709 634 
Q 2016 634 2227 816 
Q 2438 998 2438 1331 
L 2438 1619 
L 2067 1606 
z
" transform="scale(0.015625)"/>
     <path id="NotoSans-Bold-20" transform="scale(0.015625)"/>
     <path id="NotoSans-Bold-63" d="M 1920 -64 
Q 1402 -64 1037 125 
Q 672 314 480 710 
Q 288 1107 288 1728 
Q 288 2368 505 2771 
Q 723 3174 1110 3366 
Q 1498 3558 2003 3558 
Q 2362 3558 2627 3488 
Q 2893 3418 3091 3322 
L 2810 2586 
Q 2586 2675 2390 2732 
Q 2195 2790 2003 2790 
Q 1754 2790 1587 2672 
Q 1421 2554 1341 2320 
Q 1261 2086 1261 1734 
Q 1261 1389 1347 1161 
Q 1434 934 1600 822 
Q 1766 710 2003 710 
Q 2304 710 2534 790 
Q 2765 870 2982 1011 
L 2982 198 
Q 2765 58 2525 -3 
Q 2285 -64 1920 -64 
z
" transform="scale(0.015625)"/>
     <path id="NotoSans-Bold-6f" d="M 3674 1754 
Q 3674 1318 3555 979 
Q 3437 640 3216 406 
Q 2995 173 2681 54 
Q 2368 -64 1971 -64 
Q 1606 -64 1296 54 
Q 986 173 762 406 
Q 538 640 413 979 
Q 288 1318 288 1754 
Q 288 2336 493 2736 
Q 698 3136 1082 3347 
Q 1466 3558 1990 3558 
Q 2483 3558 2860 3347 
Q 3238 3136 3456 2736 
Q 3674 2336 3674 1754 
z
M 1261 1754 
Q 1261 1408 1334 1174 
Q 1408 941 1568 822 
Q 1728 704 1984 704 
Q 2240 704 2397 822 
Q 2554 941 2627 1174 
Q 2701 1408 2701 1754 
Q 2701 2099 2627 2329 
Q 2554 2560 2394 2675 
Q 2234 2790 1978 2790 
Q 1600 2790 1430 2531 
Q 1261 2272 1261 1754 
z
" transform="scale(0.015625)"/>
     <path id="NotoSans-Bold-67" d="M 1632 3558 
Q 1952 3558 2208 3430 
Q 2464 3302 2643 3046 
L 2669 3046 
L 2746 3494 
L 3552 3494 
L 3552 -6 
Q 3552 -506 3357 -845 
Q 3162 -1184 2771 -1360 
Q 2381 -1536 1805 -1536 
Q 1434 -1536 1117 -1491 
Q 800 -1446 499 -1331 
L 499 -570 
Q 819 -704 1161 -771 
Q 1504 -838 1862 -838 
Q 2234 -838 2416 -640 
Q 2598 -442 2598 -45 
L 2598 26 
Q 2598 134 2608 249 
Q 2618 365 2624 454 
L 2598 454 
Q 2419 179 2169 57 
Q 1920 -64 1606 -64 
Q 986 -64 637 413 
Q 288 890 288 1741 
Q 288 2598 646 3078 
Q 1005 3558 1632 3558 
z
M 1933 2784 
Q 1709 2784 1558 2665 
Q 1408 2547 1334 2313 
Q 1261 2080 1261 1728 
Q 1261 1203 1427 944 
Q 1594 685 1946 685 
Q 2131 685 2265 733 
Q 2400 781 2486 893 
Q 2573 1005 2617 1184 
Q 2662 1363 2662 1619 
L 2662 1734 
Q 2662 2112 2585 2342 
Q 2509 2573 2349 2678 
Q 2189 2784 1933 2784 
z
" transform="scale(0.015625)"/>
     <path id="NotoSans-Bold-69" d="M 1453 3494 
L 1453 0 
L 499 0 
L 499 3494 
L 1453 3494 
z
M 979 4864 
Q 1190 4864 1344 4765 
Q 1498 4666 1498 4397 
Q 1498 4134 1344 4032 
Q 1190 3930 979 3930 
Q 762 3930 611 4032 
Q 461 4134 461 4397 
Q 461 4666 611 4765 
Q 762 4864 979 4864 
z
" transform="scale(0.015625)"/>
     <path id="NotoSans-Bold-6c" d="M 1453 0 
L 499 0 
L 499 4864 
L 1453 4864 
L 1453 0 
z
" transform="scale(0.015625)"/>
     <path id="NotoSans-Bold-64" d="M 1606 -64 
Q 1024 -64 656 393 
Q 288 851 288 1741 
Q 288 2637 659 3097 
Q 1030 3558 1632 3558 
Q 1882 3558 2074 3491 
Q 2266 3424 2403 3309 
Q 2541 3194 2637 3046 
L 2669 3046 
Q 2650 3149 2624 3344 
Q 2598 3539 2598 3744 
L 2598 4864 
L 3552 4864 
L 3552 0 
L 2822 0 
L 2637 454 
L 2598 454 
Q 2509 314 2371 195 
Q 2234 77 2048 6 
Q 1862 -64 1606 -64 
z
M 1939 698 
Q 2336 698 2496 931 
Q 2656 1165 2662 1632 
L 2662 1734 
Q 2662 2246 2505 2515 
Q 2349 2784 1926 2784 
Q 1613 2784 1433 2512 
Q 1254 2240 1254 1728 
Q 1254 1216 1433 957 
Q 1613 698 1939 698 
z
" transform="scale(0.015625)"/>
     <path id="NotoSans-Bold-3f" d="M 864 1747 
Q 864 1958 921 2124 
Q 979 2291 1110 2438 
Q 1242 2586 1459 2739 
Q 1651 2880 1769 2989 
Q 1888 3098 1942 3206 
Q 1997 3315 1997 3450 
Q 1997 3654 1846 3760 
Q 1696 3866 1427 3866 
Q 1158 3866 896 3782 
Q 634 3699 358 3558 
L 19 4243 
Q 333 4416 697 4525 
Q 1062 4634 1498 4634 
Q 2163 4634 2531 4314 
Q 2899 3994 2899 3501 
Q 2899 3238 2816 3046 
Q 2733 2854 2566 2691 
Q 2400 2528 2150 2342 
Q 1965 2208 1862 2112 
Q 1760 2016 1725 1926 
Q 1690 1837 1690 1702 
L 1690 1517 
L 864 1517 
L 864 1747 
z
M 762 448 
Q 762 742 922 860 
Q 1082 979 1312 979 
Q 1536 979 1696 860 
Q 1856 742 1856 448 
Q 1856 166 1696 41 
Q 1536 -83 1312 -83 
Q 1082 -83 922 41 
Q 762 166 762 448 
z
" transform="scale(0.015625)"/>
    </defs>
    <use xlink:href="#NotoSans-Bold-bf"/>
    <use xlink:href="#NotoSans-Bold-43" transform="translate(47.699997 0)"/>
    <use xlink:href="#NotoSans-Bold-75" transform="translate(111.399994 0)"/>
    <use xlink:href="#NotoSans-Bold-65" transform="translate(177.099991 0)"/>
    <use xlink:href="#NotoSans-Bold-6e" transform="translate(236.199982 0)"/>
    <use xlink:href="#NotoSans-Bold-74" transform="translate(301.899979 0)"/>
    <use xlink:href="#NotoSans-Bold-61" transform="translate(345.299973 0)"/>
    <use xlink:href="#NotoSans-Bold-20" transform="translate(405.699966 0)"/>
    <use xlink:href="#NotoSans-Bold-63" transform="translate(431.699951 0)"/>
    <use xlink:href="#NotoSans-Bold-6f" transform="translate(483.099945 0)"/>
    <use xlink:href="#NotoSans-Bold-6e" transform="translate(544.999939 0)"/>
    <use xlink:href="#NotoSans-Bold-20" transform="translate(610.699936 0)"/>
    <use xlink:href="#NotoSans-Bold-61" transform="translate(636.699921 0)"/>
    <use xlink:href="#NotoSans-Bold-67" transform="translate(697.099915 0)"/>
    <use xlink:href="#NotoSans-Bold-75" transform="translate(760.399902 0)"/>
    <use xlink:href="#NotoSans-Bold-69" transform="translate(826.099899 0)"/>
    <use xlink:href="#NotoSans-Bold-6e" transform="translate(856.599884 0)"/>
    <use xlink:href="#NotoSans-Bold-61" transform="translate(922.299881 0)"/>
    <use xlink:href="#NotoSans-Bold-6c" transform="translate(982.699875 0)"/>
    <use xlink:href="#NotoSans-Bold-64" transform="translate(1013.19986 0)"/>
    <use xlink:href="#NotoSans-Bold-6f" transform="translate(1076.499847 0)"/>
    <use xlink:href="#NotoSans-Bold-3f" transform="translate(1138.399841 0)"/>
   </g>
  </g>
  <g id="text_20">
   <!--  -->
   <g style="fill: #98989a" transform="translate(782.349375 553.392) scale(0.12 -0.12)"/>
   <!-- Fuente: FASP -->
   <g style="fill: #98989a" transform="translate(782.349375 564.48) scale(0.12 -0.12)">
    <defs>
     <path id="NotoSans-Regular-46" d="M 1197 0 
L 621 0 
L 621 4570 
L 3174 4570 
L 3174 4064 
L 1197 4064 
L 1197 2445 
L 3053 2445 
L 3053 1939 
L 1197 1939 
L 1197 0 
z
" transform="scale(0.015625)"/>
     <path id="NotoSans-Regular-75" d="M 3411 3430 
L 3411 0 
L 2950 0 
L 2867 454 
L 2842 454 
Q 2733 275 2560 160 
Q 2387 45 2182 -9 
Q 1978 -64 1754 -64 
Q 1344 -64 1065 67 
Q 787 198 646 473 
Q 506 749 506 1184 
L 506 3430 
L 1075 3430 
L 1075 1222 
Q 1075 813 1260 608 
Q 1446 403 1837 403 
Q 2221 403 2441 547 
Q 2662 691 2755 969 
Q 2848 1248 2848 1645 
L 2848 3430 
L 3411 3430 
z
" transform="scale(0.015625)"/>
     <path id="NotoSans-Regular-6e" d="M 2195 3494 
Q 2810 3494 3123 3196 
Q 3437 2899 3437 2234 
L 3437 0 
L 2880 0 
L 2880 2195 
Q 2880 2611 2694 2816 
Q 2509 3021 2112 3021 
Q 1542 3021 1324 2701 
Q 1107 2381 1107 1779 
L 1107 0 
L 544 0 
L 544 3430 
L 998 3430 
L 1082 2963 
L 1114 2963 
Q 1229 3142 1398 3260 
Q 1568 3379 1773 3436 
Q 1978 3494 2195 3494 
z
" transform="scale(0.015625)"/>
     <path id="NotoSans-Regular-74" d="M 1690 397 
Q 1818 397 1952 419 
Q 2086 442 2170 467 
L 2170 38 
Q 2080 -6 1913 -35 
Q 1747 -64 1594 -64 
Q 1325 -64 1097 29 
Q 870 122 729 352 
Q 589 582 589 998 
L 589 2995 
L 102 2995 
L 102 3264 
L 595 3488 
L 819 4218 
L 1152 4218 
L 1152 3430 
L 2144 3430 
L 2144 2995 
L 1152 2995 
L 1152 1011 
Q 1152 698 1302 547 
Q 1453 397 1690 397 
z
" transform="scale(0.015625)"/>
     <path id="NotoSans-Regular-3a" d="M 461 346 
Q 461 582 576 678 
Q 691 774 851 774 
Q 1018 774 1136 678 
Q 1254 582 1254 346 
Q 1254 115 1136 12 
Q 1018 -90 851 -90 
Q 691 -90 576 12 
Q 461 115 461 346 
z
M 461 3085 
Q 461 3328 576 3424 
Q 691 3520 851 3520 
Q 1018 3520 1136 3424 
Q 1254 3328 1254 3085 
Q 1254 2854 1136 2752 
Q 1018 2650 851 2650 
Q 691 2650 576 2752 
Q 461 2854 461 3085 
z
" transform="scale(0.015625)"/>
     <path id="NotoSans-Regular-41" d="M 3488 0 
L 2938 1414 
L 1126 1414 
L 582 0 
L 0 0 
L 1786 4589 
L 2304 4589 
L 4083 0 
L 3488 0 
z
M 2253 3309 
Q 2234 3360 2189 3494 
Q 2144 3629 2102 3773 
Q 2061 3917 2035 3994 
Q 2003 3866 1968 3734 
Q 1933 3603 1897 3494 
Q 1862 3386 1837 3309 
L 1318 1926 
L 2765 1926 
L 2253 3309 
z
" transform="scale(0.015625)"/>
     <path id="NotoSans-Regular-50" d="M 1830 4570 
Q 2726 4570 3136 4218 
Q 3546 3866 3546 3226 
Q 3546 2944 3453 2685 
Q 3360 2426 3149 2221 
Q 2938 2016 2586 1897 
Q 2234 1779 1722 1779 
L 1197 1779 
L 1197 0 
L 621 0 
L 621 4570 
L 1830 4570 
z
M 1779 4077 
L 1197 4077 
L 1197 2272 
L 1658 2272 
Q 2093 2272 2381 2365 
Q 2669 2458 2809 2662 
Q 2950 2867 2950 3200 
Q 2950 3642 2668 3859 
Q 2387 4077 1779 4077 
z
" transform="scale(0.015625)"/>
    </defs>
    <use xlink:href="#NotoSans-Regular-46"/>
    <use xlink:href="#NotoSans-Regular-75" transform="translate(51.899994 0)"/>
    <use xlink:href="#NotoSans-Regular-65" transform="translate(113.699982 0)"/>
    <use xlink:href="#NotoSans-Regular-6e" transform="translate(170.099976 0)"/>
    <use xlink:href="#NotoSans-Regular-74" transform="translate(231.899963 0)"/>
    <use xlink:href="#NotoSans-Regular-65" transform="translate(267.999954 0)"/>
    <use xlink:href="#NotoSans-Regular-3a" transform="translate(324.399948 0)"/>
    <use xlink:href="#NotoSans-Regular-20" transform="translate(351.199936 0)"/>
    <use xlink:href="#NotoSans-Regular-46" transform="translate(377.199921 0)"/>
    <use xlink:href="#NotoSans-Regular-41" transform="translate(429.099915 0)"/>
    <use xlink:href="#NotoSans-Regular-53" transform="translate(492.999908 0)"/>
    <use xlink:href="#NotoSans-Regular-50" transform="translate(547.899902 0)"/>
   </g>
  </g>
 </g>
 <defs>
  <clipPath id="pe5883ea68a">
   <rect x="54.76875" y="40.64" width="800.59125" height="483.632"/>
  </clipPath>
 </defs>
</svg>
