<?xml version="1.0" encoding="utf-8" standalone="no"?>
<!DOCTYPE svg PUBLIC "-//W3C//DTD SVG 1.1//EN"
  "http://www.w3.org/Graphics/SVG/1.1/DTD/svg11.dtd">
<svg xmlns:xlink="http://www.w3.org/1999/xlink" width="864pt" height="576pt" viewBox="0 0 864 576" xmlns="http://www.w3.org/2000/svg" version="1.1">
 <metadata>
  <rdf:RDF xmlns:dc="http://purl.org/dc/elements/1.1/" xmlns:cc="http://creativecommons.org/ns#" xmlns:rdf="http://www.w3.org/1999/02/22-rdf-syntax-ns#">
   <cc:Work>
    <dc:type rdf:resource="http://purl.org/dc/dcmitype/StillImage"/>
    <dc:date>2025-09-18T17:12:56.486665</dc:date>
    <dc:format>image/svg+xml</dc:format>
    <dc:creator>
     <cc:Agent>
      <dc:title>Matplotlib v3.10.6, https://matplotlib.org/</dc:title>
     </cc:Agent>
    </dc:creator>
   </cc:Work>
  </rdf:RDF>
 </metadata>
 <defs>
  <style type="text/css">*{stroke-linejoin: round; stroke-linecap: butt}</style>
 </defs>
 <g id="figure_1">
  <g id="patch_1">
   <path d="M 0 576 
L 864 576 
L 864 0 
L 0 0 
z
" style="fill: #ffffff; stroke: #ffffff; stroke-linejoin: miter"/>
  </g>
  <g id="axes_1">
   <g id="patch_2">
    <path d="M 122.275902 336.968976 
L 855.36 336.968976 
L 855.36 64.770625 
L 122.275902 64.770625 
z
" style="fill: #fafafa"/>
   </g>
   <g id="matplotlib.axis_1">
    <g id="xtick_1">
     <g id="line2d_1">
      <path d="M 175.916202 336.968976 
L 175.916202 64.770625 
" clip-path="url(#pd0ce5af6cf)" style="fill: none; stroke: #f5f5f5; stroke-linecap: square"/>
     </g>
     <g id="text_1">
      <!-- Robo de contraseñas en redes sociales -->
      <g style="fill: #4d4d4d" transform="translate(19.733992 497.563532) rotate(-45) scale(0.12 -0.12)">
       <defs>
        <path id="NotoSans-Regular-52" d="M 1882 4570 
Q 2733 4570 3139 4246 
Q 3546 3923 3546 3270 
Q 3546 2906 3411 2662 
Q 3277 2419 3069 2275 
Q 2861 2131 2630 2048 
L 3885 0 
L 3213 0 
L 2106 1888 
L 1197 1888 
L 1197 0 
L 621 0 
L 621 4570 
L 1882 4570 
z
M 1850 4070 
L 1197 4070 
L 1197 2374 
L 1882 2374 
Q 2438 2374 2694 2595 
Q 2950 2816 2950 3245 
Q 2950 3693 2681 3881 
Q 2413 4070 1850 4070 
z
" transform="scale(0.015625)"/>
        <path id="NotoSans-Regular-6f" d="M 3526 1722 
Q 3526 870 3094 403 
Q 2662 -64 1926 -64 
Q 1472 -64 1117 144 
Q 762 352 557 752 
Q 352 1152 352 1722 
Q 352 2573 781 3033 
Q 1210 3494 1946 3494 
Q 2413 3494 2768 3286 
Q 3123 3078 3324 2684 
Q 3526 2291 3526 1722 
z
M 934 1722 
Q 934 1114 1174 758 
Q 1414 403 1939 403 
Q 2458 403 2701 758 
Q 2944 1114 2944 1722 
Q 2944 2330 2701 2675 
Q 2458 3021 1933 3021 
Q 1408 3021 1171 2675 
Q 934 2330 934 1722 
z
" transform="scale(0.015625)"/>
        <path id="NotoSans-Regular-62" d="M 1107 3680 
Q 1107 3462 1097 3273 
Q 1088 3085 1075 2976 
L 1107 2976 
Q 1254 3194 1510 3341 
Q 1766 3488 2170 3488 
Q 2810 3488 3197 3043 
Q 3584 2598 3584 1715 
Q 3584 832 3193 384 
Q 2803 -64 2170 -64 
Q 1766 -64 1510 83 
Q 1254 230 1107 435 
L 1062 435 
L 947 0 
L 544 0 
L 544 4864 
L 1107 4864 
L 1107 3680 
z
M 2074 3021 
Q 1530 3021 1318 2707 
Q 1107 2394 1107 1734 
L 1107 1709 
Q 1107 1075 1315 739 
Q 1523 403 2086 403 
Q 2547 403 2774 742 
Q 3002 1082 3002 1722 
Q 3002 3021 2074 3021 
z
" transform="scale(0.015625)"/>
        <path id="NotoSans-Regular-20" transform="scale(0.015625)"/>
        <path id="NotoSans-Regular-64" d="M 1760 -64 
Q 1120 -64 736 381 
Q 352 826 352 1709 
Q 352 2592 739 3043 
Q 1126 3494 1766 3494 
Q 2163 3494 2416 3347 
Q 2669 3200 2829 2989 
L 2867 2989 
Q 2861 3072 2845 3235 
Q 2829 3398 2829 3494 
L 2829 4864 
L 3392 4864 
L 3392 0 
L 2938 0 
L 2854 461 
L 2829 461 
Q 2675 243 2419 89 
Q 2163 -64 1760 -64 
z
M 1850 403 
Q 2394 403 2614 700 
Q 2835 998 2835 1600 
L 2835 1702 
Q 2835 2342 2624 2684 
Q 2413 3027 1843 3027 
Q 1389 3027 1161 2665 
Q 934 2304 934 1696 
Q 934 1082 1161 742 
Q 1389 403 1850 403 
z
" transform="scale(0.015625)"/>
        <path id="NotoSans-Regular-65" d="M 1869 3494 
Q 2310 3494 2627 3302 
Q 2944 3110 3113 2761 
Q 3283 2413 3283 1946 
L 3283 1606 
L 934 1606 
Q 947 1024 1232 720 
Q 1517 416 2029 416 
Q 2355 416 2608 477 
Q 2861 538 3130 653 
L 3130 160 
Q 2867 45 2611 -9 
Q 2355 -64 2003 -64 
Q 1517 -64 1142 134 
Q 768 333 560 726 
Q 352 1120 352 1690 
Q 352 2253 541 2656 
Q 730 3059 1072 3276 
Q 1414 3494 1869 3494 
z
M 1862 3034 
Q 1459 3034 1225 2774 
Q 992 2515 947 2054 
L 2694 2054 
Q 2688 2490 2489 2762 
Q 2291 3034 1862 3034 
z
" transform="scale(0.015625)"/>
        <path id="NotoSans-Regular-63" d="M 1920 -64 
Q 1466 -64 1110 121 
Q 755 307 553 697 
Q 352 1088 352 1696 
Q 352 2330 563 2726 
Q 774 3123 1136 3308 
Q 1498 3494 1958 3494 
Q 2221 3494 2464 3440 
Q 2707 3386 2861 3309 
L 2688 2842 
Q 2534 2899 2329 2950 
Q 2125 3002 1946 3002 
Q 934 3002 934 1702 
Q 934 1082 1180 752 
Q 1427 422 1914 422 
Q 2195 422 2409 480 
Q 2624 538 2803 621 
L 2803 122 
Q 2630 32 2422 -16 
Q 2214 -64 1920 -64 
z
" transform="scale(0.015625)"/>
        <path id="NotoSans-Regular-6e" d="M 2195 3494 
Q 2810 3494 3123 3196 
Q 3437 2899 3437 2234 
L 3437 0 
L 2880 0 
L 2880 2195 
Q 2880 3021 2112 3021 
Q 1542 3021 1324 2701 
Q 1107 2381 1107 1779 
L 1107 0 
L 544 0 
L 544 3430 
L 998 3430 
L 1082 2963 
L 1114 2963 
Q 1280 3232 1574 3363 
Q 1869 3494 2195 3494 
z
" transform="scale(0.015625)"/>
        <path id="NotoSans-Regular-74" d="M 1690 397 
Q 1818 397 1952 419 
Q 2086 442 2170 467 
L 2170 38 
Q 2080 -6 1913 -35 
Q 1747 -64 1594 -64 
Q 1325 -64 1097 29 
Q 870 122 729 352 
Q 589 582 589 998 
L 589 2995 
L 102 2995 
L 102 3264 
L 595 3488 
L 819 4218 
L 1152 4218 
L 1152 3430 
L 2144 3430 
L 2144 2995 
L 1152 2995 
L 1152 1011 
Q 1152 698 1302 547 
Q 1453 397 1690 397 
z
" transform="scale(0.015625)"/>
        <path id="NotoSans-Regular-72" d="M 2144 3494 
Q 2240 3494 2352 3484 
Q 2464 3475 2547 3456 
L 2477 2938 
Q 2394 2957 2294 2969 
Q 2195 2982 2106 2982 
Q 1843 2982 1612 2838 
Q 1382 2694 1244 2435 
Q 1107 2176 1107 1830 
L 1107 0 
L 544 0 
L 544 3430 
L 1005 3430 
L 1069 2803 
L 1094 2803 
Q 1261 3085 1523 3289 
Q 1786 3494 2144 3494 
z
" transform="scale(0.015625)"/>
        <path id="NotoSans-Regular-61" d="M 1843 3488 
Q 2470 3488 2771 3213 
Q 3072 2938 3072 2336 
L 3072 0 
L 2662 0 
L 2554 486 
L 2528 486 
Q 2304 205 2057 70 
Q 1811 -64 1376 -64 
Q 909 -64 601 182 
Q 294 429 294 954 
Q 294 1466 697 1744 
Q 1101 2022 1939 2048 
L 2522 2067 
L 2522 2272 
Q 2522 2701 2336 2867 
Q 2150 3034 1811 3034 
Q 1542 3034 1299 2954 
Q 1056 2874 845 2771 
L 672 3194 
Q 896 3315 1203 3401 
Q 1510 3488 1843 3488 
z
M 2010 1658 
Q 1370 1632 1123 1453 
Q 877 1274 877 947 
Q 877 659 1053 524 
Q 1229 390 1504 390 
Q 1939 390 2227 630 
Q 2515 870 2515 1370 
L 2515 1677 
L 2010 1658 
z
" transform="scale(0.015625)"/>
        <path id="NotoSans-Regular-73" d="M 2778 947 
Q 2778 448 2406 192 
Q 2035 -64 1408 -64 
Q 1050 -64 790 -6 
Q 531 51 333 154 
L 333 666 
Q 538 563 829 476 
Q 1120 390 1421 390 
Q 1850 390 2042 528 
Q 2234 666 2234 896 
Q 2234 1024 2163 1126 
Q 2093 1229 1910 1331 
Q 1728 1434 1389 1562 
Q 1056 1690 819 1818 
Q 582 1946 454 2125 
Q 326 2304 326 2586 
Q 326 3021 681 3257 
Q 1037 3494 1613 3494 
Q 1926 3494 2198 3433 
Q 2470 3373 2707 3264 
L 2515 2816 
Q 2298 2906 2061 2970 
Q 1824 3034 1574 3034 
Q 1229 3034 1046 2922 
Q 864 2810 864 2618 
Q 864 2477 947 2377 
Q 1030 2278 1225 2185 
Q 1421 2093 1747 1965 
Q 2074 1843 2304 1715 
Q 2534 1587 2656 1404 
Q 2778 1222 2778 947 
z
" transform="scale(0.015625)"/>
        <path id="NotoSans-Regular-f1" d="M 2195 3494 
Q 2810 3494 3123 3196 
Q 3437 2899 3437 2234 
L 3437 0 
L 2880 0 
L 2880 2195 
Q 2880 3021 2112 3021 
Q 1542 3021 1324 2701 
Q 1107 2381 1107 1779 
L 1107 0 
L 544 0 
L 544 3430 
L 998 3430 
L 1082 2963 
L 1114 2963 
Q 1280 3232 1574 3363 
Q 1869 3494 2195 3494 
z
M 800 3878 
Q 838 4256 1020 4477 
Q 1203 4698 1504 4698 
Q 1696 4698 1865 4605 
Q 2035 4512 2188 4422 
Q 2342 4333 2477 4333 
Q 2624 4333 2704 4425 
Q 2784 4518 2829 4704 
L 3149 4704 
Q 3110 4333 2931 4109 
Q 2752 3885 2451 3885 
Q 2272 3885 2102 3974 
Q 1933 4064 1776 4157 
Q 1619 4250 1478 4250 
Q 1325 4250 1248 4157 
Q 1171 4064 1126 3878 
L 800 3878 
z
" transform="scale(0.015625)"/>
        <path id="NotoSans-Regular-69" d="M 832 4717 
Q 960 4717 1059 4630 
Q 1158 4544 1158 4358 
Q 1158 4179 1059 4089 
Q 960 4000 832 4000 
Q 691 4000 595 4089 
Q 499 4179 499 4358 
Q 499 4544 595 4630 
Q 691 4717 832 4717 
z
M 1107 3430 
L 1107 0 
L 544 0 
L 544 3430 
L 1107 3430 
z
" transform="scale(0.015625)"/>
        <path id="NotoSans-Regular-6c" d="M 1107 0 
L 544 0 
L 544 4864 
L 1107 4864 
L 1107 0 
z
" transform="scale(0.015625)"/>
       </defs>
       <use xlink:href="#NotoSans-Regular-52"/>
       <use xlink:href="#NotoSans-Regular-6f" transform="translate(62.199997 0)"/>
       <use xlink:href="#NotoSans-Regular-62" transform="translate(122.699982 0)"/>
       <use xlink:href="#NotoSans-Regular-6f" transform="translate(184.199966 0)"/>
       <use xlink:href="#NotoSans-Regular-20" transform="translate(244.699951 0)"/>
       <use xlink:href="#NotoSans-Regular-64" transform="translate(270.699936 0)"/>
       <use xlink:href="#NotoSans-Regular-65" transform="translate(332.199921 0)"/>
       <use xlink:href="#NotoSans-Regular-20" transform="translate(388.599915 0)"/>
       <use xlink:href="#NotoSans-Regular-63" transform="translate(414.599899 0)"/>
       <use xlink:href="#NotoSans-Regular-6f" transform="translate(462.599884 0)"/>
       <use xlink:href="#NotoSans-Regular-6e" transform="translate(523.099869 0)"/>
       <use xlink:href="#NotoSans-Regular-74" transform="translate(584.899857 0)"/>
       <use xlink:href="#NotoSans-Regular-72" transform="translate(620.999847 0)"/>
       <use xlink:href="#NotoSans-Regular-61" transform="translate(662.299835 0)"/>
       <use xlink:href="#NotoSans-Regular-73" transform="translate(718.399826 0)"/>
       <use xlink:href="#NotoSans-Regular-65" transform="translate(766.29982 0)"/>
       <use xlink:href="#NotoSans-Regular-f1" transform="translate(822.699814 0)"/>
       <use xlink:href="#NotoSans-Regular-61" transform="translate(884.499802 0)"/>
       <use xlink:href="#NotoSans-Regular-73" transform="translate(940.599792 0)"/>
       <use xlink:href="#NotoSans-Regular-20" transform="translate(988.499786 0)"/>
       <use xlink:href="#NotoSans-Regular-65" transform="translate(1014.499771 0)"/>
       <use xlink:href="#NotoSans-Regular-6e" transform="translate(1070.899765 0)"/>
       <use xlink:href="#NotoSans-Regular-20" transform="translate(1132.699753 0)"/>
       <use xlink:href="#NotoSans-Regular-72" transform="translate(1158.699738 0)"/>
       <use xlink:href="#NotoSans-Regular-65" transform="translate(1199.999725 0)"/>
       <use xlink:href="#NotoSans-Regular-64" transform="translate(1256.399719 0)"/>
       <use xlink:href="#NotoSans-Regular-65" transform="translate(1317.899704 0)"/>
       <use xlink:href="#NotoSans-Regular-73" transform="translate(1374.299698 0)"/>
       <use xlink:href="#NotoSans-Regular-20" transform="translate(1422.199692 0)"/>
       <use xlink:href="#NotoSans-Regular-73" transform="translate(1448.199677 0)"/>
       <use xlink:href="#NotoSans-Regular-6f" transform="translate(1496.09967 0)"/>
       <use xlink:href="#NotoSans-Regular-63" transform="translate(1556.599655 0)"/>
       <use xlink:href="#NotoSans-Regular-69" transform="translate(1604.59964 0)"/>
       <use xlink:href="#NotoSans-Regular-61" transform="translate(1630.399628 0)"/>
       <use xlink:href="#NotoSans-Regular-6c" transform="translate(1686.499619 0)"/>
       <use xlink:href="#NotoSans-Regular-65" transform="translate(1712.299606 0)"/>
       <use xlink:href="#NotoSans-Regular-73" transform="translate(1768.6996 0)"/>
      </g>
     </g>
    </g>
    <g id="xtick_2">
     <g id="line2d_2">
      <path d="M 265.316702 336.968976 
L 265.316702 64.770625 
" clip-path="url(#pd0ce5af6cf)" style="fill: none; stroke: #f5f5f5; stroke-linecap: square"/>
     </g>
     <g id="text_2">
      <!-- Phishing -->
      <g style="fill: #4d4d4d" transform="translate(228.75442 377.943604) rotate(-45) scale(0.12 -0.12)">
       <defs>
        <path id="NotoSans-Regular-50" d="M 1830 4570 
Q 2726 4570 3136 4218 
Q 3546 3866 3546 3226 
Q 3546 2848 3376 2518 
Q 3206 2189 2806 1984 
Q 2406 1779 1722 1779 
L 1197 1779 
L 1197 0 
L 621 0 
L 621 4570 
L 1830 4570 
z
M 1779 4077 
L 1197 4077 
L 1197 2272 
L 1658 2272 
Q 2310 2272 2630 2483 
Q 2950 2694 2950 3200 
Q 2950 3642 2668 3859 
Q 2387 4077 1779 4077 
z
" transform="scale(0.015625)"/>
        <path id="NotoSans-Regular-68" d="M 1107 3437 
Q 1107 3181 1075 2957 
L 1114 2957 
Q 1280 3219 1565 3353 
Q 1850 3488 2182 3488 
Q 2810 3488 3123 3190 
Q 3437 2893 3437 2234 
L 3437 0 
L 2880 0 
L 2880 2195 
Q 2880 3021 2112 3021 
Q 1536 3021 1321 2697 
Q 1107 2374 1107 1773 
L 1107 0 
L 544 0 
L 544 4864 
L 1107 4864 
L 1107 3437 
z
" transform="scale(0.015625)"/>
        <path id="NotoSans-Regular-67" d="M 1760 3494 
Q 2099 3494 2371 3366 
Q 2643 3238 2835 2976 
L 2867 2976 
L 2944 3430 
L 3392 3430 
L 3392 -58 
Q 3392 -794 3017 -1165 
Q 2643 -1536 1856 -1536 
Q 1101 -1536 621 -1318 
L 621 -800 
Q 1126 -1069 1888 -1069 
Q 2330 -1069 2582 -809 
Q 2835 -550 2835 -102 
L 2835 32 
Q 2835 109 2841 253 
Q 2848 397 2854 454 
L 2829 454 
Q 2483 -64 1766 -64 
Q 1101 -64 726 403 
Q 352 870 352 1709 
Q 352 2528 726 3011 
Q 1101 3494 1760 3494 
z
M 1837 3021 
Q 1408 3021 1171 2678 
Q 934 2336 934 1702 
Q 934 1069 1168 733 
Q 1402 397 1850 397 
Q 2368 397 2605 675 
Q 2842 954 2842 1574 
L 2842 1709 
Q 2842 2413 2598 2717 
Q 2355 3021 1837 3021 
z
" transform="scale(0.015625)"/>
       </defs>
       <use xlink:href="#NotoSans-Regular-50"/>
       <use xlink:href="#NotoSans-Regular-68" transform="translate(60.499985 0)"/>
       <use xlink:href="#NotoSans-Regular-69" transform="translate(122.299973 0)"/>
       <use xlink:href="#NotoSans-Regular-73" transform="translate(148.09996 0)"/>
       <use xlink:href="#NotoSans-Regular-68" transform="translate(195.999954 0)"/>
       <use xlink:href="#NotoSans-Regular-69" transform="translate(257.799942 0)"/>
       <use xlink:href="#NotoSans-Regular-6e" transform="translate(283.59993 0)"/>
       <use xlink:href="#NotoSans-Regular-67" transform="translate(345.399918 0)"/>
      </g>
     </g>
    </g>
    <g id="xtick_3">
     <g id="line2d_3">
      <path d="M 354.717201 336.968976 
L 354.717201 64.770625 
" clip-path="url(#pd0ce5af6cf)" style="fill: none; stroke: #f5f5f5; stroke-linecap: square"/>
     </g>
     <g id="text_3">
      <!-- Hacking (DEFACE) -->
      <g style="fill: #4d4d4d" transform="translate(282.262179 413.836344) rotate(-45) scale(0.12 -0.12)">
       <defs>
        <path id="NotoSans-Regular-48" d="M 4115 0 
L 3539 0 
L 3539 2131 
L 1197 2131 
L 1197 0 
L 621 0 
L 621 4570 
L 1197 4570 
L 1197 2637 
L 3539 2637 
L 3539 4570 
L 4115 4570 
L 4115 0 
z
" transform="scale(0.015625)"/>
        <path id="NotoSans-Regular-6b" d="M 1101 2323 
Q 1101 2221 1091 2054 
Q 1082 1888 1075 1766 
L 1101 1766 
Q 1139 1818 1216 1914 
Q 1293 2010 1373 2109 
Q 1453 2208 1510 2272 
L 2605 3430 
L 3264 3430 
L 1875 1965 
L 3360 0 
L 2682 0 
L 1491 1600 
L 1101 1261 
L 1101 0 
L 544 0 
L 544 4864 
L 1101 4864 
L 1101 2323 
z
" transform="scale(0.015625)"/>
        <path id="NotoSans-Regular-28" d="M 256 1754 
Q 256 2534 483 3260 
Q 710 3987 1197 4570 
L 1728 4570 
Q 1280 3968 1053 3245 
Q 826 2522 826 1760 
Q 826 1018 1053 304 
Q 1280 -410 1722 -1011 
L 1197 -1011 
Q 710 -448 483 265 
Q 256 979 256 1754 
z
" transform="scale(0.015625)"/>
        <path id="NotoSans-Regular-44" d="M 4282 2330 
Q 4282 1171 3651 585 
Q 3021 0 1894 0 
L 621 0 
L 621 4570 
L 2029 4570 
Q 2720 4570 3225 4314 
Q 3731 4058 4006 3562 
Q 4282 3066 4282 2330 
z
M 3674 2310 
Q 3674 3226 3222 3651 
Q 2771 4077 1946 4077 
L 1197 4077 
L 1197 493 
L 1818 493 
Q 3674 493 3674 2310 
z
" transform="scale(0.015625)"/>
        <path id="NotoSans-Regular-45" d="M 3174 0 
L 621 0 
L 621 4570 
L 3174 4570 
L 3174 4064 
L 1197 4064 
L 1197 2637 
L 3059 2637 
L 3059 2138 
L 1197 2138 
L 1197 506 
L 3174 506 
L 3174 0 
z
" transform="scale(0.015625)"/>
        <path id="NotoSans-Regular-46" d="M 1197 0 
L 621 0 
L 621 4570 
L 3174 4570 
L 3174 4064 
L 1197 4064 
L 1197 2445 
L 3053 2445 
L 3053 1939 
L 1197 1939 
L 1197 0 
z
" transform="scale(0.015625)"/>
        <path id="NotoSans-Regular-41" d="M 3488 0 
L 2938 1414 
L 1126 1414 
L 582 0 
L 0 0 
L 1786 4589 
L 2304 4589 
L 4083 0 
L 3488 0 
z
M 2253 3309 
Q 2234 3360 2189 3494 
Q 2144 3629 2102 3773 
Q 2061 3917 2035 3994 
Q 1990 3795 1932 3606 
Q 1875 3418 1837 3309 
L 1318 1926 
L 2765 1926 
L 2253 3309 
z
" transform="scale(0.015625)"/>
        <path id="NotoSans-Regular-43" d="M 2579 4128 
Q 1843 4128 1420 3635 
Q 998 3142 998 2285 
Q 998 1434 1392 938 
Q 1786 442 2573 442 
Q 2874 442 3142 493 
Q 3411 544 3667 621 
L 3667 122 
Q 3411 26 3139 -19 
Q 2867 -64 2490 -64 
Q 1792 -64 1325 224 
Q 858 512 624 1043 
Q 390 1574 390 2291 
Q 390 2982 643 3510 
Q 896 4038 1389 4336 
Q 1882 4634 2586 4634 
Q 3309 4634 3846 4365 
L 3616 3878 
Q 3405 3974 3145 4051 
Q 2886 4128 2579 4128 
z
" transform="scale(0.015625)"/>
        <path id="NotoSans-Regular-29" d="M 1664 1754 
Q 1664 979 1437 265 
Q 1210 -448 723 -1011 
L 198 -1011 
Q 640 -410 867 304 
Q 1094 1018 1094 1760 
Q 1094 2522 867 3245 
Q 640 3968 192 4570 
L 723 4570 
Q 1210 3987 1437 3260 
Q 1664 2534 1664 1754 
z
" transform="scale(0.015625)"/>
       </defs>
       <use xlink:href="#NotoSans-Regular-48"/>
       <use xlink:href="#NotoSans-Regular-61" transform="translate(74.099991 0)"/>
       <use xlink:href="#NotoSans-Regular-63" transform="translate(130.199982 0)"/>
       <use xlink:href="#NotoSans-Regular-6b" transform="translate(178.199966 0)"/>
       <use xlink:href="#NotoSans-Regular-69" transform="translate(231.59996 0)"/>
       <use xlink:href="#NotoSans-Regular-6e" transform="translate(257.399948 0)"/>
       <use xlink:href="#NotoSans-Regular-67" transform="translate(319.199936 0)"/>
       <use xlink:href="#NotoSans-Regular-20" transform="translate(380.699921 0)"/>
       <use xlink:href="#NotoSans-Regular-28" transform="translate(406.699905 0)"/>
       <use xlink:href="#NotoSans-Regular-44" transform="translate(436.69989 0)"/>
       <use xlink:href="#NotoSans-Regular-45" transform="translate(509.699875 0)"/>
       <use xlink:href="#NotoSans-Regular-46" transform="translate(565.299866 0)"/>
       <use xlink:href="#NotoSans-Regular-41" transform="translate(617.19986 0)"/>
       <use xlink:href="#NotoSans-Regular-43" transform="translate(681.099854 0)"/>
       <use xlink:href="#NotoSans-Regular-45" transform="translate(744.29985 0)"/>
       <use xlink:href="#NotoSans-Regular-29" transform="translate(799.899841 0)"/>
      </g>
     </g>
    </g>
    <g id="xtick_4">
     <g id="line2d_4">
      <path d="M 444.117701 336.968976 
L 444.117701 64.770625 
" clip-path="url(#pd0ce5af6cf)" style="fill: none; stroke: #f5f5f5; stroke-linecap: square"/>
     </g>
     <g id="text_4">
      <!-- Smishing -->
      <g style="fill: #4d4d4d" transform="translate(405.339965 380.159058) rotate(-45) scale(0.12 -0.12)">
       <defs>
        <path id="NotoSans-Regular-53" d="M 3213 1222 
Q 3213 614 2771 275 
Q 2330 -64 1581 -64 
Q 1197 -64 870 -6 
Q 544 51 326 154 
L 326 704 
Q 557 602 899 518 
Q 1242 435 1606 435 
Q 2118 435 2377 633 
Q 2637 832 2637 1171 
Q 2637 1395 2541 1548 
Q 2445 1702 2211 1833 
Q 1978 1965 1562 2112 
Q 979 2323 681 2630 
Q 384 2938 384 3469 
Q 384 3834 569 4093 
Q 755 4352 1084 4493 
Q 1414 4634 1843 4634 
Q 2221 4634 2534 4563 
Q 2848 4493 3104 4378 
L 2925 3885 
Q 2688 3987 2409 4057 
Q 2131 4128 1830 4128 
Q 1402 4128 1184 3945 
Q 966 3763 966 3462 
Q 966 3232 1062 3078 
Q 1158 2925 1376 2803 
Q 1594 2682 1965 2541 
Q 2368 2394 2646 2224 
Q 2925 2054 3069 1817 
Q 3213 1581 3213 1222 
z
" transform="scale(0.015625)"/>
        <path id="NotoSans-Regular-6d" d="M 4307 3494 
Q 4890 3494 5178 3196 
Q 5466 2899 5466 2234 
L 5466 0 
L 4909 0 
L 4909 2208 
Q 4909 3021 4211 3021 
Q 3712 3021 3497 2733 
Q 3283 2445 3283 1894 
L 3283 0 
L 2726 0 
L 2726 2208 
Q 2726 3021 2022 3021 
Q 1504 3021 1305 2701 
Q 1107 2381 1107 1779 
L 1107 0 
L 544 0 
L 544 3430 
L 998 3430 
L 1082 2963 
L 1114 2963 
Q 1274 3232 1546 3363 
Q 1818 3494 2125 3494 
Q 2931 3494 3174 2918 
L 3206 2918 
Q 3379 3213 3676 3353 
Q 3974 3494 4307 3494 
z
" transform="scale(0.015625)"/>
       </defs>
       <use xlink:href="#NotoSans-Regular-53"/>
       <use xlink:href="#NotoSans-Regular-6d" transform="translate(54.899994 0)"/>
       <use xlink:href="#NotoSans-Regular-69" transform="translate(148.399979 0)"/>
       <use xlink:href="#NotoSans-Regular-73" transform="translate(174.199966 0)"/>
       <use xlink:href="#NotoSans-Regular-68" transform="translate(222.09996 0)"/>
       <use xlink:href="#NotoSans-Regular-69" transform="translate(283.899948 0)"/>
       <use xlink:href="#NotoSans-Regular-6e" transform="translate(309.699936 0)"/>
       <use xlink:href="#NotoSans-Regular-67" transform="translate(371.499924 0)"/>
      </g>
     </g>
    </g>
    <g id="xtick_5">
     <g id="line2d_5">
      <path d="M 533.518201 336.968976 
L 533.518201 64.770625 
" clip-path="url(#pd0ce5af6cf)" style="fill: none; stroke: #f5f5f5; stroke-linecap: square"/>
     </g>
     <g id="text_5">
      <!-- Vishing -->
      <g style="fill: #4d4d4d" transform="translate(502.241984 372.657539) rotate(-45) scale(0.12 -0.12)">
       <defs>
        <path id="NotoSans-Regular-56" d="M 3840 4570 
L 2208 0 
L 1632 0 
L 0 4570 
L 602 4570 
L 1632 1638 
Q 1734 1357 1804 1110 
Q 1875 864 1920 640 
Q 1965 864 2035 1113 
Q 2106 1363 2208 1651 
L 3232 4570 
L 3840 4570 
z
" transform="scale(0.015625)"/>
       </defs>
       <use xlink:href="#NotoSans-Regular-56"/>
       <use xlink:href="#NotoSans-Regular-69" transform="translate(59.999985 0)"/>
       <use xlink:href="#NotoSans-Regular-73" transform="translate(85.799973 0)"/>
       <use xlink:href="#NotoSans-Regular-68" transform="translate(133.699966 0)"/>
       <use xlink:href="#NotoSans-Regular-69" transform="translate(195.499954 0)"/>
       <use xlink:href="#NotoSans-Regular-6e" transform="translate(221.299942 0)"/>
       <use xlink:href="#NotoSans-Regular-67" transform="translate(283.09993 0)"/>
      </g>
     </g>
    </g>
    <g id="xtick_6">
     <g id="line2d_6">
      <path d="M 622.918701 336.968976 
L 622.918701 64.770625 
" clip-path="url(#pd0ce5af6cf)" style="fill: none; stroke: #f5f5f5; stroke-linecap: square"/>
     </g>
     <g id="text_6">
      <!-- Intrusión a sistemas -->
      <g style="fill: #4d4d4d" transform="translate(540.221679 424.078344) rotate(-45) scale(0.12 -0.12)">
       <defs>
        <path id="NotoSans-Regular-49" d="M 1907 0 
L 256 0 
L 256 333 
L 794 454 
L 794 4109 
L 256 4237 
L 256 4570 
L 1907 4570 
L 1907 4237 
L 1370 4109 
L 1370 454 
L 1907 333 
L 1907 0 
z
" transform="scale(0.015625)"/>
        <path id="NotoSans-Regular-75" d="M 3411 3430 
L 3411 0 
L 2950 0 
L 2867 454 
L 2842 454 
Q 2675 186 2380 61 
Q 2086 -64 1754 -64 
Q 1133 -64 819 233 
Q 506 531 506 1184 
L 506 3430 
L 1075 3430 
L 1075 1222 
Q 1075 403 1837 403 
Q 2406 403 2627 723 
Q 2848 1043 2848 1645 
L 2848 3430 
L 3411 3430 
z
" transform="scale(0.015625)"/>
        <path id="NotoSans-Regular-f3" d="M 3526 1722 
Q 3526 870 3094 403 
Q 2662 -64 1926 -64 
Q 1472 -64 1117 144 
Q 762 352 557 752 
Q 352 1152 352 1722 
Q 352 2573 781 3033 
Q 1210 3494 1946 3494 
Q 2413 3494 2768 3286 
Q 3123 3078 3324 2684 
Q 3526 2291 3526 1722 
z
M 934 1722 
Q 934 1114 1174 758 
Q 1414 403 1939 403 
Q 2458 403 2701 758 
Q 2944 1114 2944 1722 
Q 2944 2330 2701 2675 
Q 2458 3021 1933 3021 
Q 1408 3021 1171 2675 
Q 934 2330 934 1722 
z
M 2842 4838 
Q 2765 4723 2605 4540 
Q 2445 4358 2262 4176 
Q 2080 3994 1927 3878 
L 1555 3878 
L 1555 3955 
Q 1651 4077 1763 4243 
Q 1875 4410 1984 4586 
Q 2093 4762 2163 4902 
L 2842 4902 
L 2842 4838 
z
" transform="scale(0.015625)"/>
       </defs>
       <use xlink:href="#NotoSans-Regular-49"/>
       <use xlink:href="#NotoSans-Regular-6e" transform="translate(33.899994 0)"/>
       <use xlink:href="#NotoSans-Regular-74" transform="translate(95.699982 0)"/>
       <use xlink:href="#NotoSans-Regular-72" transform="translate(131.799973 0)"/>
       <use xlink:href="#NotoSans-Regular-75" transform="translate(173.09996 0)"/>
       <use xlink:href="#NotoSans-Regular-73" transform="translate(234.899948 0)"/>
       <use xlink:href="#NotoSans-Regular-69" transform="translate(282.799942 0)"/>
       <use xlink:href="#NotoSans-Regular-f3" transform="translate(308.59993 0)"/>
       <use xlink:href="#NotoSans-Regular-6e" transform="translate(369.099915 0)"/>
       <use xlink:href="#NotoSans-Regular-20" transform="translate(430.899902 0)"/>
       <use xlink:href="#NotoSans-Regular-61" transform="translate(456.899887 0)"/>
       <use xlink:href="#NotoSans-Regular-20" transform="translate(512.999878 0)"/>
       <use xlink:href="#NotoSans-Regular-73" transform="translate(538.999863 0)"/>
       <use xlink:href="#NotoSans-Regular-69" transform="translate(586.899857 0)"/>
       <use xlink:href="#NotoSans-Regular-73" transform="translate(612.699844 0)"/>
       <use xlink:href="#NotoSans-Regular-74" transform="translate(660.599838 0)"/>
       <use xlink:href="#NotoSans-Regular-65" transform="translate(696.699829 0)"/>
       <use xlink:href="#NotoSans-Regular-6d" transform="translate(753.099823 0)"/>
       <use xlink:href="#NotoSans-Regular-61" transform="translate(846.599808 0)"/>
       <use xlink:href="#NotoSans-Regular-73" transform="translate(902.699799 0)"/>
      </g>
     </g>
    </g>
    <g id="xtick_7">
     <g id="line2d_7">
      <path d="M 712.3192 336.968976 
L 712.3192 64.770625 
" clip-path="url(#pd0ce5af6cf)" style="fill: none; stroke: #f5f5f5; stroke-linecap: square"/>
     </g>
     <g id="text_7">
      <!-- Pharming -->
      <g style="fill: #4d4d4d" transform="translate(671.056868 382.643655) rotate(-45) scale(0.12 -0.12)">
       <use xlink:href="#NotoSans-Regular-50"/>
       <use xlink:href="#NotoSans-Regular-68" transform="translate(60.499985 0)"/>
       <use xlink:href="#NotoSans-Regular-61" transform="translate(122.299973 0)"/>
       <use xlink:href="#NotoSans-Regular-72" transform="translate(178.399963 0)"/>
       <use xlink:href="#NotoSans-Regular-6d" transform="translate(219.699951 0)"/>
       <use xlink:href="#NotoSans-Regular-69" transform="translate(313.199936 0)"/>
       <use xlink:href="#NotoSans-Regular-6e" transform="translate(338.999924 0)"/>
       <use xlink:href="#NotoSans-Regular-67" transform="translate(400.799911 0)"/>
      </g>
     </g>
    </g>
    <g id="xtick_8">
     <g id="line2d_8">
      <path d="M 801.7197 336.968976 
L 801.7197 64.770625 
" clip-path="url(#pd0ce5af6cf)" style="fill: none; stroke: #f5f5f5; stroke-linecap: square"/>
     </g>
     <g id="text_8">
      <!-- Malware (Ransomware) -->
      <g style="fill: #4d4d4d" transform="translate(705.889054 437.211969) rotate(-45) scale(0.12 -0.12)">
       <defs>
        <path id="NotoSans-Regular-4d" d="M 2637 0 
L 1133 4006 
L 1107 4006 
Q 1126 3808 1139 3472 
Q 1152 3136 1152 2771 
L 1152 0 
L 621 0 
L 621 4570 
L 1472 4570 
L 2880 826 
L 2906 826 
L 4339 4570 
L 5184 4570 
L 5184 0 
L 4614 0 
L 4614 2810 
Q 4614 3142 4630 3468 
Q 4646 3795 4659 4000 
L 4634 4000 
L 3110 0 
L 2637 0 
z
" transform="scale(0.015625)"/>
        <path id="NotoSans-Regular-77" d="M 2758 1939 
Q 2675 2202 2614 2454 
Q 2554 2707 2522 2848 
L 2496 2848 
Q 2470 2707 2412 2454 
Q 2355 2202 2266 1933 
L 1651 6 
L 1011 6 
L 70 3437 
L 653 3437 
L 1126 1606 
Q 1197 1331 1261 1049 
Q 1325 768 1350 582 
L 1376 582 
Q 1402 691 1437 851 
Q 1472 1011 1517 1187 
Q 1562 1363 1606 1504 
L 2214 3437 
L 2829 3437 
L 3418 1504 
Q 3488 1286 3555 1030 
Q 3622 774 3648 589 
L 3674 589 
Q 3693 749 3760 1030 
Q 3827 1312 3904 1606 
L 4384 3437 
L 4960 3437 
L 4006 6 
L 3347 6 
L 2758 1939 
z
" transform="scale(0.015625)"/>
       </defs>
       <use xlink:href="#NotoSans-Regular-4d"/>
       <use xlink:href="#NotoSans-Regular-61" transform="translate(90.699982 0)"/>
       <use xlink:href="#NotoSans-Regular-6c" transform="translate(146.799973 0)"/>
       <use xlink:href="#NotoSans-Regular-77" transform="translate(172.59996 0)"/>
       <use xlink:href="#NotoSans-Regular-61" transform="translate(251.199951 0)"/>
       <use xlink:href="#NotoSans-Regular-72" transform="translate(307.299942 0)"/>
       <use xlink:href="#NotoSans-Regular-65" transform="translate(348.59993 0)"/>
       <use xlink:href="#NotoSans-Regular-20" transform="translate(404.999924 0)"/>
       <use xlink:href="#NotoSans-Regular-28" transform="translate(430.999908 0)"/>
       <use xlink:href="#NotoSans-Regular-52" transform="translate(460.999893 0)"/>
       <use xlink:href="#NotoSans-Regular-61" transform="translate(523.19989 0)"/>
       <use xlink:href="#NotoSans-Regular-6e" transform="translate(579.299881 0)"/>
       <use xlink:href="#NotoSans-Regular-73" transform="translate(641.099869 0)"/>
       <use xlink:href="#NotoSans-Regular-6f" transform="translate(688.999863 0)"/>
       <use xlink:href="#NotoSans-Regular-6d" transform="translate(749.499847 0)"/>
       <use xlink:href="#NotoSans-Regular-77" transform="translate(842.999832 0)"/>
       <use xlink:href="#NotoSans-Regular-61" transform="translate(921.599823 0)"/>
       <use xlink:href="#NotoSans-Regular-72" transform="translate(977.699814 0)"/>
       <use xlink:href="#NotoSans-Regular-65" transform="translate(1018.999802 0)"/>
       <use xlink:href="#NotoSans-Regular-29" transform="translate(1075.399796 0)"/>
      </g>
     </g>
    </g>
   </g>
   <g id="matplotlib.axis_2">
    <g id="ytick_1">
     <g id="line2d_9">
      <path d="M 122.275902 324.596324 
L 855.36 324.596324 
" clip-path="url(#pd0ce5af6cf)" style="fill: none; stroke: #f5f5f5; stroke-linecap: square"/>
     </g>
     <g id="text_9">
      <!-- 0 -->
      <g style="fill: #4d4d4d" transform="translate(115.411527 329.156324) scale(0.12 -0.12)">
       <defs>
        <path id="NotoSans-Regular-30" d="M 3347 2291 
Q 3347 1555 3193 1027 
Q 3040 499 2707 217 
Q 2374 -64 1824 -64 
Q 1050 -64 682 560 
Q 314 1184 314 2291 
Q 314 3034 464 3558 
Q 614 4083 947 4361 
Q 1280 4640 1824 4640 
Q 2592 4640 2969 4022 
Q 3347 3405 3347 2291 
z
M 877 2291 
Q 877 1350 1091 883 
Q 1306 416 1824 416 
Q 2336 416 2557 880 
Q 2778 1344 2778 2291 
Q 2778 3226 2557 3693 
Q 2336 4160 1824 4160 
Q 1306 4160 1091 3693 
Q 877 3226 877 2291 
z
" transform="scale(0.015625)"/>
       </defs>
       <use xlink:href="#NotoSans-Regular-30"/>
      </g>
     </g>
    </g>
    <g id="ytick_2">
     <g id="line2d_10">
      <path d="M 122.275902 275.105714 
L 855.36 275.105714 
" clip-path="url(#pd0ce5af6cf)" style="fill: none; stroke: #f5f5f5; stroke-linecap: square"/>
     </g>
     <g id="text_10">
      <!-- 100 -->
      <g style="fill: #4d4d4d" transform="translate(101.682777 279.665714) scale(0.12 -0.12)">
       <defs>
        <path id="NotoSans-Regular-31" d="M 2272 0 
L 1722 0 
L 1722 3194 
Q 1722 3469 1728 3635 
Q 1734 3802 1747 3981 
Q 1645 3878 1561 3808 
Q 1478 3738 1350 3629 
L 864 3232 
L 570 3610 
L 1805 4570 
L 2272 4570 
L 2272 0 
z
" transform="scale(0.015625)"/>
       </defs>
       <use xlink:href="#NotoSans-Regular-31"/>
       <use xlink:href="#NotoSans-Regular-30" transform="translate(57.199997 0)"/>
       <use xlink:href="#NotoSans-Regular-30" transform="translate(114.399994 0)"/>
      </g>
     </g>
    </g>
    <g id="ytick_3">
     <g id="line2d_11">
      <path d="M 122.275902 225.615105 
L 855.36 225.615105 
" clip-path="url(#pd0ce5af6cf)" style="fill: none; stroke: #f5f5f5; stroke-linecap: square"/>
     </g>
     <g id="text_11">
      <!-- 200 -->
      <g style="fill: #4d4d4d" transform="translate(101.682777 230.175105) scale(0.12 -0.12)">
       <defs>
        <path id="NotoSans-Regular-32" d="M 3328 0 
L 307 0 
L 307 467 
L 1504 1677 
Q 1850 2022 2086 2291 
Q 2323 2560 2444 2819 
Q 2566 3078 2566 3386 
Q 2566 3763 2342 3958 
Q 2118 4154 1760 4154 
Q 1427 4154 1174 4038 
Q 922 3923 659 3718 
L 358 4096 
Q 627 4320 976 4477 
Q 1325 4634 1760 4634 
Q 2400 4634 2771 4310 
Q 3142 3987 3142 3418 
Q 3142 3059 2995 2745 
Q 2848 2432 2585 2128 
Q 2323 1824 1971 1478 
L 1018 538 
L 1018 512 
L 3328 512 
L 3328 0 
z
" transform="scale(0.015625)"/>
       </defs>
       <use xlink:href="#NotoSans-Regular-32"/>
       <use xlink:href="#NotoSans-Regular-30" transform="translate(57.199997 0)"/>
       <use xlink:href="#NotoSans-Regular-30" transform="translate(114.399994 0)"/>
      </g>
     </g>
    </g>
    <g id="ytick_4">
     <g id="line2d_12">
      <path d="M 122.275902 176.124496 
L 855.36 176.124496 
" clip-path="url(#pd0ce5af6cf)" style="fill: none; stroke: #f5f5f5; stroke-linecap: square"/>
     </g>
     <g id="text_12">
      <!-- 300 -->
      <g style="fill: #4d4d4d" transform="translate(101.682777 180.684496) scale(0.12 -0.12)">
       <defs>
        <path id="NotoSans-Regular-33" d="M 3155 3501 
Q 3155 3040 2899 2768 
Q 2643 2496 2208 2406 
L 2208 2381 
Q 2758 2317 3027 2035 
Q 3296 1754 3296 1299 
Q 3296 902 3110 592 
Q 2925 282 2537 109 
Q 2150 -64 1542 -64 
Q 1184 -64 877 -9 
Q 570 45 288 186 
L 288 710 
Q 576 570 909 490 
Q 1242 410 1549 410 
Q 2163 410 2435 650 
Q 2707 890 2707 1312 
Q 2707 1741 2371 1929 
Q 2035 2118 1427 2118 
L 986 2118 
L 986 2598 
L 1434 2598 
Q 1997 2598 2288 2835 
Q 2579 3072 2579 3462 
Q 2579 3795 2355 3977 
Q 2131 4160 1747 4160 
Q 1376 4160 1113 4051 
Q 851 3942 595 3776 
L 314 4160 
Q 557 4352 918 4493 
Q 1280 4634 1741 4634 
Q 2458 4634 2806 4314 
Q 3155 3994 3155 3501 
z
" transform="scale(0.015625)"/>
       </defs>
       <use xlink:href="#NotoSans-Regular-33"/>
       <use xlink:href="#NotoSans-Regular-30" transform="translate(57.199997 0)"/>
       <use xlink:href="#NotoSans-Regular-30" transform="translate(114.399994 0)"/>
      </g>
     </g>
    </g>
    <g id="ytick_5">
     <g id="line2d_13">
      <path d="M 122.275902 126.633887 
L 855.36 126.633887 
" clip-path="url(#pd0ce5af6cf)" style="fill: none; stroke: #f5f5f5; stroke-linecap: square"/>
     </g>
     <g id="text_13">
      <!-- 400 -->
      <g style="fill: #4d4d4d" transform="translate(101.682777 131.193887) scale(0.12 -0.12)">
       <defs>
        <path id="NotoSans-Regular-34" d="M 3533 1037 
L 2867 1037 
L 2867 0 
L 2323 0 
L 2323 1037 
L 134 1037 
L 134 1517 
L 2285 4595 
L 2867 4595 
L 2867 1542 
L 3533 1542 
L 3533 1037 
z
M 2323 2982 
Q 2323 3315 2336 3548 
Q 2349 3782 2355 3994 
L 2330 3994 
Q 2278 3872 2201 3731 
Q 2125 3590 2054 3494 
L 685 1542 
L 2323 1542 
L 2323 2982 
z
" transform="scale(0.015625)"/>
       </defs>
       <use xlink:href="#NotoSans-Regular-34"/>
       <use xlink:href="#NotoSans-Regular-30" transform="translate(57.199997 0)"/>
       <use xlink:href="#NotoSans-Regular-30" transform="translate(114.399994 0)"/>
      </g>
     </g>
    </g>
    <g id="ytick_6">
     <g id="line2d_14">
      <path d="M 122.275902 77.143277 
L 855.36 77.143277 
" clip-path="url(#pd0ce5af6cf)" style="fill: none; stroke: #f5f5f5; stroke-linecap: square"/>
     </g>
     <g id="text_14">
      <!-- 500 -->
      <g style="fill: #4d4d4d" transform="translate(101.682777 81.703277) scale(0.12 -0.12)">
       <defs>
        <path id="NotoSans-Regular-35" d="M 1760 2803 
Q 2464 2803 2880 2451 
Q 3296 2099 3296 1459 
Q 3296 749 2845 342 
Q 2394 -64 1587 -64 
Q 1235 -64 924 0 
Q 614 64 403 186 
L 403 717 
Q 634 576 963 496 
Q 1293 416 1594 416 
Q 2099 416 2409 656 
Q 2720 896 2720 1402 
Q 2720 1850 2445 2090 
Q 2170 2330 1574 2330 
Q 1395 2330 1164 2298 
Q 934 2266 794 2234 
L 512 2413 
L 685 4570 
L 2976 4570 
L 2976 4058 
L 1165 4058 
L 1056 2733 
Q 1165 2752 1350 2777 
Q 1536 2803 1760 2803 
z
" transform="scale(0.015625)"/>
       </defs>
       <use xlink:href="#NotoSans-Regular-35"/>
       <use xlink:href="#NotoSans-Regular-30" transform="translate(57.199997 0)"/>
       <use xlink:href="#NotoSans-Regular-30" transform="translate(114.399994 0)"/>
      </g>
     </g>
    </g>
    <g id="ytick_7">
     <g id="line2d_15">
      <path d="M 122.275902 299.851019 
L 855.36 299.851019 
" clip-path="url(#pd0ce5af6cf)" style="fill: none; stroke: #f5f5f5; stroke-width: 0.5; stroke-linecap: square"/>
     </g>
    </g>
    <g id="ytick_8">
     <g id="line2d_16">
      <path d="M 122.275902 250.36041 
L 855.36 250.36041 
" clip-path="url(#pd0ce5af6cf)" style="fill: none; stroke: #f5f5f5; stroke-width: 0.5; stroke-linecap: square"/>
     </g>
    </g>
    <g id="ytick_9">
     <g id="line2d_17">
      <path d="M 122.275902 200.8698 
L 855.36 200.8698 
" clip-path="url(#pd0ce5af6cf)" style="fill: none; stroke: #f5f5f5; stroke-width: 0.5; stroke-linecap: square"/>
     </g>
    </g>
    <g id="ytick_10">
     <g id="line2d_18">
      <path d="M 122.275902 151.379191 
L 855.36 151.379191 
" clip-path="url(#pd0ce5af6cf)" style="fill: none; stroke: #f5f5f5; stroke-width: 0.5; stroke-linecap: square"/>
     </g>
    </g>
    <g id="ytick_11">
     <g id="line2d_19">
      <path d="M 122.275902 101.888582 
L 855.36 101.888582 
" clip-path="url(#pd0ce5af6cf)" style="fill: none; stroke: #f5f5f5; stroke-width: 0.5; stroke-linecap: square"/>
     </g>
    </g>
   </g>
   <g id="PolyCollection_1">
    <path d="M 175.916202 324.596324 
L 175.916202 109.807079 
L 202.736352 109.807079 
L 202.736352 324.596324 
z
" clip-path="url(#pd0ce5af6cf)" style="fill: #bc955c"/>
    <path d="M 149.096052 324.596324 
L 149.096052 175.62959 
L 175.916202 175.62959 
L 175.916202 324.596324 
z
" clip-path="url(#pd0ce5af6cf)" style="fill: #691c32"/>
    <path d="M 265.316702 324.596324 
L 265.316702 213.737359 
L 292.136852 213.737359 
L 292.136852 324.596324 
z
" clip-path="url(#pd0ce5af6cf)" style="fill: #bc955c"/>
    <path d="M 238.496552 324.596324 
L 238.496552 213.737359 
L 265.316702 213.737359 
L 265.316702 324.596324 
z
" clip-path="url(#pd0ce5af6cf)" style="fill: #691c32"/>
    <path d="M 354.717201 324.596324 
L 354.717201 252.340034 
L 381.537351 252.340034 
L 381.537351 324.596324 
z
" clip-path="url(#pd0ce5af6cf)" style="fill: #bc955c"/>
    <path d="M 327.897052 324.596324 
L 327.897052 252.340034 
L 354.717201 252.340034 
L 354.717201 324.596324 
z
" clip-path="url(#pd0ce5af6cf)" style="fill: #691c32"/>
    <path d="M 444.117701 324.596324 
L 444.117701 299.356113 
L 470.937851 299.356113 
L 470.937851 324.596324 
z
" clip-path="url(#pd0ce5af6cf)" style="fill: #bc955c"/>
    <path d="M 417.297551 324.596324 
L 417.297551 301.830643 
L 444.117701 301.830643 
L 444.117701 324.596324 
z
" clip-path="url(#pd0ce5af6cf)" style="fill: #691c32"/>
    <path d="M 533.518201 324.596324 
L 533.518201 299.356113 
L 560.338351 299.356113 
L 560.338351 324.596324 
z
" clip-path="url(#pd0ce5af6cf)" style="fill: #bc955c"/>
    <path d="M 506.698051 324.596324 
L 506.698051 312.718577 
L 533.518201 312.718577 
L 533.518201 324.596324 
z
" clip-path="url(#pd0ce5af6cf)" style="fill: #691c32"/>
    <path d="M 622.918701 324.596324 
L 622.918701 310.244047 
L 649.738851 310.244047 
L 649.738851 324.596324 
z
" clip-path="url(#pd0ce5af6cf)" style="fill: #bc955c"/>
    <path d="M 596.098551 324.596324 
L 596.098551 310.244047 
L 622.918701 310.244047 
L 622.918701 324.596324 
z
" clip-path="url(#pd0ce5af6cf)" style="fill: #691c32"/>
    <path d="M 712.3192 324.596324 
L 712.3192 323.111605 
L 739.13935 323.111605 
L 739.13935 324.596324 
z
" clip-path="url(#pd0ce5af6cf)" style="fill: #bc955c"/>
    <path d="M 685.499051 324.596324 
L 685.499051 313.213483 
L 712.3192 313.213483 
L 712.3192 324.596324 
z
" clip-path="url(#pd0ce5af6cf)" style="fill: #691c32"/>
    <path d="M 801.7197 324.596324 
L 801.7197 322.616699 
L 828.53985 322.616699 
L 828.53985 324.596324 
z
" clip-path="url(#pd0ce5af6cf)" style="fill: #bc955c"/>
    <path d="M 774.89955 324.596324 
L 774.89955 322.616699 
L 801.7197 322.616699 
L 801.7197 324.596324 
z
" clip-path="url(#pd0ce5af6cf)" style="fill: #691c32"/>
   </g>
  </g>
  <g id="text_15">
   <!-- Solicitudes Ministeriales/Judiciales de Seguridad Informática -->
   <g style="fill: #691c32" transform="translate(122.275902 25.490625) scale(0.22 -0.22)">
    <defs>
     <path id="NotoSans-Bold-53" d="M 3270 1267 
Q 3270 659 2832 297 
Q 2394 -64 1587 -64 
Q 864 -64 294 211 
L 294 1114 
Q 621 973 969 854 
Q 1318 736 1664 736 
Q 2022 736 2172 873 
Q 2323 1011 2323 1222 
Q 2323 1395 2204 1516 
Q 2086 1638 1888 1744 
Q 1690 1850 1434 1971 
Q 1274 2048 1088 2153 
Q 902 2259 732 2416 
Q 563 2573 454 2797 
Q 346 3021 346 3334 
Q 346 3949 762 4291 
Q 1178 4634 1894 4634 
Q 2253 4634 2576 4550 
Q 2899 4467 3251 4314 
L 2938 3558 
Q 2624 3686 2374 3756 
Q 2125 3827 1862 3827 
Q 1587 3827 1440 3699 
Q 1293 3571 1293 3366 
Q 1293 3123 1510 2982 
Q 1728 2842 2157 2637 
Q 2509 2470 2755 2291 
Q 3002 2112 3136 1869 
Q 3270 1626 3270 1267 
z
" transform="scale(0.015625)"/>
     <path id="NotoSans-Bold-6f" d="M 3674 1754 
Q 3674 883 3216 409 
Q 2758 -64 1971 -64 
Q 1485 -64 1104 147 
Q 723 358 505 764 
Q 288 1171 288 1754 
Q 288 2624 742 3091 
Q 1197 3558 1990 3558 
Q 2483 3558 2860 3347 
Q 3238 3136 3456 2736 
Q 3674 2336 3674 1754 
z
M 1261 1754 
Q 1261 1235 1430 969 
Q 1600 704 1984 704 
Q 2362 704 2531 969 
Q 2701 1235 2701 1754 
Q 2701 2272 2531 2531 
Q 2362 2790 1978 2790 
Q 1600 2790 1430 2531 
Q 1261 2272 1261 1754 
z
" transform="scale(0.015625)"/>
     <path id="NotoSans-Bold-6c" d="M 1453 0 
L 499 0 
L 499 4864 
L 1453 4864 
L 1453 0 
z
" transform="scale(0.015625)"/>
     <path id="NotoSans-Bold-69" d="M 979 4864 
Q 1190 4864 1344 4765 
Q 1498 4666 1498 4397 
Q 1498 4134 1344 4032 
Q 1190 3930 979 3930 
Q 762 3930 611 4032 
Q 461 4134 461 4397 
Q 461 4666 611 4765 
Q 762 4864 979 4864 
z
M 1453 3494 
L 1453 0 
L 499 0 
L 499 3494 
L 1453 3494 
z
" transform="scale(0.015625)"/>
     <path id="NotoSans-Bold-63" d="M 1920 -64 
Q 1139 -64 713 368 
Q 288 800 288 1728 
Q 288 2368 505 2771 
Q 723 3174 1110 3366 
Q 1498 3558 2003 3558 
Q 2362 3558 2627 3488 
Q 2893 3418 3091 3322 
L 2810 2586 
Q 2586 2675 2390 2732 
Q 2195 2790 2003 2790 
Q 1261 2790 1261 1734 
Q 1261 1210 1456 960 
Q 1651 710 2003 710 
Q 2304 710 2534 790 
Q 2765 870 2982 1011 
L 2982 198 
Q 2765 58 2525 -3 
Q 2285 -64 1920 -64 
z
" transform="scale(0.015625)"/>
     <path id="NotoSans-Bold-74" d="M 1971 698 
Q 2131 698 2278 730 
Q 2426 762 2573 806 
L 2573 96 
Q 2419 32 2192 -16 
Q 1965 -64 1696 -64 
Q 1382 -64 1136 38 
Q 890 141 746 393 
Q 602 646 602 1094 
L 602 2778 
L 147 2778 
L 147 3181 
L 672 3501 
L 947 4237 
L 1555 4237 
L 1555 3494 
L 2534 3494 
L 2534 2778 
L 1555 2778 
L 1555 1094 
Q 1555 896 1670 797 
Q 1786 698 1971 698 
z
" transform="scale(0.015625)"/>
     <path id="NotoSans-Bold-75" d="M 3706 3494 
L 3706 0 
L 2976 0 
L 2848 448 
L 2797 448 
Q 2630 179 2339 57 
Q 2048 -64 1722 -64 
Q 1158 -64 819 240 
Q 480 544 480 1216 
L 480 3494 
L 1434 3494 
L 1434 1453 
Q 1434 1082 1568 890 
Q 1702 698 1997 698 
Q 2432 698 2592 995 
Q 2752 1293 2752 1850 
L 2752 3494 
L 3706 3494 
z
" transform="scale(0.015625)"/>
     <path id="NotoSans-Bold-64" d="M 1606 -64 
Q 1024 -64 656 393 
Q 288 851 288 1741 
Q 288 2637 659 3097 
Q 1030 3558 1632 3558 
Q 2010 3558 2253 3411 
Q 2496 3264 2637 3046 
L 2669 3046 
Q 2650 3149 2624 3344 
Q 2598 3539 2598 3744 
L 2598 4864 
L 3552 4864 
L 3552 0 
L 2822 0 
L 2637 454 
L 2598 454 
Q 2458 237 2221 86 
Q 1984 -64 1606 -64 
z
M 1939 698 
Q 2336 698 2496 931 
Q 2656 1165 2662 1632 
L 2662 1734 
Q 2662 2246 2505 2515 
Q 2349 2784 1926 2784 
Q 1613 2784 1433 2512 
Q 1254 2240 1254 1728 
Q 1254 1216 1433 957 
Q 1613 698 1939 698 
z
" transform="scale(0.015625)"/>
     <path id="NotoSans-Bold-65" d="M 1939 3558 
Q 2662 3558 3084 3145 
Q 3507 2733 3507 1971 
L 3507 1510 
L 1254 1510 
Q 1267 1107 1494 876 
Q 1722 646 2125 646 
Q 2464 646 2739 713 
Q 3014 781 3309 922 
L 3309 186 
Q 3053 58 2768 -3 
Q 2483 -64 2080 -64 
Q 1555 -64 1152 131 
Q 749 326 518 723 
Q 288 1120 288 1722 
Q 288 2336 496 2742 
Q 704 3149 1075 3353 
Q 1446 3558 1939 3558 
z
M 1946 2880 
Q 1670 2880 1488 2701 
Q 1306 2522 1274 2144 
L 2611 2144 
Q 2605 2464 2445 2672 
Q 2285 2880 1946 2880 
z
" transform="scale(0.015625)"/>
     <path id="NotoSans-Bold-73" d="M 2938 1037 
Q 2938 506 2563 221 
Q 2189 -64 1446 -64 
Q 1082 -64 819 -16 
Q 557 32 294 141 
L 294 928 
Q 576 800 902 717 
Q 1229 634 1478 634 
Q 1760 634 1878 717 
Q 1997 800 1997 934 
Q 1997 1024 1949 1094 
Q 1901 1165 1741 1254 
Q 1581 1344 1242 1485 
Q 915 1626 704 1763 
Q 493 1901 390 2096 
Q 288 2291 288 2586 
Q 288 3072 665 3315 
Q 1043 3558 1670 3558 
Q 1997 3558 2291 3494 
Q 2586 3430 2899 3283 
L 2611 2598 
Q 2355 2707 2124 2780 
Q 1894 2854 1658 2854 
Q 1235 2854 1235 2624 
Q 1235 2541 1289 2473 
Q 1344 2406 1501 2329 
Q 1658 2253 1965 2125 
Q 2266 2003 2483 1872 
Q 2701 1741 2819 1545 
Q 2938 1350 2938 1037 
z
" transform="scale(0.015625)"/>
     <path id="NotoSans-Bold-20" transform="scale(0.015625)"/>
     <path id="NotoSans-Bold-4d" d="M 2509 0 
L 1408 3584 
L 1382 3584 
Q 1389 3456 1401 3200 
Q 1414 2944 1427 2653 
Q 1440 2362 1440 2125 
L 1440 0 
L 576 0 
L 576 4570 
L 1894 4570 
L 2976 1075 
L 2995 1075 
L 4141 4570 
L 5459 4570 
L 5459 0 
L 4557 0 
L 4557 2163 
Q 4557 2381 4566 2662 
Q 4576 2944 4585 3197 
Q 4595 3450 4602 3578 
L 4576 3578 
L 3398 0 
L 2509 0 
z
" transform="scale(0.015625)"/>
     <path id="NotoSans-Bold-6e" d="M 2483 3558 
Q 3046 3558 3385 3254 
Q 3725 2950 3725 2278 
L 3725 0 
L 2771 0 
L 2771 2042 
Q 2771 2419 2636 2608 
Q 2502 2797 2208 2797 
Q 1773 2797 1613 2499 
Q 1453 2202 1453 1645 
L 1453 0 
L 499 0 
L 499 3494 
L 1229 3494 
L 1357 3046 
L 1408 3046 
Q 1574 3315 1865 3436 
Q 2157 3558 2483 3558 
z
" transform="scale(0.015625)"/>
     <path id="NotoSans-Bold-72" d="M 2451 3558 
Q 2522 3558 2618 3552 
Q 2714 3546 2771 3533 
L 2701 2637 
Q 2656 2650 2569 2659 
Q 2483 2669 2419 2669 
Q 2176 2669 1952 2582 
Q 1728 2496 1590 2304 
Q 1453 2112 1453 1779 
L 1453 0 
L 499 0 
L 499 3494 
L 1222 3494 
L 1363 2906 
L 1408 2906 
Q 1562 3174 1830 3366 
Q 2099 3558 2451 3558 
z
" transform="scale(0.015625)"/>
     <path id="NotoSans-Bold-61" d="M 1933 3565 
Q 2637 3565 3011 3261 
Q 3386 2957 3386 2330 
L 3386 0 
L 2720 0 
L 2534 474 
L 2509 474 
Q 2285 192 2035 64 
Q 1786 -64 1350 -64 
Q 883 -64 576 208 
Q 269 480 269 1043 
Q 269 1600 659 1865 
Q 1050 2131 1830 2157 
L 2438 2176 
L 2438 2330 
Q 2438 2605 2294 2733 
Q 2150 2861 1894 2861 
Q 1638 2861 1395 2787 
Q 1152 2714 909 2605 
L 595 3251 
Q 877 3398 1219 3481 
Q 1562 3565 1933 3565 
z
M 2067 1606 
Q 1606 1594 1427 1440 
Q 1248 1286 1248 1037 
Q 1248 819 1376 726 
Q 1504 634 1709 634 
Q 2016 634 2227 816 
Q 2438 998 2438 1331 
L 2438 1619 
L 2067 1606 
z
" transform="scale(0.015625)"/>
     <path id="NotoSans-Bold-2f" d="M 2611 4570 
L 909 0 
L 45 0 
L 1747 4570 
L 2611 4570 
z
" transform="scale(0.015625)"/>
     <path id="NotoSans-Bold-4a" d="M 96 -1344 
Q -90 -1344 -230 -1321 
Q -371 -1299 -474 -1274 
L -474 -467 
Q -371 -493 -259 -512 
Q -147 -531 -19 -531 
Q 147 -531 284 -467 
Q 422 -403 499 -224 
Q 576 -45 576 288 
L 576 4570 
L 1542 4570 
L 1542 294 
Q 1542 -294 1360 -656 
Q 1178 -1018 851 -1181 
Q 525 -1344 96 -1344 
z
" transform="scale(0.015625)"/>
     <path id="NotoSans-Bold-67" d="M 1632 3558 
Q 2278 3558 2643 3046 
L 2669 3046 
L 2746 3494 
L 3552 3494 
L 3552 -6 
Q 3552 -755 3110 -1145 
Q 2669 -1536 1805 -1536 
Q 1434 -1536 1117 -1491 
Q 800 -1446 499 -1331 
L 499 -570 
Q 1146 -838 1862 -838 
Q 2598 -838 2598 -45 
L 2598 26 
Q 2598 134 2608 249 
Q 2618 365 2624 454 
L 2598 454 
Q 2419 179 2169 57 
Q 1920 -64 1606 -64 
Q 986 -64 637 413 
Q 288 890 288 1741 
Q 288 2598 646 3078 
Q 1005 3558 1632 3558 
z
M 1933 2784 
Q 1261 2784 1261 1728 
Q 1261 685 1946 685 
Q 2310 685 2486 893 
Q 2662 1101 2662 1619 
L 2662 1734 
Q 2662 2298 2489 2541 
Q 2317 2784 1933 2784 
z
" transform="scale(0.015625)"/>
     <path id="NotoSans-Bold-49" d="M 2285 0 
L 205 0 
L 205 550 
L 762 806 
L 762 3763 
L 205 4019 
L 205 4570 
L 2285 4570 
L 2285 4019 
L 1728 3763 
L 1728 806 
L 2285 550 
L 2285 0 
z
" transform="scale(0.015625)"/>
     <path id="NotoSans-Bold-66" d="M 2432 2778 
L 1606 2778 
L 1606 0 
L 653 0 
L 653 2778 
L 128 2778 
L 128 3238 
L 653 3494 
L 653 3750 
Q 653 4198 803 4444 
Q 954 4691 1232 4793 
Q 1510 4896 1888 4896 
Q 2170 4896 2397 4851 
Q 2624 4806 2765 4749 
L 2522 4051 
Q 2413 4083 2285 4112 
Q 2157 4141 1990 4141 
Q 1792 4141 1699 4019 
Q 1606 3898 1606 3712 
L 1606 3494 
L 2432 3494 
L 2432 2778 
z
" transform="scale(0.015625)"/>
     <path id="NotoSans-Bold-6d" d="M 4602 3558 
Q 5197 3558 5501 3254 
Q 5805 2950 5805 2278 
L 5805 0 
L 4851 0 
L 4851 2042 
Q 4851 2797 4326 2797 
Q 3949 2797 3789 2528 
Q 3629 2259 3629 1754 
L 3629 0 
L 2675 0 
L 2675 2042 
Q 2675 2797 2150 2797 
Q 1754 2797 1603 2499 
Q 1453 2202 1453 1645 
L 1453 0 
L 499 0 
L 499 3494 
L 1229 3494 
L 1357 3046 
L 1408 3046 
Q 1568 3315 1846 3436 
Q 2125 3558 2426 3558 
Q 2810 3558 3078 3433 
Q 3347 3309 3488 3046 
L 3571 3046 
Q 3731 3315 4016 3436 
Q 4301 3558 4602 3558 
z
" transform="scale(0.015625)"/>
     <path id="NotoSans-Bold-e1" d="M 1933 3565 
Q 2637 3565 3011 3261 
Q 3386 2957 3386 2330 
L 3386 0 
L 2720 0 
L 2534 474 
L 2509 474 
Q 2285 192 2035 64 
Q 1786 -64 1350 -64 
Q 883 -64 576 208 
Q 269 480 269 1043 
Q 269 1600 659 1865 
Q 1050 2131 1830 2157 
L 2438 2176 
L 2438 2330 
Q 2438 2605 2294 2733 
Q 2150 2861 1894 2861 
Q 1638 2861 1395 2787 
Q 1152 2714 909 2605 
L 595 3251 
Q 877 3398 1219 3481 
Q 1562 3565 1933 3565 
z
M 2067 1606 
Q 1606 1594 1427 1440 
Q 1248 1286 1248 1037 
Q 1248 819 1376 726 
Q 1504 634 1709 634 
Q 2016 634 2227 816 
Q 2438 998 2438 1331 
L 2438 1619 
L 2067 1606 
z
M 3162 4838 
Q 3072 4749 2925 4621 
Q 2778 4493 2608 4352 
Q 2438 4211 2275 4086 
Q 2112 3962 1990 3878 
L 1357 3878 
L 1357 3962 
Q 1459 4083 1596 4246 
Q 1734 4410 1868 4586 
Q 2003 4762 2093 4902 
L 3162 4902 
L 3162 4838 
z
" transform="scale(0.015625)"/>
    </defs>
    <use xlink:href="#NotoSans-Bold-53"/>
    <use xlink:href="#NotoSans-Bold-6f" transform="translate(55.099991 0)"/>
    <use xlink:href="#NotoSans-Bold-6c" transform="translate(116.999985 0)"/>
    <use xlink:href="#NotoSans-Bold-69" transform="translate(147.499969 0)"/>
    <use xlink:href="#NotoSans-Bold-63" transform="translate(177.999954 0)"/>
    <use xlink:href="#NotoSans-Bold-69" transform="translate(229.399948 0)"/>
    <use xlink:href="#NotoSans-Bold-74" transform="translate(259.899933 0)"/>
    <use xlink:href="#NotoSans-Bold-75" transform="translate(303.299927 0)"/>
    <use xlink:href="#NotoSans-Bold-64" transform="translate(368.999924 0)"/>
    <use xlink:href="#NotoSans-Bold-65" transform="translate(432.299911 0)"/>
    <use xlink:href="#NotoSans-Bold-73" transform="translate(491.399902 0)"/>
    <use xlink:href="#NotoSans-Bold-20" transform="translate(541.099899 0)"/>
    <use xlink:href="#NotoSans-Bold-4d" transform="translate(567.099884 0)"/>
    <use xlink:href="#NotoSans-Bold-69" transform="translate(661.399872 0)"/>
    <use xlink:href="#NotoSans-Bold-6e" transform="translate(691.899857 0)"/>
    <use xlink:href="#NotoSans-Bold-69" transform="translate(757.599854 0)"/>
    <use xlink:href="#NotoSans-Bold-73" transform="translate(788.099838 0)"/>
    <use xlink:href="#NotoSans-Bold-74" transform="translate(837.799835 0)"/>
    <use xlink:href="#NotoSans-Bold-65" transform="translate(881.199829 0)"/>
    <use xlink:href="#NotoSans-Bold-72" transform="translate(940.29982 0)"/>
    <use xlink:href="#NotoSans-Bold-69" transform="translate(985.699814 0)"/>
    <use xlink:href="#NotoSans-Bold-61" transform="translate(1016.199799 0)"/>
    <use xlink:href="#NotoSans-Bold-6c" transform="translate(1076.599792 0)"/>
    <use xlink:href="#NotoSans-Bold-65" transform="translate(1107.099777 0)"/>
    <use xlink:href="#NotoSans-Bold-73" transform="translate(1166.199768 0)"/>
    <use xlink:href="#NotoSans-Bold-2f" transform="translate(1215.899765 0)"/>
    <use xlink:href="#NotoSans-Bold-4a" transform="translate(1257.199753 0)"/>
    <use xlink:href="#NotoSans-Bold-75" transform="translate(1290.299744 0)"/>
    <use xlink:href="#NotoSans-Bold-64" transform="translate(1355.999741 0)"/>
    <use xlink:href="#NotoSans-Bold-69" transform="translate(1419.299728 0)"/>
    <use xlink:href="#NotoSans-Bold-63" transform="translate(1449.799713 0)"/>
    <use xlink:href="#NotoSans-Bold-69" transform="translate(1501.199707 0)"/>
    <use xlink:href="#NotoSans-Bold-61" transform="translate(1531.699692 0)"/>
    <use xlink:href="#NotoSans-Bold-6c" transform="translate(1592.099686 0)"/>
    <use xlink:href="#NotoSans-Bold-65" transform="translate(1622.59967 0)"/>
    <use xlink:href="#NotoSans-Bold-73" transform="translate(1681.699661 0)"/>
    <use xlink:href="#NotoSans-Bold-20" transform="translate(1731.399658 0)"/>
    <use xlink:href="#NotoSans-Bold-64" transform="translate(1757.399643 0)"/>
    <use xlink:href="#NotoSans-Bold-65" transform="translate(1820.699631 0)"/>
    <use xlink:href="#NotoSans-Bold-20" transform="translate(1879.799622 0)"/>
    <use xlink:href="#NotoSans-Bold-53" transform="translate(1905.799606 0)"/>
    <use xlink:href="#NotoSans-Bold-65" transform="translate(1960.899597 0)"/>
    <use xlink:href="#NotoSans-Bold-67" transform="translate(2019.999588 0)"/>
    <use xlink:href="#NotoSans-Bold-75" transform="translate(2083.299576 0)"/>
    <use xlink:href="#NotoSans-Bold-72" transform="translate(2148.999573 0)"/>
    <use xlink:href="#NotoSans-Bold-69" transform="translate(2194.399567 0)"/>
    <use xlink:href="#NotoSans-Bold-64" transform="translate(2224.899551 0)"/>
    <use xlink:href="#NotoSans-Bold-61" transform="translate(2288.199539 0)"/>
    <use xlink:href="#NotoSans-Bold-64" transform="translate(2348.599533 0)"/>
    <use xlink:href="#NotoSans-Bold-20" transform="translate(2411.899521 0)"/>
    <use xlink:href="#NotoSans-Bold-49" transform="translate(2437.899506 0)"/>
    <use xlink:href="#NotoSans-Bold-6e" transform="translate(2476.7995 0)"/>
    <use xlink:href="#NotoSans-Bold-66" transform="translate(2542.499496 0)"/>
    <use xlink:href="#NotoSans-Bold-6f" transform="translate(2581.199493 0)"/>
    <use xlink:href="#NotoSans-Bold-72" transform="translate(2643.099487 0)"/>
    <use xlink:href="#NotoSans-Bold-6d" transform="translate(2688.499481 0)"/>
    <use xlink:href="#NotoSans-Bold-e1" transform="translate(2786.699463 0)"/>
    <use xlink:href="#NotoSans-Bold-74" transform="translate(2847.099457 0)"/>
    <use xlink:href="#NotoSans-Bold-69" transform="translate(2890.499451 0)"/>
    <use xlink:href="#NotoSans-Bold-63" transform="translate(2920.999435 0)"/>
    <use xlink:href="#NotoSans-Bold-61" transform="translate(2972.399429 0)"/>
   </g>
  </g>
  <g id="text_16">
   <!-- Reportes Recibidos vs Canalizados -->
   <g style="fill: #bc955c" transform="translate(122.275902 51.410625) scale(0.14 -0.14)">
    <defs>
     <path id="NotoSans-Bold-52" d="M 1907 4570 
Q 2842 4570 3286 4230 
Q 3731 3891 3731 3200 
Q 3731 2886 3612 2652 
Q 3494 2419 3299 2256 
Q 3104 2093 2880 1990 
L 4224 0 
L 3149 0 
L 2061 1754 
L 1542 1754 
L 1542 0 
L 576 0 
L 576 4570 
L 1907 4570 
z
M 1837 3776 
L 1542 3776 
L 1542 2541 
L 1856 2541 
Q 2336 2541 2544 2701 
Q 2752 2861 2752 3174 
Q 2752 3501 2531 3638 
Q 2310 3776 1837 3776 
z
" transform="scale(0.015625)"/>
     <path id="NotoSans-Bold-70" d="M 2445 3558 
Q 3034 3558 3398 3100 
Q 3763 2643 3763 1754 
Q 3763 864 3385 400 
Q 3008 -64 2419 -64 
Q 2042 -64 1818 73 
Q 1594 211 1453 384 
L 1402 384 
Q 1453 115 1453 -128 
L 1453 -1536 
L 499 -1536 
L 499 3494 
L 1274 3494 
L 1408 3040 
L 1453 3040 
Q 1594 3251 1830 3404 
Q 2067 3558 2445 3558 
z
M 2138 2797 
Q 1766 2797 1616 2566 
Q 1466 2336 1453 1862 
L 1453 1760 
Q 1453 1254 1603 982 
Q 1754 710 2150 710 
Q 2477 710 2633 982 
Q 2790 1254 2790 1766 
Q 2790 2797 2138 2797 
z
" transform="scale(0.015625)"/>
     <path id="NotoSans-Bold-62" d="M 1453 3731 
Q 1453 3533 1440 3341 
Q 1427 3149 1414 3040 
L 1453 3040 
Q 1594 3258 1830 3408 
Q 2067 3558 2445 3558 
Q 3034 3558 3398 3100 
Q 3763 2643 3763 1754 
Q 3763 858 3392 397 
Q 3021 -64 2419 -64 
Q 2035 -64 1814 73 
Q 1594 211 1453 384 
L 1389 384 
L 1229 0 
L 499 0 
L 499 4864 
L 1453 4864 
L 1453 3731 
z
M 2138 2797 
Q 1766 2797 1616 2566 
Q 1466 2336 1453 1862 
L 1453 1760 
Q 1453 1254 1603 982 
Q 1754 710 2150 710 
Q 2445 710 2617 982 
Q 2790 1254 2790 1766 
Q 2790 2278 2614 2537 
Q 2438 2797 2138 2797 
z
" transform="scale(0.015625)"/>
     <path id="NotoSans-Bold-76" d="M 1331 0 
L 0 3494 
L 998 3494 
L 1670 1504 
Q 1728 1325 1763 1133 
Q 1798 941 1805 787 
L 1830 787 
Q 1850 1133 1971 1504 
L 2643 3494 
L 3642 3494 
L 2310 0 
L 1331 0 
z
" transform="scale(0.015625)"/>
     <path id="NotoSans-Bold-43" d="M 2515 3827 
Q 1958 3827 1664 3411 
Q 1370 2995 1370 2272 
Q 1370 1542 1642 1142 
Q 1914 742 2515 742 
Q 2797 742 3075 806 
Q 3354 870 3680 986 
L 3680 173 
Q 3379 51 3084 -6 
Q 2790 -64 2426 -64 
Q 1722 -64 1264 227 
Q 806 518 588 1046 
Q 371 1574 371 2278 
Q 371 2970 620 3501 
Q 870 4032 1347 4333 
Q 1824 4634 2515 4634 
Q 2854 4634 3196 4547 
Q 3539 4461 3853 4314 
L 3539 3526 
Q 3283 3648 3024 3737 
Q 2765 3827 2515 3827 
z
" transform="scale(0.015625)"/>
     <path id="NotoSans-Bold-7a" d="M 2931 0 
L 173 0 
L 173 563 
L 1792 2765 
L 269 2765 
L 269 3494 
L 2874 3494 
L 2874 2874 
L 1299 730 
L 2931 730 
L 2931 0 
z
" transform="scale(0.015625)"/>
    </defs>
    <use xlink:href="#NotoSans-Bold-52"/>
    <use xlink:href="#NotoSans-Bold-65" transform="translate(65.999985 0)"/>
    <use xlink:href="#NotoSans-Bold-70" transform="translate(125.099976 0)"/>
    <use xlink:href="#NotoSans-Bold-6f" transform="translate(188.399963 0)"/>
    <use xlink:href="#NotoSans-Bold-72" transform="translate(250.299957 0)"/>
    <use xlink:href="#NotoSans-Bold-74" transform="translate(295.699951 0)"/>
    <use xlink:href="#NotoSans-Bold-65" transform="translate(339.099945 0)"/>
    <use xlink:href="#NotoSans-Bold-73" transform="translate(398.199936 0)"/>
    <use xlink:href="#NotoSans-Bold-20" transform="translate(447.899933 0)"/>
    <use xlink:href="#NotoSans-Bold-52" transform="translate(473.899918 0)"/>
    <use xlink:href="#NotoSans-Bold-65" transform="translate(539.899902 0)"/>
    <use xlink:href="#NotoSans-Bold-63" transform="translate(598.999893 0)"/>
    <use xlink:href="#NotoSans-Bold-69" transform="translate(650.399887 0)"/>
    <use xlink:href="#NotoSans-Bold-62" transform="translate(680.899872 0)"/>
    <use xlink:href="#NotoSans-Bold-69" transform="translate(744.19986 0)"/>
    <use xlink:href="#NotoSans-Bold-64" transform="translate(774.699844 0)"/>
    <use xlink:href="#NotoSans-Bold-6f" transform="translate(837.999832 0)"/>
    <use xlink:href="#NotoSans-Bold-73" transform="translate(899.899826 0)"/>
    <use xlink:href="#NotoSans-Bold-20" transform="translate(949.599823 0)"/>
    <use xlink:href="#NotoSans-Bold-76" transform="translate(975.599808 0)"/>
    <use xlink:href="#NotoSans-Bold-73" transform="translate(1032.499802 0)"/>
    <use xlink:href="#NotoSans-Bold-20" transform="translate(1082.199799 0)"/>
    <use xlink:href="#NotoSans-Bold-43" transform="translate(1108.199783 0)"/>
    <use xlink:href="#NotoSans-Bold-61" transform="translate(1171.89978 0)"/>
    <use xlink:href="#NotoSans-Bold-6e" transform="translate(1232.299774 0)"/>
    <use xlink:href="#NotoSans-Bold-61" transform="translate(1297.999771 0)"/>
    <use xlink:href="#NotoSans-Bold-6c" transform="translate(1358.399765 0)"/>
    <use xlink:href="#NotoSans-Bold-69" transform="translate(1388.89975 0)"/>
    <use xlink:href="#NotoSans-Bold-7a" transform="translate(1419.399734 0)"/>
    <use xlink:href="#NotoSans-Bold-61" transform="translate(1468.199722 0)"/>
    <use xlink:href="#NotoSans-Bold-64" transform="translate(1528.599716 0)"/>
    <use xlink:href="#NotoSans-Bold-6f" transform="translate(1591.899704 0)"/>
    <use xlink:href="#NotoSans-Bold-73" transform="translate(1653.799698 0)"/>
   </g>
  </g>
  <g id="text_17">
   <!-- Fuente: Informe Estatal de Evaluación 2024 -->
   <g style="fill: #98989a" transform="translate(122.275902 564) scale(0.14 -0.14)">
    <defs>
     <path id="NotoSans-Regular-3a" d="M 461 3085 
Q 461 3328 576 3424 
Q 691 3520 851 3520 
Q 1018 3520 1136 3424 
Q 1254 3328 1254 3085 
Q 1254 2854 1136 2752 
Q 1018 2650 851 2650 
Q 691 2650 576 2752 
Q 461 2854 461 3085 
z
M 461 346 
Q 461 582 576 678 
Q 691 774 851 774 
Q 1018 774 1136 678 
Q 1254 582 1254 346 
Q 1254 115 1136 12 
Q 1018 -90 851 -90 
Q 691 -90 576 12 
Q 461 115 461 346 
z
" transform="scale(0.015625)"/>
     <path id="NotoSans-Regular-66" d="M 2125 2995 
L 1261 2995 
L 1261 0 
L 698 0 
L 698 2995 
L 96 2995 
L 96 3258 
L 698 3450 
L 698 3648 
Q 698 4314 992 4605 
Q 1286 4896 1811 4896 
Q 2016 4896 2185 4861 
Q 2355 4826 2477 4781 
L 2330 4339 
Q 2227 4371 2092 4403 
Q 1958 4435 1818 4435 
Q 1536 4435 1398 4246 
Q 1261 4058 1261 3654 
L 1261 3430 
L 2125 3430 
L 2125 2995 
z
" transform="scale(0.015625)"/>
     <path id="NotoSans-Regular-76" d="M 1299 0 
L 0 3430 
L 602 3430 
L 1331 1408 
Q 1382 1267 1440 1094 
Q 1498 922 1542 765 
Q 1587 608 1606 499 
L 1632 499 
Q 1658 608 1706 768 
Q 1754 928 1814 1101 
Q 1875 1274 1920 1408 
L 2650 3430 
L 3251 3430 
L 1946 0 
L 1299 0 
z
" transform="scale(0.015625)"/>
    </defs>
    <use xlink:href="#NotoSans-Regular-46"/>
    <use xlink:href="#NotoSans-Regular-75" transform="translate(51.899994 0)"/>
    <use xlink:href="#NotoSans-Regular-65" transform="translate(113.699982 0)"/>
    <use xlink:href="#NotoSans-Regular-6e" transform="translate(170.099976 0)"/>
    <use xlink:href="#NotoSans-Regular-74" transform="translate(231.899963 0)"/>
    <use xlink:href="#NotoSans-Regular-65" transform="translate(267.999954 0)"/>
    <use xlink:href="#NotoSans-Regular-3a" transform="translate(324.399948 0)"/>
    <use xlink:href="#NotoSans-Regular-20" transform="translate(351.199936 0)"/>
    <use xlink:href="#NotoSans-Regular-49" transform="translate(377.199921 0)"/>
    <use xlink:href="#NotoSans-Regular-6e" transform="translate(411.099915 0)"/>
    <use xlink:href="#NotoSans-Regular-66" transform="translate(472.899902 0)"/>
    <use xlink:href="#NotoSans-Regular-6f" transform="translate(507.299896 0)"/>
    <use xlink:href="#NotoSans-Regular-72" transform="translate(567.799881 0)"/>
    <use xlink:href="#NotoSans-Regular-6d" transform="translate(609.099869 0)"/>
    <use xlink:href="#NotoSans-Regular-65" transform="translate(702.599854 0)"/>
    <use xlink:href="#NotoSans-Regular-20" transform="translate(758.999847 0)"/>
    <use xlink:href="#NotoSans-Regular-45" transform="translate(784.999832 0)"/>
    <use xlink:href="#NotoSans-Regular-73" transform="translate(840.599823 0)"/>
    <use xlink:href="#NotoSans-Regular-74" transform="translate(888.499817 0)"/>
    <use xlink:href="#NotoSans-Regular-61" transform="translate(924.599808 0)"/>
    <use xlink:href="#NotoSans-Regular-74" transform="translate(980.699799 0)"/>
    <use xlink:href="#NotoSans-Regular-61" transform="translate(1016.799789 0)"/>
    <use xlink:href="#NotoSans-Regular-6c" transform="translate(1072.89978 0)"/>
    <use xlink:href="#NotoSans-Regular-20" transform="translate(1098.699768 0)"/>
    <use xlink:href="#NotoSans-Regular-64" transform="translate(1124.699753 0)"/>
    <use xlink:href="#NotoSans-Regular-65" transform="translate(1186.199738 0)"/>
    <use xlink:href="#NotoSans-Regular-20" transform="translate(1242.599731 0)"/>
    <use xlink:href="#NotoSans-Regular-45" transform="translate(1268.599716 0)"/>
    <use xlink:href="#NotoSans-Regular-76" transform="translate(1324.199707 0)"/>
    <use xlink:href="#NotoSans-Regular-61" transform="translate(1374.999695 0)"/>
    <use xlink:href="#NotoSans-Regular-6c" transform="translate(1431.099686 0)"/>
    <use xlink:href="#NotoSans-Regular-75" transform="translate(1456.899673 0)"/>
    <use xlink:href="#NotoSans-Regular-61" transform="translate(1518.699661 0)"/>
    <use xlink:href="#NotoSans-Regular-63" transform="translate(1574.799652 0)"/>
    <use xlink:href="#NotoSans-Regular-69" transform="translate(1622.799637 0)"/>
    <use xlink:href="#NotoSans-Regular-f3" transform="translate(1648.599625 0)"/>
    <use xlink:href="#NotoSans-Regular-6e" transform="translate(1709.099609 0)"/>
    <use xlink:href="#NotoSans-Regular-20" transform="translate(1770.899597 0)"/>
    <use xlink:href="#NotoSans-Regular-32" transform="translate(1796.899582 0)"/>
    <use xlink:href="#NotoSans-Regular-30" transform="translate(1854.099579 0)"/>
    <use xlink:href="#NotoSans-Regular-32" transform="translate(1911.299576 0)"/>
    <use xlink:href="#NotoSans-Regular-34" transform="translate(1968.499573 0)"/>
   </g>
  </g>
  <g id="patch_3">
   <path d="M 273.037639 543.36 
L 704.598264 543.36 
L 704.598264 525.52 
L 273.037639 525.52 
z
" style="fill: #ffffff"/>
  </g>
  <g id="patch_4">
   <path d="M 274.037639 542.36 
L 289.877639 542.36 
L 289.877639 526.52 
L 274.037639 526.52 
z
" clip-path="url(#p00cb996f57)" style="fill: #f2f2f2"/>
  </g>
  <g id="patch_5">
   <path d="M 274.037639 542.36 
L 289.877639 542.36 
L 289.877639 526.52 
L 274.037639 526.52 
z
" clip-path="url(#p00cb996f57)" style="fill: #691c32"/>
  </g>
  <g id="text_18">
   <!-- Solicitudes ministeriales atendidas -->
   <g transform="translate(293.717639 537.56) scale(0.12 -0.12)">
    <use xlink:href="#NotoSans-Regular-53"/>
    <use xlink:href="#NotoSans-Regular-6f" transform="translate(54.899994 0)"/>
    <use xlink:href="#NotoSans-Regular-6c" transform="translate(115.399979 0)"/>
    <use xlink:href="#NotoSans-Regular-69" transform="translate(141.199966 0)"/>
    <use xlink:href="#NotoSans-Regular-63" transform="translate(166.999954 0)"/>
    <use xlink:href="#NotoSans-Regular-69" transform="translate(214.999939 0)"/>
    <use xlink:href="#NotoSans-Regular-74" transform="translate(240.799927 0)"/>
    <use xlink:href="#NotoSans-Regular-75" transform="translate(276.899918 0)"/>
    <use xlink:href="#NotoSans-Regular-64" transform="translate(338.699905 0)"/>
    <use xlink:href="#NotoSans-Regular-65" transform="translate(400.19989 0)"/>
    <use xlink:href="#NotoSans-Regular-73" transform="translate(456.599884 0)"/>
    <use xlink:href="#NotoSans-Regular-20" transform="translate(504.499878 0)"/>
    <use xlink:href="#NotoSans-Regular-6d" transform="translate(530.499863 0)"/>
    <use xlink:href="#NotoSans-Regular-69" transform="translate(623.999847 0)"/>
    <use xlink:href="#NotoSans-Regular-6e" transform="translate(649.799835 0)"/>
    <use xlink:href="#NotoSans-Regular-69" transform="translate(711.599823 0)"/>
    <use xlink:href="#NotoSans-Regular-73" transform="translate(737.399811 0)"/>
    <use xlink:href="#NotoSans-Regular-74" transform="translate(785.299805 0)"/>
    <use xlink:href="#NotoSans-Regular-65" transform="translate(821.399796 0)"/>
    <use xlink:href="#NotoSans-Regular-72" transform="translate(877.799789 0)"/>
    <use xlink:href="#NotoSans-Regular-69" transform="translate(919.099777 0)"/>
    <use xlink:href="#NotoSans-Regular-61" transform="translate(944.899765 0)"/>
    <use xlink:href="#NotoSans-Regular-6c" transform="translate(1000.999756 0)"/>
    <use xlink:href="#NotoSans-Regular-65" transform="translate(1026.799744 0)"/>
    <use xlink:href="#NotoSans-Regular-73" transform="translate(1083.199738 0)"/>
    <use xlink:href="#NotoSans-Regular-20" transform="translate(1131.099731 0)"/>
    <use xlink:href="#NotoSans-Regular-61" transform="translate(1157.099716 0)"/>
    <use xlink:href="#NotoSans-Regular-74" transform="translate(1213.199707 0)"/>
    <use xlink:href="#NotoSans-Regular-65" transform="translate(1249.299698 0)"/>
    <use xlink:href="#NotoSans-Regular-6e" transform="translate(1305.699692 0)"/>
    <use xlink:href="#NotoSans-Regular-64" transform="translate(1367.49968 0)"/>
    <use xlink:href="#NotoSans-Regular-69" transform="translate(1428.999664 0)"/>
    <use xlink:href="#NotoSans-Regular-64" transform="translate(1454.799652 0)"/>
    <use xlink:href="#NotoSans-Regular-61" transform="translate(1516.299637 0)"/>
    <use xlink:href="#NotoSans-Regular-73" transform="translate(1572.399628 0)"/>
   </g>
  </g>
  <g id="patch_6">
   <path d="M 494.151389 542.36 
L 509.991389 542.36 
L 509.991389 526.52 
L 494.151389 526.52 
z
" clip-path="url(#p563e2d33a9)" style="fill: #f2f2f2"/>
  </g>
  <g id="patch_7">
   <path d="M 494.151389 542.36 
L 509.991389 542.36 
L 509.991389 526.52 
L 494.151389 526.52 
z
" clip-path="url(#p563e2d33a9)" style="fill: #bc955c"/>
  </g>
  <g id="text_19">
   <!-- Solicitudes ministeriales recibidas -->
   <g transform="translate(513.831389 537.56) scale(0.12 -0.12)">
    <use xlink:href="#NotoSans-Regular-53"/>
    <use xlink:href="#NotoSans-Regular-6f" transform="translate(54.899994 0)"/>
    <use xlink:href="#NotoSans-Regular-6c" transform="translate(115.399979 0)"/>
    <use xlink:href="#NotoSans-Regular-69" transform="translate(141.199966 0)"/>
    <use xlink:href="#NotoSans-Regular-63" transform="translate(166.999954 0)"/>
    <use xlink:href="#NotoSans-Regular-69" transform="translate(214.999939 0)"/>
    <use xlink:href="#NotoSans-Regular-74" transform="translate(240.799927 0)"/>
    <use xlink:href="#NotoSans-Regular-75" transform="translate(276.899918 0)"/>
    <use xlink:href="#NotoSans-Regular-64" transform="translate(338.699905 0)"/>
    <use xlink:href="#NotoSans-Regular-65" transform="translate(400.19989 0)"/>
    <use xlink:href="#NotoSans-Regular-73" transform="translate(456.599884 0)"/>
    <use xlink:href="#NotoSans-Regular-20" transform="translate(504.499878 0)"/>
    <use xlink:href="#NotoSans-Regular-6d" transform="translate(530.499863 0)"/>
    <use xlink:href="#NotoSans-Regular-69" transform="translate(623.999847 0)"/>
    <use xlink:href="#NotoSans-Regular-6e" transform="translate(649.799835 0)"/>
    <use xlink:href="#NotoSans-Regular-69" transform="translate(711.599823 0)"/>
    <use xlink:href="#NotoSans-Regular-73" transform="translate(737.399811 0)"/>
    <use xlink:href="#NotoSans-Regular-74" transform="translate(785.299805 0)"/>
    <use xlink:href="#NotoSans-Regular-65" transform="translate(821.399796 0)"/>
    <use xlink:href="#NotoSans-Regular-72" transform="translate(877.799789 0)"/>
    <use xlink:href="#NotoSans-Regular-69" transform="translate(919.099777 0)"/>
    <use xlink:href="#NotoSans-Regular-61" transform="translate(944.899765 0)"/>
    <use xlink:href="#NotoSans-Regular-6c" transform="translate(1000.999756 0)"/>
    <use xlink:href="#NotoSans-Regular-65" transform="translate(1026.799744 0)"/>
    <use xlink:href="#NotoSans-Regular-73" transform="translate(1083.199738 0)"/>
    <use xlink:href="#NotoSans-Regular-20" transform="translate(1131.099731 0)"/>
    <use xlink:href="#NotoSans-Regular-72" transform="translate(1157.099716 0)"/>
    <use xlink:href="#NotoSans-Regular-65" transform="translate(1198.399704 0)"/>
    <use xlink:href="#NotoSans-Regular-63" transform="translate(1254.799698 0)"/>
    <use xlink:href="#NotoSans-Regular-69" transform="translate(1302.799683 0)"/>
    <use xlink:href="#NotoSans-Regular-62" transform="translate(1328.59967 0)"/>
    <use xlink:href="#NotoSans-Regular-69" transform="translate(1390.099655 0)"/>
    <use xlink:href="#NotoSans-Regular-64" transform="translate(1415.899643 0)"/>
    <use xlink:href="#NotoSans-Regular-61" transform="translate(1477.399628 0)"/>
    <use xlink:href="#NotoSans-Regular-73" transform="translate(1533.499619 0)"/>
   </g>
  </g>
 </g>
 <defs>
  <clipPath id="pd0ce5af6cf">
   <rect x="122.275902" y="64.770625" width="733.084098" height="272.198351"/>
  </clipPath>
  <clipPath id="p00cb996f57">
   <path d="M 274.037639 542.36 
L 274.037639 526.52 
L 289.877639 526.52 
L 289.877639 542.36 
"/>
  </clipPath>
  <clipPath id="p563e2d33a9">
   <path d="M 494.151389 542.36 
L 494.151389 526.52 
L 509.991389 526.52 
L 509.991389 542.36 
"/>
  </clipPath>
 </defs>
</svg>
