<?xml version="1.0" encoding="utf-8" standalone="no"?>
<!DOCTYPE svg PUBLIC "-//W3C//DTD SVG 1.1//EN"
  "http://www.w3.org/Graphics/SVG/1.1/DTD/svg11.dtd">
<svg xmlns:xlink="http://www.w3.org/1999/xlink" width="864pt" height="576pt" viewBox="0 0 864 576" xmlns="http://www.w3.org/2000/svg" version="1.1">
 <metadata>
  <rdf:RDF xmlns:dc="http://purl.org/dc/elements/1.1/" xmlns:cc="http://creativecommons.org/ns#" xmlns:rdf="http://www.w3.org/1999/02/22-rdf-syntax-ns#">
   <cc:Work>
    <dc:type rdf:resource="http://purl.org/dc/dcmitype/StillImage"/>
    <dc:date>2025-08-20T09:12:38.571852</dc:date>
    <dc:format>image/svg+xml</dc:format>
    <dc:creator>
     <cc:Agent>
      <dc:title>Matplotlib v3.10.0, https://matplotlib.org/</dc:title>
     </cc:Agent>
    </dc:creator>
   </cc:Work>
  </rdf:RDF>
 </metadata>
 <defs>
  <style type="text/css">*{stroke-linejoin: round; stroke-linecap: butt}</style>
 </defs>
 <g id="figure_1">
  <g id="patch_1">
   <path d="M 0 576 
L 864 576 
L 864 0 
L 0 0 
z
" style="fill: #ffffff; stroke: #ffffff; stroke-linejoin: miter"/>
  </g>
  <g id="axes_1">
   <g id="patch_2">
    <path d="M 15.504375 507.36 
L 855.36 507.36 
L 855.36 40.64 
L 15.504375 40.64 
z
" style="fill: #fafafa"/>
   </g>
   <g id="matplotlib.axis_1">
    <g id="xtick_1">
     <g id="line2d_1">
      <path d="M 53.679631 507.36 
L 53.679631 40.64 
" clip-path="url(#p50450ee985)" style="fill: none; stroke: #f5f5f5; stroke-linecap: square"/>
     </g>
     <g id="text_1">
      <!-- 0 -->
      <g style="fill: #4d4d4d" transform="translate(46.815256 516.48) scale(0.12 -0.12)">
       <defs>
        <path id="NotoSans-Regular-30" d="M 3347 2291 
Q 3347 1734 3264 1299 
Q 3181 864 2998 560 
Q 2816 256 2525 96 
Q 2234 -64 1824 -64 
Q 1312 -64 976 217 
Q 640 499 477 1027 
Q 314 1555 314 2291 
Q 314 3034 464 3558 
Q 614 4083 947 4361 
Q 1280 4640 1824 4640 
Q 2336 4640 2675 4361 
Q 3014 4083 3180 3558 
Q 3347 3034 3347 2291 
z
M 877 2291 
Q 877 1664 969 1248 
Q 1062 832 1270 624 
Q 1478 416 1824 416 
Q 2170 416 2378 621 
Q 2586 826 2682 1245 
Q 2778 1664 2778 2291 
Q 2778 2918 2682 3331 
Q 2586 3744 2378 3952 
Q 2170 4160 1824 4160 
Q 1478 4160 1270 3952 
Q 1062 3744 969 3331 
Q 877 2918 877 2291 
z
" transform="scale(0.015625)"/>
       </defs>
       <use xlink:href="#NotoSans-Regular-30"/>
      </g>
     </g>
    </g>
    <g id="xtick_2">
     <g id="line2d_2">
      <path d="M 130.030142 507.36 
L 130.030142 40.64 
" clip-path="url(#p50450ee985)" style="fill: none; stroke: #f5f5f5; stroke-linecap: square"/>
     </g>
     <g id="text_2">
      <!-- 500 -->
      <g style="fill: #4d4d4d" transform="translate(109.437017 516.48) scale(0.12 -0.12)">
       <defs>
        <path id="NotoSans-Regular-35" d="M 1760 2803 
Q 2227 2803 2572 2643 
Q 2918 2483 3107 2185 
Q 3296 1888 3296 1459 
Q 3296 986 3091 643 
Q 2886 301 2505 118 
Q 2125 -64 1587 -64 
Q 1235 -64 924 0 
Q 614 64 403 186 
L 403 717 
Q 634 576 963 496 
Q 1293 416 1594 416 
Q 1933 416 2185 521 
Q 2438 627 2579 848 
Q 2720 1069 2720 1402 
Q 2720 1850 2445 2090 
Q 2170 2330 1574 2330 
Q 1395 2330 1164 2298 
Q 934 2266 794 2234 
L 512 2413 
L 685 4570 
L 2976 4570 
L 2976 4058 
L 1165 4058 
L 1056 2733 
Q 1165 2752 1350 2777 
Q 1536 2803 1760 2803 
z
" transform="scale(0.015625)"/>
       </defs>
       <use xlink:href="#NotoSans-Regular-35"/>
       <use xlink:href="#NotoSans-Regular-30" transform="translate(57.199997 0)"/>
       <use xlink:href="#NotoSans-Regular-30" transform="translate(114.399994 0)"/>
      </g>
     </g>
    </g>
    <g id="xtick_3">
     <g id="line2d_3">
      <path d="M 206.380653 507.36 
L 206.380653 40.64 
" clip-path="url(#p50450ee985)" style="fill: none; stroke: #f5f5f5; stroke-linecap: square"/>
     </g>
     <g id="text_3">
      <!-- 1,000 -->
      <g style="fill: #4d4d4d" transform="translate(175.707528 516.48) scale(0.12 -0.12)">
       <defs>
        <path id="NotoSans-Regular-31" d="M 2272 0 
L 1722 0 
L 1722 3194 
Q 1722 3379 1725 3507 
Q 1728 3635 1734 3747 
Q 1741 3859 1747 3981 
Q 1645 3878 1561 3808 
Q 1478 3738 1350 3629 
L 864 3232 
L 570 3610 
L 1805 4570 
L 2272 4570 
L 2272 0 
z
" transform="scale(0.015625)"/>
        <path id="NotoSans-Regular-2c" d="M 1229 672 
Q 1171 448 1081 185 
Q 992 -77 886 -336 
Q 781 -595 678 -826 
L 262 -826 
Q 326 -582 387 -304 
Q 448 -26 499 246 
Q 550 518 582 742 
L 1184 742 
L 1229 672 
z
" transform="scale(0.015625)"/>
       </defs>
       <use xlink:href="#NotoSans-Regular-31"/>
       <use xlink:href="#NotoSans-Regular-2c" transform="translate(57.199997 0)"/>
       <use xlink:href="#NotoSans-Regular-30" transform="translate(83.999985 0)"/>
       <use xlink:href="#NotoSans-Regular-30" transform="translate(141.199982 0)"/>
       <use xlink:href="#NotoSans-Regular-30" transform="translate(198.399979 0)"/>
      </g>
     </g>
    </g>
    <g id="xtick_4">
     <g id="line2d_4">
      <path d="M 282.731165 507.36 
L 282.731165 40.64 
" clip-path="url(#p50450ee985)" style="fill: none; stroke: #f5f5f5; stroke-linecap: square"/>
     </g>
     <g id="text_4">
      <!-- 1,500 -->
      <g style="fill: #4d4d4d" transform="translate(252.05804 516.48) scale(0.12 -0.12)">
       <use xlink:href="#NotoSans-Regular-31"/>
       <use xlink:href="#NotoSans-Regular-2c" transform="translate(57.199997 0)"/>
       <use xlink:href="#NotoSans-Regular-35" transform="translate(83.999985 0)"/>
       <use xlink:href="#NotoSans-Regular-30" transform="translate(141.199982 0)"/>
       <use xlink:href="#NotoSans-Regular-30" transform="translate(198.399979 0)"/>
      </g>
     </g>
    </g>
    <g id="xtick_5">
     <g id="line2d_5">
      <path d="M 359.081676 507.36 
L 359.081676 40.64 
" clip-path="url(#p50450ee985)" style="fill: none; stroke: #f5f5f5; stroke-linecap: square"/>
     </g>
     <g id="text_5">
      <!-- 2,000 -->
      <g style="fill: #4d4d4d" transform="translate(328.408551 516.48) scale(0.12 -0.12)">
       <defs>
        <path id="NotoSans-Regular-32" d="M 3328 0 
L 307 0 
L 307 467 
L 1504 1677 
Q 1850 2022 2086 2291 
Q 2323 2560 2444 2819 
Q 2566 3078 2566 3386 
Q 2566 3763 2342 3958 
Q 2118 4154 1760 4154 
Q 1427 4154 1174 4038 
Q 922 3923 659 3718 
L 358 4096 
Q 538 4250 752 4371 
Q 966 4493 1219 4563 
Q 1472 4634 1760 4634 
Q 2189 4634 2496 4486 
Q 2803 4339 2972 4067 
Q 3142 3795 3142 3418 
Q 3142 3059 2995 2745 
Q 2848 2432 2585 2128 
Q 2323 1824 1971 1478 
L 1018 538 
L 1018 512 
L 3328 512 
L 3328 0 
z
" transform="scale(0.015625)"/>
       </defs>
       <use xlink:href="#NotoSans-Regular-32"/>
       <use xlink:href="#NotoSans-Regular-2c" transform="translate(57.199997 0)"/>
       <use xlink:href="#NotoSans-Regular-30" transform="translate(83.999985 0)"/>
       <use xlink:href="#NotoSans-Regular-30" transform="translate(141.199982 0)"/>
       <use xlink:href="#NotoSans-Regular-30" transform="translate(198.399979 0)"/>
      </g>
     </g>
    </g>
    <g id="xtick_6">
     <g id="line2d_6">
      <path d="M 435.432188 507.36 
L 435.432188 40.64 
" clip-path="url(#p50450ee985)" style="fill: none; stroke: #f5f5f5; stroke-linecap: square"/>
     </g>
     <g id="text_6">
      <!-- 2,500 -->
      <g style="fill: #4d4d4d" transform="translate(404.759063 516.48) scale(0.12 -0.12)">
       <use xlink:href="#NotoSans-Regular-32"/>
       <use xlink:href="#NotoSans-Regular-2c" transform="translate(57.199997 0)"/>
       <use xlink:href="#NotoSans-Regular-35" transform="translate(83.999985 0)"/>
       <use xlink:href="#NotoSans-Regular-30" transform="translate(141.199982 0)"/>
       <use xlink:href="#NotoSans-Regular-30" transform="translate(198.399979 0)"/>
      </g>
     </g>
    </g>
    <g id="xtick_7">
     <g id="line2d_7">
      <path d="M 511.782699 507.36 
L 511.782699 40.64 
" clip-path="url(#p50450ee985)" style="fill: none; stroke: #f5f5f5; stroke-linecap: square"/>
     </g>
     <g id="text_7">
      <!-- 3,000 -->
      <g style="fill: #4d4d4d" transform="translate(481.109574 516.48) scale(0.12 -0.12)">
       <defs>
        <path id="NotoSans-Regular-33" d="M 3155 3501 
Q 3155 3194 3040 2970 
Q 2925 2746 2710 2605 
Q 2496 2464 2208 2406 
L 2208 2381 
Q 2758 2317 3027 2035 
Q 3296 1754 3296 1299 
Q 3296 902 3110 592 
Q 2925 282 2537 109 
Q 2150 -64 1542 -64 
Q 1184 -64 877 -9 
Q 570 45 288 186 
L 288 710 
Q 576 570 909 490 
Q 1242 410 1549 410 
Q 2163 410 2435 650 
Q 2707 890 2707 1312 
Q 2707 1600 2556 1776 
Q 2406 1952 2118 2035 
Q 1830 2118 1427 2118 
L 986 2118 
L 986 2598 
L 1434 2598 
Q 1811 2598 2064 2707 
Q 2317 2816 2448 3011 
Q 2579 3206 2579 3462 
Q 2579 3795 2355 3977 
Q 2131 4160 1747 4160 
Q 1504 4160 1305 4112 
Q 1107 4064 937 3977 
Q 768 3891 595 3776 
L 314 4160 
Q 557 4352 918 4493 
Q 1280 4634 1741 4634 
Q 2458 4634 2806 4314 
Q 3155 3994 3155 3501 
z
" transform="scale(0.015625)"/>
       </defs>
       <use xlink:href="#NotoSans-Regular-33"/>
       <use xlink:href="#NotoSans-Regular-2c" transform="translate(57.199997 0)"/>
       <use xlink:href="#NotoSans-Regular-30" transform="translate(83.999985 0)"/>
       <use xlink:href="#NotoSans-Regular-30" transform="translate(141.199982 0)"/>
       <use xlink:href="#NotoSans-Regular-30" transform="translate(198.399979 0)"/>
      </g>
     </g>
    </g>
    <g id="xtick_8">
     <g id="line2d_8">
      <path d="M 588.13321 507.36 
L 588.13321 40.64 
" clip-path="url(#p50450ee985)" style="fill: none; stroke: #f5f5f5; stroke-linecap: square"/>
     </g>
     <g id="text_8">
      <!-- 3,500 -->
      <g style="fill: #4d4d4d" transform="translate(557.460085 516.48) scale(0.12 -0.12)">
       <use xlink:href="#NotoSans-Regular-33"/>
       <use xlink:href="#NotoSans-Regular-2c" transform="translate(57.199997 0)"/>
       <use xlink:href="#NotoSans-Regular-35" transform="translate(83.999985 0)"/>
       <use xlink:href="#NotoSans-Regular-30" transform="translate(141.199982 0)"/>
       <use xlink:href="#NotoSans-Regular-30" transform="translate(198.399979 0)"/>
      </g>
     </g>
    </g>
    <g id="xtick_9">
     <g id="line2d_9">
      <path d="M 664.483722 507.36 
L 664.483722 40.64 
" clip-path="url(#p50450ee985)" style="fill: none; stroke: #f5f5f5; stroke-linecap: square"/>
     </g>
     <g id="text_9">
      <!-- 4,000 -->
      <g style="fill: #4d4d4d" transform="translate(633.810597 516.48) scale(0.12 -0.12)">
       <defs>
        <path id="NotoSans-Regular-34" d="M 3533 1037 
L 2867 1037 
L 2867 0 
L 2323 0 
L 2323 1037 
L 134 1037 
L 134 1517 
L 2285 4595 
L 2867 4595 
L 2867 1542 
L 3533 1542 
L 3533 1037 
z
M 2323 2982 
Q 2323 3149 2326 3286 
Q 2330 3424 2336 3545 
Q 2342 3667 2345 3779 
Q 2349 3891 2355 3994 
L 2330 3994 
Q 2278 3872 2201 3731 
Q 2125 3590 2054 3494 
L 685 1542 
L 2323 1542 
L 2323 2982 
z
" transform="scale(0.015625)"/>
       </defs>
       <use xlink:href="#NotoSans-Regular-34"/>
       <use xlink:href="#NotoSans-Regular-2c" transform="translate(57.199997 0)"/>
       <use xlink:href="#NotoSans-Regular-30" transform="translate(83.999985 0)"/>
       <use xlink:href="#NotoSans-Regular-30" transform="translate(141.199982 0)"/>
       <use xlink:href="#NotoSans-Regular-30" transform="translate(198.399979 0)"/>
      </g>
     </g>
    </g>
    <g id="xtick_10">
     <g id="line2d_10">
      <path d="M 740.834233 507.36 
L 740.834233 40.64 
" clip-path="url(#p50450ee985)" style="fill: none; stroke: #f5f5f5; stroke-linecap: square"/>
     </g>
     <g id="text_10">
      <!-- 4,500 -->
      <g style="fill: #4d4d4d" transform="translate(710.161108 516.48) scale(0.12 -0.12)">
       <use xlink:href="#NotoSans-Regular-34"/>
       <use xlink:href="#NotoSans-Regular-2c" transform="translate(57.199997 0)"/>
       <use xlink:href="#NotoSans-Regular-35" transform="translate(83.999985 0)"/>
       <use xlink:href="#NotoSans-Regular-30" transform="translate(141.199982 0)"/>
       <use xlink:href="#NotoSans-Regular-30" transform="translate(198.399979 0)"/>
      </g>
     </g>
    </g>
    <g id="xtick_11">
     <g id="line2d_11">
      <path d="M 817.184744 507.36 
L 817.184744 40.64 
" clip-path="url(#p50450ee985)" style="fill: none; stroke: #f5f5f5; stroke-linecap: square"/>
     </g>
     <g id="text_11">
      <!-- 5,000 -->
      <g style="fill: #4d4d4d" transform="translate(786.511619 516.48) scale(0.12 -0.12)">
       <use xlink:href="#NotoSans-Regular-35"/>
       <use xlink:href="#NotoSans-Regular-2c" transform="translate(57.199997 0)"/>
       <use xlink:href="#NotoSans-Regular-30" transform="translate(83.999985 0)"/>
       <use xlink:href="#NotoSans-Regular-30" transform="translate(141.199982 0)"/>
       <use xlink:href="#NotoSans-Regular-30" transform="translate(198.399979 0)"/>
      </g>
     </g>
    </g>
    <g id="xtick_12">
     <g id="line2d_12">
      <path d="M 15.504375 507.36 
L 15.504375 40.64 
" clip-path="url(#p50450ee985)" style="fill: none; stroke: #f5f5f5; stroke-width: 0.5; stroke-linecap: square"/>
     </g>
    </g>
    <g id="xtick_13">
     <g id="line2d_13">
      <path d="M 91.854886 507.36 
L 91.854886 40.64 
" clip-path="url(#p50450ee985)" style="fill: none; stroke: #f5f5f5; stroke-width: 0.5; stroke-linecap: square"/>
     </g>
    </g>
    <g id="xtick_14">
     <g id="line2d_14">
      <path d="M 168.205398 507.36 
L 168.205398 40.64 
" clip-path="url(#p50450ee985)" style="fill: none; stroke: #f5f5f5; stroke-width: 0.5; stroke-linecap: square"/>
     </g>
    </g>
    <g id="xtick_15">
     <g id="line2d_15">
      <path d="M 244.555909 507.36 
L 244.555909 40.64 
" clip-path="url(#p50450ee985)" style="fill: none; stroke: #f5f5f5; stroke-width: 0.5; stroke-linecap: square"/>
     </g>
    </g>
    <g id="xtick_16">
     <g id="line2d_16">
      <path d="M 320.90642 507.36 
L 320.90642 40.64 
" clip-path="url(#p50450ee985)" style="fill: none; stroke: #f5f5f5; stroke-width: 0.5; stroke-linecap: square"/>
     </g>
    </g>
    <g id="xtick_17">
     <g id="line2d_17">
      <path d="M 397.256932 507.36 
L 397.256932 40.64 
" clip-path="url(#p50450ee985)" style="fill: none; stroke: #f5f5f5; stroke-width: 0.5; stroke-linecap: square"/>
     </g>
    </g>
    <g id="xtick_18">
     <g id="line2d_18">
      <path d="M 473.607443 507.36 
L 473.607443 40.64 
" clip-path="url(#p50450ee985)" style="fill: none; stroke: #f5f5f5; stroke-width: 0.5; stroke-linecap: square"/>
     </g>
    </g>
    <g id="xtick_19">
     <g id="line2d_19">
      <path d="M 549.957955 507.36 
L 549.957955 40.64 
" clip-path="url(#p50450ee985)" style="fill: none; stroke: #f5f5f5; stroke-width: 0.5; stroke-linecap: square"/>
     </g>
    </g>
    <g id="xtick_20">
     <g id="line2d_20">
      <path d="M 626.308466 507.36 
L 626.308466 40.64 
" clip-path="url(#p50450ee985)" style="fill: none; stroke: #f5f5f5; stroke-width: 0.5; stroke-linecap: square"/>
     </g>
    </g>
    <g id="xtick_21">
     <g id="line2d_21">
      <path d="M 702.658977 507.36 
L 702.658977 40.64 
" clip-path="url(#p50450ee985)" style="fill: none; stroke: #f5f5f5; stroke-width: 0.5; stroke-linecap: square"/>
     </g>
    </g>
    <g id="xtick_22">
     <g id="line2d_22">
      <path d="M 779.009489 507.36 
L 779.009489 40.64 
" clip-path="url(#p50450ee985)" style="fill: none; stroke: #f5f5f5; stroke-width: 0.5; stroke-linecap: square"/>
     </g>
    </g>
    <g id="xtick_23">
     <g id="line2d_23">
      <path d="M 855.36 507.36 
L 855.36 40.64 
" clip-path="url(#p50450ee985)" style="fill: none; stroke: #f5f5f5; stroke-width: 0.5; stroke-linecap: square"/>
     </g>
    </g>
   </g>
   <g id="matplotlib.axis_2">
    <g id="ytick_1">
     <g id="line2d_24">
      <path d="M 15.504375 453.507692 
L 855.36 453.507692 
" clip-path="url(#p50450ee985)" style="fill: none; stroke: #f5f5f5; stroke-linecap: square"/>
     </g>
     <g id="text_12">
      <!-- 5 -->
      <g style="fill: #4d4d4d" transform="translate(8.64 458.067692) scale(0.12 -0.12)">
       <use xlink:href="#NotoSans-Regular-35"/>
      </g>
     </g>
    </g>
    <g id="ytick_2">
     <g id="line2d_25">
      <path d="M 15.504375 363.753846 
L 855.36 363.753846 
" clip-path="url(#p50450ee985)" style="fill: none; stroke: #f5f5f5; stroke-linecap: square"/>
     </g>
     <g id="text_13">
      <!-- 2 -->
      <g style="fill: #4d4d4d" transform="translate(8.64 368.313846) scale(0.12 -0.12)">
       <use xlink:href="#NotoSans-Regular-32"/>
      </g>
     </g>
    </g>
    <g id="ytick_3">
     <g id="line2d_26">
      <path d="M 15.504375 274 
L 855.36 274 
" clip-path="url(#p50450ee985)" style="fill: none; stroke: #f5f5f5; stroke-linecap: square"/>
     </g>
     <g id="text_14">
      <!-- 3 -->
      <g style="fill: #4d4d4d" transform="translate(8.64 278.56) scale(0.12 -0.12)">
       <use xlink:href="#NotoSans-Regular-33"/>
      </g>
     </g>
    </g>
    <g id="ytick_4">
     <g id="line2d_27">
      <path d="M 15.504375 184.246154 
L 855.36 184.246154 
" clip-path="url(#p50450ee985)" style="fill: none; stroke: #f5f5f5; stroke-linecap: square"/>
     </g>
     <g id="text_15">
      <!-- 4 -->
      <g style="fill: #4d4d4d" transform="translate(8.64 188.806154) scale(0.12 -0.12)">
       <use xlink:href="#NotoSans-Regular-34"/>
      </g>
     </g>
    </g>
    <g id="ytick_5">
     <g id="line2d_28">
      <path d="M 15.504375 94.492308 
L 855.36 94.492308 
" clip-path="url(#p50450ee985)" style="fill: none; stroke: #f5f5f5; stroke-linecap: square"/>
     </g>
     <g id="text_16">
      <!-- 1 -->
      <g style="fill: #4d4d4d" transform="translate(8.64 99.052308) scale(0.12 -0.12)">
       <use xlink:href="#NotoSans-Regular-31"/>
      </g>
     </g>
    </g>
   </g>
   <g id="LineCollection_1">
    <path d="M 57.867475 453.507692 
L 53.679631 453.507692 
" clip-path="url(#p50450ee985)" style="fill: none; stroke: #bc955c; stroke-width: 2.835926"/>
   </g>
   <g id="LineCollection_2">
    <path d="M 63.661862 363.753846 
L 53.679631 363.753846 
" clip-path="url(#p50450ee985)" style="fill: none; stroke: #bc955c; stroke-width: 2.835926"/>
   </g>
   <g id="LineCollection_3">
    <path d="M 151.288156 274 
L 53.679631 274 
" clip-path="url(#p50450ee985)" style="fill: none; stroke: #bc955c; stroke-width: 2.835926"/>
   </g>
   <g id="LineCollection_4">
    <path d="M 350.887861 184.246154 
L 53.679631 184.246154 
" clip-path="url(#p50450ee985)" style="fill: none; stroke: #bc955c; stroke-width: 2.835926"/>
   </g>
   <g id="LineCollection_5">
    <path d="M 722.692073 94.492308 
L 53.679631 94.492308 
" clip-path="url(#p50450ee985)" style="fill: none; stroke: #bc955c; stroke-width: 2.835926"/>
   </g>
   <g id="PathCollection_1">
    <path d="M 722.692073 100.252783 
C 724.219769 100.252783 725.6851 99.645823 726.765344 98.565579 
C 727.845589 97.485335 728.452549 96.020004 728.452549 94.492308 
C 728.452549 92.964612 727.845589 91.499281 726.765344 90.419037 
C 725.6851 89.338793 724.219769 88.731833 722.692073 88.731833 
C 721.164378 88.731833 719.699047 89.338793 718.618803 90.419037 
C 717.538558 91.499281 716.931598 92.964612 716.931598 94.492308 
C 716.931598 96.020004 717.538558 97.485335 718.618803 98.565579 
C 719.699047 99.645823 721.164378 100.252783 722.692073 100.252783 
z
" clip-path="url(#p50450ee985)" style="fill: #9f2241; stroke: #bc955c; stroke-width: 0.886227"/>
    <path d="M 350.887861 190.006629 
C 352.415557 190.006629 353.880888 189.399669 354.961132 188.319425 
C 356.041376 187.239181 356.648336 185.77385 356.648336 184.246154 
C 356.648336 182.718458 356.041376 181.253127 354.961132 180.172883 
C 353.880888 179.092639 352.415557 178.485679 350.887861 178.485679 
C 349.360166 178.485679 347.894835 179.092639 346.81459 180.172883 
C 345.734346 181.253127 345.127386 182.718458 345.127386 184.246154 
C 345.127386 185.77385 345.734346 187.239181 346.81459 188.319425 
C 347.894835 189.399669 349.360166 190.006629 350.887861 190.006629 
z
" clip-path="url(#p50450ee985)" style="fill: #9f2241; stroke: #bc955c; stroke-width: 0.886227"/>
    <path d="M 151.288156 279.760475 
C 152.815852 279.760475 154.281183 279.153515 155.361427 278.073271 
C 156.441671 276.993027 157.048631 275.527696 157.048631 274 
C 157.048631 272.472304 156.441671 271.006973 155.361427 269.926729 
C 154.281183 268.846485 152.815852 268.239525 151.288156 268.239525 
C 149.76046 268.239525 148.295129 268.846485 147.214885 269.926729 
C 146.134641 271.006973 145.527681 272.472304 145.527681 274 
C 145.527681 275.527696 146.134641 276.993027 147.214885 278.073271 
C 148.295129 279.153515 149.76046 279.760475 151.288156 279.760475 
z
" clip-path="url(#p50450ee985)" style="fill: #9f2241; stroke: #bc955c; stroke-width: 0.886227"/>
    <path d="M 63.661862 369.514321 
C 65.189557 369.514321 66.654888 368.907361 67.735133 367.827117 
C 68.815377 366.746873 69.422337 365.281542 69.422337 363.753846 
C 69.422337 362.22615 68.815377 360.760819 67.735133 359.680575 
C 66.654888 358.600331 65.189557 357.993371 63.661862 357.993371 
C 62.134166 357.993371 60.668835 358.600331 59.588591 359.680575 
C 58.508347 360.760819 57.901387 362.22615 57.901387 363.753846 
C 57.901387 365.281542 58.508347 366.746873 59.588591 367.827117 
C 60.668835 368.907361 62.134166 369.514321 63.661862 369.514321 
z
" clip-path="url(#p50450ee985)" style="fill: #9f2241; stroke: #bc955c; stroke-width: 0.886227"/>
    <path d="M 57.867475 459.268167 
C 59.39517 459.268167 60.860501 458.661207 61.940746 457.580963 
C 63.02099 456.500719 63.62795 455.035388 63.62795 453.507692 
C 63.62795 451.979996 63.02099 450.514665 61.940746 449.434421 
C 60.860501 448.354177 59.39517 447.747217 57.867475 447.747217 
C 56.339779 447.747217 54.874448 448.354177 53.794204 449.434421 
C 52.71396 450.514665 52.107 451.979996 52.107 453.507692 
C 52.107 455.035388 52.71396 456.500719 53.794204 457.580963 
C 54.874448 458.661207 56.339779 459.268167 57.867475 459.268167 
z
" clip-path="url(#p50450ee985)" style="fill: #9f2241; stroke: #bc955c; stroke-width: 0.886227"/>
   </g>
  </g>
  <g id="text_17">
   <!-- Gasto por Eje -->
   <g style="fill: #691c32" transform="translate(15.504375 25.36) scale(0.22 -0.22)">
    <defs>
     <path id="NotoSans-Bold-47" d="M 2310 2566 
L 4122 2566 
L 4122 198 
Q 3763 77 3376 6 
Q 2989 -64 2496 -64 
Q 1818 -64 1341 205 
Q 864 474 617 998 
Q 371 1523 371 2291 
Q 371 3008 649 3533 
Q 928 4058 1459 4346 
Q 1990 4634 2758 4634 
Q 3123 4634 3475 4557 
Q 3827 4480 4115 4352 
L 3795 3578 
Q 3584 3686 3315 3756 
Q 3046 3827 2752 3827 
Q 2330 3827 2019 3635 
Q 1709 3443 1539 3094 
Q 1370 2746 1370 2272 
Q 1370 1824 1491 1478 
Q 1613 1133 1875 937 
Q 2138 742 2560 742 
Q 2765 742 2909 761 
Q 3053 781 3174 806 
L 3174 1760 
L 2310 1760 
L 2310 2566 
z
" transform="scale(0.015625)"/>
     <path id="NotoSans-Bold-61" d="M 1933 3565 
Q 2637 3565 3011 3261 
Q 3386 2957 3386 2330 
L 3386 0 
L 2720 0 
L 2534 474 
L 2509 474 
Q 2362 288 2205 166 
Q 2048 45 1846 -9 
Q 1645 -64 1350 -64 
Q 1043 -64 796 54 
Q 550 173 409 419 
Q 269 666 269 1043 
Q 269 1600 659 1865 
Q 1050 2131 1830 2157 
L 2438 2176 
L 2438 2330 
Q 2438 2605 2294 2733 
Q 2150 2861 1894 2861 
Q 1638 2861 1395 2787 
Q 1152 2714 909 2605 
L 595 3251 
Q 877 3398 1219 3481 
Q 1562 3565 1933 3565 
z
M 2067 1606 
Q 1606 1594 1427 1440 
Q 1248 1286 1248 1037 
Q 1248 819 1376 726 
Q 1504 634 1709 634 
Q 2016 634 2227 816 
Q 2438 998 2438 1331 
L 2438 1619 
L 2067 1606 
z
" transform="scale(0.015625)"/>
     <path id="NotoSans-Bold-73" d="M 2938 1037 
Q 2938 685 2771 438 
Q 2605 192 2272 64 
Q 1939 -64 1446 -64 
Q 1082 -64 819 -16 
Q 557 32 294 141 
L 294 928 
Q 576 800 902 717 
Q 1229 634 1478 634 
Q 1760 634 1878 717 
Q 1997 800 1997 934 
Q 1997 1024 1949 1094 
Q 1901 1165 1741 1254 
Q 1581 1344 1242 1485 
Q 915 1626 704 1763 
Q 493 1901 390 2096 
Q 288 2291 288 2586 
Q 288 3072 665 3315 
Q 1043 3558 1670 3558 
Q 1997 3558 2291 3494 
Q 2586 3430 2899 3283 
L 2611 2598 
Q 2355 2707 2124 2780 
Q 1894 2854 1658 2854 
Q 1446 2854 1340 2796 
Q 1235 2739 1235 2624 
Q 1235 2541 1289 2473 
Q 1344 2406 1501 2329 
Q 1658 2253 1965 2125 
Q 2266 2003 2483 1872 
Q 2701 1741 2819 1545 
Q 2938 1350 2938 1037 
z
" transform="scale(0.015625)"/>
     <path id="NotoSans-Bold-74" d="M 1971 698 
Q 2131 698 2278 730 
Q 2426 762 2573 806 
L 2573 96 
Q 2419 32 2192 -16 
Q 1965 -64 1696 -64 
Q 1382 -64 1136 38 
Q 890 141 746 393 
Q 602 646 602 1094 
L 602 2778 
L 147 2778 
L 147 3181 
L 672 3501 
L 947 4237 
L 1555 4237 
L 1555 3494 
L 2534 3494 
L 2534 2778 
L 1555 2778 
L 1555 1094 
Q 1555 896 1670 797 
Q 1786 698 1971 698 
z
" transform="scale(0.015625)"/>
     <path id="NotoSans-Bold-6f" d="M 3674 1754 
Q 3674 1318 3555 979 
Q 3437 640 3216 406 
Q 2995 173 2681 54 
Q 2368 -64 1971 -64 
Q 1606 -64 1296 54 
Q 986 173 762 406 
Q 538 640 413 979 
Q 288 1318 288 1754 
Q 288 2336 493 2736 
Q 698 3136 1082 3347 
Q 1466 3558 1990 3558 
Q 2483 3558 2860 3347 
Q 3238 3136 3456 2736 
Q 3674 2336 3674 1754 
z
M 1261 1754 
Q 1261 1408 1334 1174 
Q 1408 941 1568 822 
Q 1728 704 1984 704 
Q 2240 704 2397 822 
Q 2554 941 2627 1174 
Q 2701 1408 2701 1754 
Q 2701 2099 2627 2329 
Q 2554 2560 2394 2675 
Q 2234 2790 1978 2790 
Q 1600 2790 1430 2531 
Q 1261 2272 1261 1754 
z
" transform="scale(0.015625)"/>
     <path id="NotoSans-Bold-20" transform="scale(0.015625)"/>
     <path id="NotoSans-Bold-70" d="M 2445 3558 
Q 3034 3558 3398 3100 
Q 3763 2643 3763 1754 
Q 3763 1158 3590 752 
Q 3418 346 3117 141 
Q 2816 -64 2419 -64 
Q 2170 -64 1987 0 
Q 1805 64 1677 166 
Q 1549 269 1453 384 
L 1402 384 
Q 1427 262 1440 131 
Q 1453 0 1453 -128 
L 1453 -1536 
L 499 -1536 
L 499 3494 
L 1274 3494 
L 1408 3040 
L 1453 3040 
Q 1549 3181 1683 3299 
Q 1818 3418 2006 3488 
Q 2195 3558 2445 3558 
z
M 2138 2797 
Q 1888 2797 1741 2694 
Q 1594 2592 1526 2384 
Q 1459 2176 1453 1862 
L 1453 1760 
Q 1453 1421 1517 1187 
Q 1581 954 1734 832 
Q 1888 710 2150 710 
Q 2368 710 2509 832 
Q 2650 954 2720 1190 
Q 2790 1427 2790 1766 
Q 2790 2278 2633 2537 
Q 2477 2797 2138 2797 
z
" transform="scale(0.015625)"/>
     <path id="NotoSans-Bold-72" d="M 2451 3558 
Q 2522 3558 2618 3552 
Q 2714 3546 2771 3533 
L 2701 2637 
Q 2656 2650 2569 2659 
Q 2483 2669 2419 2669 
Q 2234 2669 2061 2621 
Q 1888 2573 1750 2470 
Q 1613 2368 1533 2198 
Q 1453 2029 1453 1779 
L 1453 0 
L 499 0 
L 499 3494 
L 1222 3494 
L 1363 2906 
L 1408 2906 
Q 1510 3085 1664 3232 
Q 1818 3379 2019 3468 
Q 2221 3558 2451 3558 
z
" transform="scale(0.015625)"/>
     <path id="NotoSans-Bold-45" d="M 3206 0 
L 576 0 
L 576 4570 
L 3206 4570 
L 3206 3776 
L 1542 3776 
L 1542 2771 
L 3091 2771 
L 3091 1978 
L 1542 1978 
L 1542 800 
L 3206 800 
L 3206 0 
z
" transform="scale(0.015625)"/>
     <path id="NotoSans-Bold-6a" d="M 218 -1536 
Q 58 -1536 -118 -1513 
Q -294 -1491 -410 -1459 
L -410 -710 
Q -294 -736 -192 -752 
Q -90 -768 38 -768 
Q 230 -768 364 -659 
Q 499 -550 499 -237 
L 499 3494 
L 1453 3494 
L 1453 -378 
Q 1453 -698 1331 -960 
Q 1210 -1222 938 -1379 
Q 666 -1536 218 -1536 
z
M 461 4397 
Q 461 4666 611 4765 
Q 762 4864 979 4864 
Q 1190 4864 1344 4765 
Q 1498 4666 1498 4397 
Q 1498 4134 1344 4032 
Q 1190 3930 979 3930 
Q 762 3930 611 4032 
Q 461 4134 461 4397 
z
" transform="scale(0.015625)"/>
     <path id="NotoSans-Bold-65" d="M 1939 3558 
Q 2426 3558 2774 3372 
Q 3123 3187 3315 2835 
Q 3507 2483 3507 1971 
L 3507 1510 
L 1254 1510 
Q 1267 1107 1494 876 
Q 1722 646 2125 646 
Q 2464 646 2739 713 
Q 3014 781 3309 922 
L 3309 186 
Q 3053 58 2768 -3 
Q 2483 -64 2080 -64 
Q 1555 -64 1152 131 
Q 749 326 518 723 
Q 288 1120 288 1722 
Q 288 2336 496 2742 
Q 704 3149 1075 3353 
Q 1446 3558 1939 3558 
z
M 1946 2880 
Q 1670 2880 1488 2701 
Q 1306 2522 1274 2144 
L 2611 2144 
Q 2611 2355 2537 2521 
Q 2464 2688 2317 2784 
Q 2170 2880 1946 2880 
z
" transform="scale(0.015625)"/>
    </defs>
    <use xlink:href="#NotoSans-Bold-47"/>
    <use xlink:href="#NotoSans-Bold-61" transform="translate(72.399994 0)"/>
    <use xlink:href="#NotoSans-Bold-73" transform="translate(132.799988 0)"/>
    <use xlink:href="#NotoSans-Bold-74" transform="translate(182.499985 0)"/>
    <use xlink:href="#NotoSans-Bold-6f" transform="translate(225.899979 0)"/>
    <use xlink:href="#NotoSans-Bold-20" transform="translate(287.799973 0)"/>
    <use xlink:href="#NotoSans-Bold-70" transform="translate(313.799957 0)"/>
    <use xlink:href="#NotoSans-Bold-6f" transform="translate(377.099945 0)"/>
    <use xlink:href="#NotoSans-Bold-72" transform="translate(438.999939 0)"/>
    <use xlink:href="#NotoSans-Bold-20" transform="translate(484.399933 0)"/>
    <use xlink:href="#NotoSans-Bold-45" transform="translate(510.399918 0)"/>
    <use xlink:href="#NotoSans-Bold-6a" transform="translate(566.399902 0)"/>
    <use xlink:href="#NotoSans-Bold-65" transform="translate(596.899887 0)"/>
   </g>
  </g>
  <g id="text_18">
   <!-- Fuente: Informe Estatal de Evaluación 2024 -->
   <g style="fill: #98989a" transform="translate(15.504375 564) scale(0.14 -0.14)">
    <defs>
     <path id="NotoSans-Regular-46" d="M 1197 0 
L 621 0 
L 621 4570 
L 3174 4570 
L 3174 4064 
L 1197 4064 
L 1197 2445 
L 3053 2445 
L 3053 1939 
L 1197 1939 
L 1197 0 
z
" transform="scale(0.015625)"/>
     <path id="NotoSans-Regular-75" d="M 3411 3430 
L 3411 0 
L 2950 0 
L 2867 454 
L 2842 454 
Q 2733 275 2560 160 
Q 2387 45 2182 -9 
Q 1978 -64 1754 -64 
Q 1344 -64 1065 67 
Q 787 198 646 473 
Q 506 749 506 1184 
L 506 3430 
L 1075 3430 
L 1075 1222 
Q 1075 813 1260 608 
Q 1446 403 1837 403 
Q 2221 403 2441 547 
Q 2662 691 2755 969 
Q 2848 1248 2848 1645 
L 2848 3430 
L 3411 3430 
z
" transform="scale(0.015625)"/>
     <path id="NotoSans-Regular-65" d="M 1869 3494 
Q 2310 3494 2627 3302 
Q 2944 3110 3113 2761 
Q 3283 2413 3283 1946 
L 3283 1606 
L 934 1606 
Q 947 1024 1232 720 
Q 1517 416 2029 416 
Q 2355 416 2608 477 
Q 2861 538 3130 653 
L 3130 160 
Q 2867 45 2611 -9 
Q 2355 -64 2003 -64 
Q 1517 -64 1142 134 
Q 768 333 560 726 
Q 352 1120 352 1690 
Q 352 2253 541 2656 
Q 730 3059 1072 3276 
Q 1414 3494 1869 3494 
z
M 1862 3034 
Q 1459 3034 1225 2774 
Q 992 2515 947 2054 
L 2694 2054 
Q 2694 2349 2604 2566 
Q 2515 2784 2332 2909 
Q 2150 3034 1862 3034 
z
" transform="scale(0.015625)"/>
     <path id="NotoSans-Regular-6e" d="M 2195 3494 
Q 2810 3494 3123 3196 
Q 3437 2899 3437 2234 
L 3437 0 
L 2880 0 
L 2880 2195 
Q 2880 2611 2694 2816 
Q 2509 3021 2112 3021 
Q 1542 3021 1324 2701 
Q 1107 2381 1107 1779 
L 1107 0 
L 544 0 
L 544 3430 
L 998 3430 
L 1082 2963 
L 1114 2963 
Q 1229 3142 1398 3260 
Q 1568 3379 1773 3436 
Q 1978 3494 2195 3494 
z
" transform="scale(0.015625)"/>
     <path id="NotoSans-Regular-74" d="M 1690 397 
Q 1818 397 1952 419 
Q 2086 442 2170 467 
L 2170 38 
Q 2080 -6 1913 -35 
Q 1747 -64 1594 -64 
Q 1325 -64 1097 29 
Q 870 122 729 352 
Q 589 582 589 998 
L 589 2995 
L 102 2995 
L 102 3264 
L 595 3488 
L 819 4218 
L 1152 4218 
L 1152 3430 
L 2144 3430 
L 2144 2995 
L 1152 2995 
L 1152 1011 
Q 1152 698 1302 547 
Q 1453 397 1690 397 
z
" transform="scale(0.015625)"/>
     <path id="NotoSans-Regular-3a" d="M 461 346 
Q 461 582 576 678 
Q 691 774 851 774 
Q 1018 774 1136 678 
Q 1254 582 1254 346 
Q 1254 115 1136 12 
Q 1018 -90 851 -90 
Q 691 -90 576 12 
Q 461 115 461 346 
z
M 461 3085 
Q 461 3328 576 3424 
Q 691 3520 851 3520 
Q 1018 3520 1136 3424 
Q 1254 3328 1254 3085 
Q 1254 2854 1136 2752 
Q 1018 2650 851 2650 
Q 691 2650 576 2752 
Q 461 2854 461 3085 
z
" transform="scale(0.015625)"/>
     <path id="NotoSans-Regular-20" transform="scale(0.015625)"/>
     <path id="NotoSans-Regular-49" d="M 1907 0 
L 256 0 
L 256 333 
L 794 454 
L 794 4109 
L 256 4237 
L 256 4570 
L 1907 4570 
L 1907 4237 
L 1370 4109 
L 1370 454 
L 1907 333 
L 1907 0 
z
" transform="scale(0.015625)"/>
     <path id="NotoSans-Regular-66" d="M 2125 2995 
L 1261 2995 
L 1261 0 
L 698 0 
L 698 2995 
L 96 2995 
L 96 3258 
L 698 3450 
L 698 3648 
Q 698 4090 829 4365 
Q 960 4640 1209 4768 
Q 1459 4896 1811 4896 
Q 2016 4896 2185 4861 
Q 2355 4826 2477 4781 
L 2330 4339 
Q 2227 4371 2092 4403 
Q 1958 4435 1818 4435 
Q 1536 4435 1398 4246 
Q 1261 4058 1261 3654 
L 1261 3430 
L 2125 3430 
L 2125 2995 
z
" transform="scale(0.015625)"/>
     <path id="NotoSans-Regular-6f" d="M 3526 1722 
Q 3526 1293 3414 963 
Q 3302 634 3094 403 
Q 2886 173 2588 54 
Q 2291 -64 1926 -64 
Q 1587 -64 1299 54 
Q 1011 173 800 403 
Q 589 634 470 963 
Q 352 1293 352 1722 
Q 352 2291 544 2684 
Q 736 3078 1094 3286 
Q 1453 3494 1946 3494 
Q 2413 3494 2768 3286 
Q 3123 3078 3324 2684 
Q 3526 2291 3526 1722 
z
M 934 1722 
Q 934 1318 1040 1020 
Q 1146 723 1370 563 
Q 1594 403 1939 403 
Q 2285 403 2509 563 
Q 2733 723 2838 1020 
Q 2944 1318 2944 1722 
Q 2944 2131 2835 2419 
Q 2726 2707 2505 2864 
Q 2285 3021 1933 3021 
Q 1408 3021 1171 2675 
Q 934 2330 934 1722 
z
" transform="scale(0.015625)"/>
     <path id="NotoSans-Regular-72" d="M 2144 3494 
Q 2240 3494 2352 3484 
Q 2464 3475 2547 3456 
L 2477 2938 
Q 2394 2957 2294 2969 
Q 2195 2982 2106 2982 
Q 1907 2982 1728 2899 
Q 1549 2816 1408 2665 
Q 1267 2515 1187 2304 
Q 1107 2093 1107 1830 
L 1107 0 
L 544 0 
L 544 3430 
L 1005 3430 
L 1069 2803 
L 1094 2803 
Q 1203 2995 1356 3152 
Q 1510 3309 1708 3401 
Q 1907 3494 2144 3494 
z
" transform="scale(0.015625)"/>
     <path id="NotoSans-Regular-6d" d="M 4307 3494 
Q 4890 3494 5178 3196 
Q 5466 2899 5466 2234 
L 5466 0 
L 4909 0 
L 4909 2208 
Q 4909 2611 4739 2816 
Q 4570 3021 4211 3021 
Q 3712 3021 3497 2733 
Q 3283 2445 3283 1894 
L 3283 0 
L 2726 0 
L 2726 2208 
Q 2726 2477 2649 2659 
Q 2573 2842 2419 2931 
Q 2266 3021 2022 3021 
Q 1677 3021 1478 2877 
Q 1280 2733 1193 2457 
Q 1107 2182 1107 1779 
L 1107 0 
L 544 0 
L 544 3430 
L 998 3430 
L 1082 2963 
L 1114 2963 
Q 1222 3142 1379 3260 
Q 1536 3379 1728 3436 
Q 1920 3494 2125 3494 
Q 2522 3494 2787 3353 
Q 3053 3213 3174 2918 
L 3206 2918 
Q 3379 3213 3676 3353 
Q 3974 3494 4307 3494 
z
" transform="scale(0.015625)"/>
     <path id="NotoSans-Regular-45" d="M 3174 0 
L 621 0 
L 621 4570 
L 3174 4570 
L 3174 4064 
L 1197 4064 
L 1197 2637 
L 3059 2637 
L 3059 2138 
L 1197 2138 
L 1197 506 
L 3174 506 
L 3174 0 
z
" transform="scale(0.015625)"/>
     <path id="NotoSans-Regular-73" d="M 2778 947 
Q 2778 614 2611 390 
Q 2445 166 2137 51 
Q 1830 -64 1408 -64 
Q 1050 -64 790 -6 
Q 531 51 333 154 
L 333 666 
Q 538 563 829 476 
Q 1120 390 1421 390 
Q 1850 390 2042 528 
Q 2234 666 2234 896 
Q 2234 1024 2163 1126 
Q 2093 1229 1910 1331 
Q 1728 1434 1389 1562 
Q 1056 1690 819 1818 
Q 582 1946 454 2125 
Q 326 2304 326 2586 
Q 326 3021 681 3257 
Q 1037 3494 1613 3494 
Q 1926 3494 2198 3433 
Q 2470 3373 2707 3264 
L 2515 2816 
Q 2298 2906 2061 2970 
Q 1824 3034 1574 3034 
Q 1229 3034 1046 2922 
Q 864 2810 864 2618 
Q 864 2477 947 2377 
Q 1030 2278 1225 2185 
Q 1421 2093 1747 1965 
Q 2074 1843 2304 1715 
Q 2534 1587 2656 1404 
Q 2778 1222 2778 947 
z
" transform="scale(0.015625)"/>
     <path id="NotoSans-Regular-61" d="M 1843 3488 
Q 2470 3488 2771 3213 
Q 3072 2938 3072 2336 
L 3072 0 
L 2662 0 
L 2554 486 
L 2528 486 
Q 2381 301 2224 176 
Q 2067 51 1865 -6 
Q 1664 -64 1376 -64 
Q 1069 -64 822 45 
Q 576 154 435 381 
Q 294 608 294 954 
Q 294 1466 697 1744 
Q 1101 2022 1939 2048 
L 2522 2067 
L 2522 2272 
Q 2522 2701 2336 2867 
Q 2150 3034 1811 3034 
Q 1542 3034 1299 2954 
Q 1056 2874 845 2771 
L 672 3194 
Q 896 3315 1203 3401 
Q 1510 3488 1843 3488 
z
M 2010 1658 
Q 1370 1632 1123 1453 
Q 877 1274 877 947 
Q 877 659 1053 524 
Q 1229 390 1504 390 
Q 1939 390 2227 630 
Q 2515 870 2515 1370 
L 2515 1677 
L 2010 1658 
z
" transform="scale(0.015625)"/>
     <path id="NotoSans-Regular-6c" d="M 1107 0 
L 544 0 
L 544 4864 
L 1107 4864 
L 1107 0 
z
" transform="scale(0.015625)"/>
     <path id="NotoSans-Regular-64" d="M 1760 -64 
Q 1120 -64 736 381 
Q 352 826 352 1709 
Q 352 2592 739 3043 
Q 1126 3494 1766 3494 
Q 2035 3494 2233 3427 
Q 2432 3360 2579 3245 
Q 2726 3130 2829 2989 
L 2867 2989 
Q 2861 3072 2845 3235 
Q 2829 3398 2829 3494 
L 2829 4864 
L 3392 4864 
L 3392 0 
L 2938 0 
L 2854 461 
L 2829 461 
Q 2726 314 2579 195 
Q 2432 77 2230 6 
Q 2029 -64 1760 -64 
z
M 1850 403 
Q 2394 403 2614 700 
Q 2835 998 2835 1600 
L 2835 1702 
Q 2835 2342 2624 2684 
Q 2413 3027 1843 3027 
Q 1389 3027 1161 2665 
Q 934 2304 934 1696 
Q 934 1082 1161 742 
Q 1389 403 1850 403 
z
" transform="scale(0.015625)"/>
     <path id="NotoSans-Regular-76" d="M 1299 0 
L 0 3430 
L 602 3430 
L 1331 1408 
Q 1382 1267 1440 1094 
Q 1498 922 1542 765 
Q 1587 608 1606 499 
L 1632 499 
Q 1658 608 1706 768 
Q 1754 928 1814 1101 
Q 1875 1274 1920 1408 
L 2650 3430 
L 3251 3430 
L 1946 0 
L 1299 0 
z
" transform="scale(0.015625)"/>
     <path id="NotoSans-Regular-63" d="M 1920 -64 
Q 1466 -64 1110 121 
Q 755 307 553 697 
Q 352 1088 352 1696 
Q 352 2330 563 2726 
Q 774 3123 1136 3308 
Q 1498 3494 1958 3494 
Q 2221 3494 2464 3440 
Q 2707 3386 2861 3309 
L 2688 2842 
Q 2534 2899 2329 2950 
Q 2125 3002 1946 3002 
Q 1600 3002 1376 2854 
Q 1152 2707 1043 2419 
Q 934 2131 934 1702 
Q 934 1293 1043 1005 
Q 1152 717 1369 569 
Q 1587 422 1914 422 
Q 2195 422 2409 480 
Q 2624 538 2803 621 
L 2803 122 
Q 2630 32 2422 -16 
Q 2214 -64 1920 -64 
z
" transform="scale(0.015625)"/>
     <path id="NotoSans-Regular-69" d="M 1107 3430 
L 1107 0 
L 544 0 
L 544 3430 
L 1107 3430 
z
M 832 4717 
Q 960 4717 1059 4630 
Q 1158 4544 1158 4358 
Q 1158 4179 1059 4089 
Q 960 4000 832 4000 
Q 691 4000 595 4089 
Q 499 4179 499 4358 
Q 499 4544 595 4630 
Q 691 4717 832 4717 
z
" transform="scale(0.015625)"/>
     <path id="NotoSans-Regular-f3" d="M 3526 1722 
Q 3526 1293 3414 963 
Q 3302 634 3094 403 
Q 2886 173 2588 54 
Q 2291 -64 1926 -64 
Q 1587 -64 1299 54 
Q 1011 173 800 403 
Q 589 634 470 963 
Q 352 1293 352 1722 
Q 352 2291 544 2684 
Q 736 3078 1094 3286 
Q 1453 3494 1946 3494 
Q 2413 3494 2768 3286 
Q 3123 3078 3324 2684 
Q 3526 2291 3526 1722 
z
M 934 1722 
Q 934 1318 1040 1020 
Q 1146 723 1370 563 
Q 1594 403 1939 403 
Q 2285 403 2509 563 
Q 2733 723 2838 1020 
Q 2944 1318 2944 1722 
Q 2944 2131 2835 2419 
Q 2726 2707 2505 2864 
Q 2285 3021 1933 3021 
Q 1408 3021 1171 2675 
Q 934 2330 934 1722 
z
M 2886 4838 
Q 2829 4749 2720 4621 
Q 2611 4493 2480 4355 
Q 2349 4218 2217 4093 
Q 2086 3968 1971 3878 
L 1600 3878 
L 1600 3955 
Q 1696 4077 1808 4243 
Q 1920 4410 2029 4586 
Q 2138 4762 2208 4902 
L 2886 4902 
L 2886 4838 
z
" transform="scale(0.015625)"/>
    </defs>
    <use xlink:href="#NotoSans-Regular-46"/>
    <use xlink:href="#NotoSans-Regular-75" transform="translate(51.899994 0)"/>
    <use xlink:href="#NotoSans-Regular-65" transform="translate(113.699982 0)"/>
    <use xlink:href="#NotoSans-Regular-6e" transform="translate(170.099976 0)"/>
    <use xlink:href="#NotoSans-Regular-74" transform="translate(231.899963 0)"/>
    <use xlink:href="#NotoSans-Regular-65" transform="translate(267.999954 0)"/>
    <use xlink:href="#NotoSans-Regular-3a" transform="translate(324.399948 0)"/>
    <use xlink:href="#NotoSans-Regular-20" transform="translate(351.199936 0)"/>
    <use xlink:href="#NotoSans-Regular-49" transform="translate(377.199921 0)"/>
    <use xlink:href="#NotoSans-Regular-6e" transform="translate(411.099915 0)"/>
    <use xlink:href="#NotoSans-Regular-66" transform="translate(472.899902 0)"/>
    <use xlink:href="#NotoSans-Regular-6f" transform="translate(507.299896 0)"/>
    <use xlink:href="#NotoSans-Regular-72" transform="translate(567.799881 0)"/>
    <use xlink:href="#NotoSans-Regular-6d" transform="translate(609.099869 0)"/>
    <use xlink:href="#NotoSans-Regular-65" transform="translate(702.599854 0)"/>
    <use xlink:href="#NotoSans-Regular-20" transform="translate(758.999847 0)"/>
    <use xlink:href="#NotoSans-Regular-45" transform="translate(784.999832 0)"/>
    <use xlink:href="#NotoSans-Regular-73" transform="translate(840.599823 0)"/>
    <use xlink:href="#NotoSans-Regular-74" transform="translate(888.499817 0)"/>
    <use xlink:href="#NotoSans-Regular-61" transform="translate(924.599808 0)"/>
    <use xlink:href="#NotoSans-Regular-74" transform="translate(980.699799 0)"/>
    <use xlink:href="#NotoSans-Regular-61" transform="translate(1016.799789 0)"/>
    <use xlink:href="#NotoSans-Regular-6c" transform="translate(1072.89978 0)"/>
    <use xlink:href="#NotoSans-Regular-20" transform="translate(1098.699768 0)"/>
    <use xlink:href="#NotoSans-Regular-64" transform="translate(1124.699753 0)"/>
    <use xlink:href="#NotoSans-Regular-65" transform="translate(1186.199738 0)"/>
    <use xlink:href="#NotoSans-Regular-20" transform="translate(1242.599731 0)"/>
    <use xlink:href="#NotoSans-Regular-45" transform="translate(1268.599716 0)"/>
    <use xlink:href="#NotoSans-Regular-76" transform="translate(1324.199707 0)"/>
    <use xlink:href="#NotoSans-Regular-61" transform="translate(1374.999695 0)"/>
    <use xlink:href="#NotoSans-Regular-6c" transform="translate(1431.099686 0)"/>
    <use xlink:href="#NotoSans-Regular-75" transform="translate(1456.899673 0)"/>
    <use xlink:href="#NotoSans-Regular-61" transform="translate(1518.699661 0)"/>
    <use xlink:href="#NotoSans-Regular-63" transform="translate(1574.799652 0)"/>
    <use xlink:href="#NotoSans-Regular-69" transform="translate(1622.799637 0)"/>
    <use xlink:href="#NotoSans-Regular-f3" transform="translate(1648.599625 0)"/>
    <use xlink:href="#NotoSans-Regular-6e" transform="translate(1709.099609 0)"/>
    <use xlink:href="#NotoSans-Regular-20" transform="translate(1770.899597 0)"/>
    <use xlink:href="#NotoSans-Regular-32" transform="translate(1796.899582 0)"/>
    <use xlink:href="#NotoSans-Regular-30" transform="translate(1854.099579 0)"/>
    <use xlink:href="#NotoSans-Regular-32" transform="translate(1911.299576 0)"/>
    <use xlink:href="#NotoSans-Regular-34" transform="translate(1968.499573 0)"/>
   </g>
  </g>
  <g id="text_19">
   <!-- Mdp -->
   <g transform="translate(420.472969 540) scale(0.14 -0.14)">
    <defs>
     <path id="NotoSans-Regular-4d" d="M 2637 0 
L 1133 4006 
L 1107 4006 
Q 1120 3878 1129 3680 
Q 1139 3482 1145 3248 
Q 1152 3014 1152 2771 
L 1152 0 
L 621 0 
L 621 4570 
L 1472 4570 
L 2880 826 
L 2906 826 
L 4339 4570 
L 5184 4570 
L 5184 0 
L 4614 0 
L 4614 2810 
Q 4614 3034 4620 3254 
Q 4627 3475 4640 3670 
Q 4653 3866 4659 4000 
L 4634 4000 
L 3110 0 
L 2637 0 
z
" transform="scale(0.015625)"/>
     <path id="NotoSans-Regular-70" d="M 2176 3494 
Q 2810 3494 3197 3052 
Q 3584 2611 3584 1722 
Q 3584 1139 3408 739 
Q 3232 339 2915 137 
Q 2598 -64 2170 -64 
Q 1907 -64 1702 6 
Q 1498 77 1354 189 
Q 1210 301 1107 435 
L 1069 435 
Q 1082 326 1094 160 
Q 1107 -6 1107 -128 
L 1107 -1536 
L 544 -1536 
L 544 3430 
L 1005 3430 
L 1082 2963 
L 1107 2963 
Q 1210 3110 1354 3232 
Q 1498 3354 1699 3424 
Q 1901 3494 2176 3494 
z
M 2074 3021 
Q 1728 3021 1517 2889 
Q 1306 2758 1210 2496 
Q 1114 2234 1107 1830 
L 1107 1722 
Q 1107 1299 1196 1004 
Q 1286 710 1500 556 
Q 1715 403 2086 403 
Q 2400 403 2601 576 
Q 2803 749 2902 1046 
Q 3002 1344 3002 1728 
Q 3002 2317 2774 2669 
Q 2547 3021 2074 3021 
z
" transform="scale(0.015625)"/>
    </defs>
    <use xlink:href="#NotoSans-Regular-4d"/>
    <use xlink:href="#NotoSans-Regular-64" transform="translate(90.699982 0)"/>
    <use xlink:href="#NotoSans-Regular-70" transform="translate(152.199966 0)"/>
   </g>
  </g>
 </g>
 <defs>
  <clipPath id="p50450ee985">
   <rect x="15.504375" y="40.64" width="839.855625" height="466.72"/>
  </clipPath>
 </defs>
</svg>
