<?xml version="1.0" encoding="utf-8" standalone="no"?>
<!DOCTYPE svg PUBLIC "-//W3C//DTD SVG 1.1//EN"
  "http://www.w3.org/Graphics/SVG/1.1/DTD/svg11.dtd">
<svg xmlns:xlink="http://www.w3.org/1999/xlink" width="864pt" height="432pt" viewBox="0 0 864 432" xmlns="http://www.w3.org/2000/svg" version="1.1">
 <metadata>
  <rdf:RDF xmlns:dc="http://purl.org/dc/elements/1.1/" xmlns:cc="http://creativecommons.org/ns#" xmlns:rdf="http://www.w3.org/1999/02/22-rdf-syntax-ns#">
   <cc:Work>
    <dc:type rdf:resource="http://purl.org/dc/dcmitype/StillImage"/>
    <dc:date>2025-08-20T09:12:32.028237</dc:date>
    <dc:format>image/svg+xml</dc:format>
    <dc:creator>
     <cc:Agent>
      <dc:title>Matplotlib v3.10.0, https://matplotlib.org/</dc:title>
     </cc:Agent>
    </dc:creator>
   </cc:Work>
  </rdf:RDF>
 </metadata>
 <defs>
  <style type="text/css">*{stroke-linejoin: round; stroke-linecap: butt}</style>
 </defs>
 <g id="figure_1">
  <g id="patch_1">
   <path d="M 0 432 
L 864 432 
L 864 0 
L 0 0 
z
" style="fill: #ffffff; stroke: #ffffff; stroke-linejoin: miter"/>
  </g>
  <g id="axes_1">
   <g id="patch_2">
    <path d="M 34.335 363.36 
L 855.36 363.36 
L 855.36 40.64 
L 34.335 40.64 
z
" style="fill: #fafafa"/>
   </g>
   <g id="matplotlib.axis_1">
    <g id="xtick_1">
     <g id="line2d_1">
      <path d="M 71.654318 363.36 
L 71.654318 40.64 
" clip-path="url(#p8ca5c2c74d)" style="fill: none; stroke: #f5f5f5; stroke-linecap: square"/>
     </g>
     <g id="text_1">
      <!-- 0 -->
      <g style="fill: #4d4d4d" transform="translate(64.789943 372.48) scale(0.12 -0.12)">
       <defs>
        <path id="NotoSans-Regular-30" d="M 3347 2291 
Q 3347 1734 3264 1299 
Q 3181 864 2998 560 
Q 2816 256 2525 96 
Q 2234 -64 1824 -64 
Q 1312 -64 976 217 
Q 640 499 477 1027 
Q 314 1555 314 2291 
Q 314 3034 464 3558 
Q 614 4083 947 4361 
Q 1280 4640 1824 4640 
Q 2336 4640 2675 4361 
Q 3014 4083 3180 3558 
Q 3347 3034 3347 2291 
z
M 877 2291 
Q 877 1664 969 1248 
Q 1062 832 1270 624 
Q 1478 416 1824 416 
Q 2170 416 2378 621 
Q 2586 826 2682 1245 
Q 2778 1664 2778 2291 
Q 2778 2918 2682 3331 
Q 2586 3744 2378 3952 
Q 2170 4160 1824 4160 
Q 1478 4160 1270 3952 
Q 1062 3744 969 3331 
Q 877 2918 877 2291 
z
" transform="scale(0.015625)"/>
       </defs>
       <use xlink:href="#NotoSans-Regular-30"/>
      </g>
     </g>
    </g>
    <g id="xtick_2">
     <g id="line2d_2">
      <path d="M 196.052045 363.36 
L 196.052045 40.64 
" clip-path="url(#p8ca5c2c74d)" style="fill: none; stroke: #f5f5f5; stroke-linecap: square"/>
     </g>
     <g id="text_2">
      <!-- 100 -->
      <g style="fill: #4d4d4d" transform="translate(175.45892 372.48) scale(0.12 -0.12)">
       <defs>
        <path id="NotoSans-Regular-31" d="M 2272 0 
L 1722 0 
L 1722 3194 
Q 1722 3379 1725 3507 
Q 1728 3635 1734 3747 
Q 1741 3859 1747 3981 
Q 1645 3878 1561 3808 
Q 1478 3738 1350 3629 
L 864 3232 
L 570 3610 
L 1805 4570 
L 2272 4570 
L 2272 0 
z
" transform="scale(0.015625)"/>
       </defs>
       <use xlink:href="#NotoSans-Regular-31"/>
       <use xlink:href="#NotoSans-Regular-30" transform="translate(57.199997 0)"/>
       <use xlink:href="#NotoSans-Regular-30" transform="translate(114.399994 0)"/>
      </g>
     </g>
    </g>
    <g id="xtick_3">
     <g id="line2d_3">
      <path d="M 320.449773 363.36 
L 320.449773 40.64 
" clip-path="url(#p8ca5c2c74d)" style="fill: none; stroke: #f5f5f5; stroke-linecap: square"/>
     </g>
     <g id="text_3">
      <!-- 200 -->
      <g style="fill: #4d4d4d" transform="translate(299.856648 372.48) scale(0.12 -0.12)">
       <defs>
        <path id="NotoSans-Regular-32" d="M 3328 0 
L 307 0 
L 307 467 
L 1504 1677 
Q 1850 2022 2086 2291 
Q 2323 2560 2444 2819 
Q 2566 3078 2566 3386 
Q 2566 3763 2342 3958 
Q 2118 4154 1760 4154 
Q 1427 4154 1174 4038 
Q 922 3923 659 3718 
L 358 4096 
Q 538 4250 752 4371 
Q 966 4493 1219 4563 
Q 1472 4634 1760 4634 
Q 2189 4634 2496 4486 
Q 2803 4339 2972 4067 
Q 3142 3795 3142 3418 
Q 3142 3059 2995 2745 
Q 2848 2432 2585 2128 
Q 2323 1824 1971 1478 
L 1018 538 
L 1018 512 
L 3328 512 
L 3328 0 
z
" transform="scale(0.015625)"/>
       </defs>
       <use xlink:href="#NotoSans-Regular-32"/>
       <use xlink:href="#NotoSans-Regular-30" transform="translate(57.199997 0)"/>
       <use xlink:href="#NotoSans-Regular-30" transform="translate(114.399994 0)"/>
      </g>
     </g>
    </g>
    <g id="xtick_4">
     <g id="line2d_4">
      <path d="M 444.8475 363.36 
L 444.8475 40.64 
" clip-path="url(#p8ca5c2c74d)" style="fill: none; stroke: #f5f5f5; stroke-linecap: square"/>
     </g>
     <g id="text_4">
      <!-- 300 -->
      <g style="fill: #4d4d4d" transform="translate(424.254375 372.48) scale(0.12 -0.12)">
       <defs>
        <path id="NotoSans-Regular-33" d="M 3155 3501 
Q 3155 3194 3040 2970 
Q 2925 2746 2710 2605 
Q 2496 2464 2208 2406 
L 2208 2381 
Q 2758 2317 3027 2035 
Q 3296 1754 3296 1299 
Q 3296 902 3110 592 
Q 2925 282 2537 109 
Q 2150 -64 1542 -64 
Q 1184 -64 877 -9 
Q 570 45 288 186 
L 288 710 
Q 576 570 909 490 
Q 1242 410 1549 410 
Q 2163 410 2435 650 
Q 2707 890 2707 1312 
Q 2707 1600 2556 1776 
Q 2406 1952 2118 2035 
Q 1830 2118 1427 2118 
L 986 2118 
L 986 2598 
L 1434 2598 
Q 1811 2598 2064 2707 
Q 2317 2816 2448 3011 
Q 2579 3206 2579 3462 
Q 2579 3795 2355 3977 
Q 2131 4160 1747 4160 
Q 1504 4160 1305 4112 
Q 1107 4064 937 3977 
Q 768 3891 595 3776 
L 314 4160 
Q 557 4352 918 4493 
Q 1280 4634 1741 4634 
Q 2458 4634 2806 4314 
Q 3155 3994 3155 3501 
z
" transform="scale(0.015625)"/>
       </defs>
       <use xlink:href="#NotoSans-Regular-33"/>
       <use xlink:href="#NotoSans-Regular-30" transform="translate(57.199997 0)"/>
       <use xlink:href="#NotoSans-Regular-30" transform="translate(114.399994 0)"/>
      </g>
     </g>
    </g>
    <g id="xtick_5">
     <g id="line2d_5">
      <path d="M 569.245227 363.36 
L 569.245227 40.64 
" clip-path="url(#p8ca5c2c74d)" style="fill: none; stroke: #f5f5f5; stroke-linecap: square"/>
     </g>
     <g id="text_5">
      <!-- 400 -->
      <g style="fill: #4d4d4d" transform="translate(548.652102 372.48) scale(0.12 -0.12)">
       <defs>
        <path id="NotoSans-Regular-34" d="M 3533 1037 
L 2867 1037 
L 2867 0 
L 2323 0 
L 2323 1037 
L 134 1037 
L 134 1517 
L 2285 4595 
L 2867 4595 
L 2867 1542 
L 3533 1542 
L 3533 1037 
z
M 2323 2982 
Q 2323 3149 2326 3286 
Q 2330 3424 2336 3545 
Q 2342 3667 2345 3779 
Q 2349 3891 2355 3994 
L 2330 3994 
Q 2278 3872 2201 3731 
Q 2125 3590 2054 3494 
L 685 1542 
L 2323 1542 
L 2323 2982 
z
" transform="scale(0.015625)"/>
       </defs>
       <use xlink:href="#NotoSans-Regular-34"/>
       <use xlink:href="#NotoSans-Regular-30" transform="translate(57.199997 0)"/>
       <use xlink:href="#NotoSans-Regular-30" transform="translate(114.399994 0)"/>
      </g>
     </g>
    </g>
    <g id="xtick_6">
     <g id="line2d_6">
      <path d="M 693.642955 363.36 
L 693.642955 40.64 
" clip-path="url(#p8ca5c2c74d)" style="fill: none; stroke: #f5f5f5; stroke-linecap: square"/>
     </g>
     <g id="text_6">
      <!-- 500 -->
      <g style="fill: #4d4d4d" transform="translate(673.04983 372.48) scale(0.12 -0.12)">
       <defs>
        <path id="NotoSans-Regular-35" d="M 1760 2803 
Q 2227 2803 2572 2643 
Q 2918 2483 3107 2185 
Q 3296 1888 3296 1459 
Q 3296 986 3091 643 
Q 2886 301 2505 118 
Q 2125 -64 1587 -64 
Q 1235 -64 924 0 
Q 614 64 403 186 
L 403 717 
Q 634 576 963 496 
Q 1293 416 1594 416 
Q 1933 416 2185 521 
Q 2438 627 2579 848 
Q 2720 1069 2720 1402 
Q 2720 1850 2445 2090 
Q 2170 2330 1574 2330 
Q 1395 2330 1164 2298 
Q 934 2266 794 2234 
L 512 2413 
L 685 4570 
L 2976 4570 
L 2976 4058 
L 1165 4058 
L 1056 2733 
Q 1165 2752 1350 2777 
Q 1536 2803 1760 2803 
z
" transform="scale(0.015625)"/>
       </defs>
       <use xlink:href="#NotoSans-Regular-35"/>
       <use xlink:href="#NotoSans-Regular-30" transform="translate(57.199997 0)"/>
       <use xlink:href="#NotoSans-Regular-30" transform="translate(114.399994 0)"/>
      </g>
     </g>
    </g>
    <g id="xtick_7">
     <g id="line2d_7">
      <path d="M 818.040682 363.36 
L 818.040682 40.64 
" clip-path="url(#p8ca5c2c74d)" style="fill: none; stroke: #f5f5f5; stroke-linecap: square"/>
     </g>
     <g id="text_7">
      <!-- 600 -->
      <g style="fill: #4d4d4d" transform="translate(797.447557 372.48) scale(0.12 -0.12)">
       <defs>
        <path id="NotoSans-Regular-36" d="M 352 1952 
Q 352 2349 406 2733 
Q 461 3117 595 3459 
Q 730 3802 966 4067 
Q 1203 4333 1564 4483 
Q 1926 4634 2445 4634 
Q 2579 4634 2742 4621 
Q 2906 4608 3008 4576 
L 3008 4096 
Q 2893 4134 2749 4153 
Q 2605 4173 2458 4173 
Q 2016 4173 1721 4025 
Q 1427 3878 1257 3622 
Q 1088 3366 1011 3033 
Q 934 2701 915 2323 
L 954 2323 
Q 1050 2477 1197 2598 
Q 1344 2720 1552 2790 
Q 1760 2861 2035 2861 
Q 2432 2861 2729 2697 
Q 3027 2534 3193 2224 
Q 3360 1914 3360 1472 
Q 3360 998 3181 652 
Q 3002 307 2678 121 
Q 2355 -64 1907 -64 
Q 1581 -64 1299 57 
Q 1018 179 803 428 
Q 589 678 470 1059 
Q 352 1440 352 1952 
z
M 1901 410 
Q 2304 410 2553 669 
Q 2803 928 2803 1472 
Q 2803 1907 2582 2163 
Q 2362 2419 1920 2419 
Q 1619 2419 1395 2294 
Q 1171 2170 1046 1978 
Q 922 1786 922 1581 
Q 922 1370 982 1165 
Q 1043 960 1168 787 
Q 1293 614 1475 512 
Q 1658 410 1901 410 
z
" transform="scale(0.015625)"/>
       </defs>
       <use xlink:href="#NotoSans-Regular-36"/>
       <use xlink:href="#NotoSans-Regular-30" transform="translate(57.199997 0)"/>
       <use xlink:href="#NotoSans-Regular-30" transform="translate(114.399994 0)"/>
      </g>
     </g>
    </g>
    <g id="xtick_8">
     <g id="line2d_8">
      <path d="M 133.853182 363.36 
L 133.853182 40.64 
" clip-path="url(#p8ca5c2c74d)" style="fill: none; stroke: #f5f5f5; stroke-width: 0.5; stroke-linecap: square"/>
     </g>
    </g>
    <g id="xtick_9">
     <g id="line2d_9">
      <path d="M 258.250909 363.36 
L 258.250909 40.64 
" clip-path="url(#p8ca5c2c74d)" style="fill: none; stroke: #f5f5f5; stroke-width: 0.5; stroke-linecap: square"/>
     </g>
    </g>
    <g id="xtick_10">
     <g id="line2d_10">
      <path d="M 382.648636 363.36 
L 382.648636 40.64 
" clip-path="url(#p8ca5c2c74d)" style="fill: none; stroke: #f5f5f5; stroke-width: 0.5; stroke-linecap: square"/>
     </g>
    </g>
    <g id="xtick_11">
     <g id="line2d_11">
      <path d="M 507.046364 363.36 
L 507.046364 40.64 
" clip-path="url(#p8ca5c2c74d)" style="fill: none; stroke: #f5f5f5; stroke-width: 0.5; stroke-linecap: square"/>
     </g>
    </g>
    <g id="xtick_12">
     <g id="line2d_12">
      <path d="M 631.444091 363.36 
L 631.444091 40.64 
" clip-path="url(#p8ca5c2c74d)" style="fill: none; stroke: #f5f5f5; stroke-width: 0.5; stroke-linecap: square"/>
     </g>
    </g>
    <g id="xtick_13">
     <g id="line2d_13">
      <path d="M 755.841818 363.36 
L 755.841818 40.64 
" clip-path="url(#p8ca5c2c74d)" style="fill: none; stroke: #f5f5f5; stroke-width: 0.5; stroke-linecap: square"/>
     </g>
    </g>
   </g>
   <g id="matplotlib.axis_2">
    <g id="ytick_1">
     <g id="line2d_14">
      <path d="M 34.335 344.376471 
L 855.36 344.376471 
" clip-path="url(#p8ca5c2c74d)" style="fill: none; stroke: #f5f5f5; stroke-linecap: square"/>
     </g>
     <g id="text_8">
      <!-- PUE -->
      <g style="fill: #4d4d4d" transform="translate(17.308125 347.796471) scale(0.09 -0.09)">
       <defs>
        <path id="NotoSans-Regular-50" d="M 1830 4570 
Q 2726 4570 3136 4218 
Q 3546 3866 3546 3226 
Q 3546 2944 3453 2685 
Q 3360 2426 3149 2221 
Q 2938 2016 2586 1897 
Q 2234 1779 1722 1779 
L 1197 1779 
L 1197 0 
L 621 0 
L 621 4570 
L 1830 4570 
z
M 1779 4077 
L 1197 4077 
L 1197 2272 
L 1658 2272 
Q 2093 2272 2381 2365 
Q 2669 2458 2809 2662 
Q 2950 2867 2950 3200 
Q 2950 3642 2668 3859 
Q 2387 4077 1779 4077 
z
" transform="scale(0.015625)"/>
        <path id="NotoSans-Regular-55" d="M 4096 1613 
Q 4096 1139 3904 758 
Q 3712 378 3318 157 
Q 2925 -64 2317 -64 
Q 1466 -64 1021 400 
Q 576 864 576 1626 
L 576 4570 
L 1152 4570 
L 1152 1606 
Q 1152 1050 1449 742 
Q 1747 435 2349 435 
Q 2765 435 3024 585 
Q 3283 736 3404 1001 
Q 3526 1267 3526 1613 
L 3526 4570 
L 4096 4570 
L 4096 1613 
z
" transform="scale(0.015625)"/>
        <path id="NotoSans-Regular-45" d="M 3174 0 
L 621 0 
L 621 4570 
L 3174 4570 
L 3174 4064 
L 1197 4064 
L 1197 2637 
L 3059 2637 
L 3059 2138 
L 1197 2138 
L 1197 506 
L 3174 506 
L 3174 0 
z
" transform="scale(0.015625)"/>
       </defs>
       <use xlink:href="#NotoSans-Regular-50"/>
       <use xlink:href="#NotoSans-Regular-55" transform="translate(60.499985 0)"/>
       <use xlink:href="#NotoSans-Regular-45" transform="translate(133.599976 0)"/>
      </g>
     </g>
    </g>
    <g id="ytick_2">
     <g id="line2d_15">
      <path d="M 34.335 312.737255 
L 855.36 312.737255 
" clip-path="url(#p8ca5c2c74d)" style="fill: none; stroke: #f5f5f5; stroke-linecap: square"/>
     </g>
     <g id="text_9">
      <!-- VER -->
      <g style="fill: #4d4d4d" transform="translate(18.333281 316.157255) scale(0.09 -0.09)">
       <defs>
        <path id="NotoSans-Regular-56" d="M 3840 4570 
L 2208 0 
L 1632 0 
L 0 4570 
L 602 4570 
L 1632 1638 
Q 1702 1453 1753 1280 
Q 1805 1107 1846 950 
Q 1888 794 1920 640 
Q 1952 794 1993 954 
Q 2035 1114 2089 1286 
Q 2144 1459 2208 1651 
L 3232 4570 
L 3840 4570 
z
" transform="scale(0.015625)"/>
        <path id="NotoSans-Regular-52" d="M 1882 4570 
Q 2451 4570 2819 4426 
Q 3187 4282 3366 3994 
Q 3546 3706 3546 3270 
Q 3546 2906 3411 2662 
Q 3277 2419 3069 2275 
Q 2861 2131 2630 2048 
L 3885 0 
L 3213 0 
L 2106 1888 
L 1197 1888 
L 1197 0 
L 621 0 
L 621 4570 
L 1882 4570 
z
M 1850 4070 
L 1197 4070 
L 1197 2374 
L 1882 2374 
Q 2438 2374 2694 2595 
Q 2950 2816 2950 3245 
Q 2950 3546 2832 3725 
Q 2714 3904 2470 3987 
Q 2227 4070 1850 4070 
z
" transform="scale(0.015625)"/>
       </defs>
       <use xlink:href="#NotoSans-Regular-56"/>
       <use xlink:href="#NotoSans-Regular-45" transform="translate(59.999985 0)"/>
       <use xlink:href="#NotoSans-Regular-52" transform="translate(115.599976 0)"/>
      </g>
     </g>
    </g>
    <g id="ytick_3">
     <g id="line2d_16">
      <path d="M 34.335 281.098039 
L 855.36 281.098039 
" clip-path="url(#p8ca5c2c74d)" style="fill: none; stroke: #f5f5f5; stroke-linecap: square"/>
     </g>
     <g id="text_10">
      <!-- GTO -->
      <g style="fill: #4d4d4d" transform="translate(15.751406 284.518039) scale(0.09 -0.09)">
       <defs>
        <path id="NotoSans-Regular-47" d="M 2605 2413 
L 4186 2413 
L 4186 173 
Q 3814 51 3436 -6 
Q 3059 -64 2579 -64 
Q 1869 -64 1382 221 
Q 896 506 643 1034 
Q 390 1562 390 2285 
Q 390 3002 672 3526 
Q 954 4051 1482 4342 
Q 2010 4634 2758 4634 
Q 3142 4634 3484 4563 
Q 3827 4493 4122 4365 
L 3904 3866 
Q 3661 3974 3357 4051 
Q 3053 4128 2726 4128 
Q 2182 4128 1792 3904 
Q 1402 3680 1197 3267 
Q 992 2854 992 2285 
Q 992 1741 1168 1321 
Q 1344 902 1721 668 
Q 2099 435 2714 435 
Q 3014 435 3225 467 
Q 3437 499 3610 544 
L 3610 1901 
L 2605 1901 
L 2605 2413 
z
" transform="scale(0.015625)"/>
        <path id="NotoSans-Regular-54" d="M 2067 0 
L 1491 0 
L 1491 4064 
L 64 4064 
L 64 4570 
L 3488 4570 
L 3488 4064 
L 2067 4064 
L 2067 0 
z
" transform="scale(0.015625)"/>
        <path id="NotoSans-Regular-4f" d="M 4608 2291 
Q 4608 1760 4473 1328 
Q 4339 896 4073 582 
Q 3808 269 3414 102 
Q 3021 -64 2502 -64 
Q 1965 -64 1568 105 
Q 1171 275 908 585 
Q 646 896 518 1331 
Q 390 1766 390 2298 
Q 390 3002 620 3526 
Q 851 4051 1321 4345 
Q 1792 4640 2509 4640 
Q 3194 4640 3661 4349 
Q 4128 4058 4368 3530 
Q 4608 3002 4608 2291 
z
M 998 2291 
Q 998 1715 1158 1299 
Q 1318 883 1654 659 
Q 1990 435 2502 435 
Q 3021 435 3350 659 
Q 3680 883 3840 1299 
Q 4000 1715 4000 2291 
Q 4000 3155 3641 3644 
Q 3283 4134 2509 4134 
Q 1990 4134 1654 3913 
Q 1318 3693 1158 3280 
Q 998 2867 998 2291 
z
" transform="scale(0.015625)"/>
       </defs>
       <use xlink:href="#NotoSans-Regular-47"/>
       <use xlink:href="#NotoSans-Regular-54" transform="translate(72.799988 0)"/>
       <use xlink:href="#NotoSans-Regular-4f" transform="translate(128.399979 0)"/>
      </g>
     </g>
    </g>
    <g id="ytick_4">
     <g id="line2d_17">
      <path d="M 34.335 249.458824 
L 855.36 249.458824 
" clip-path="url(#p8ca5c2c74d)" style="fill: none; stroke: #f5f5f5; stroke-linecap: square"/>
     </g>
     <g id="text_11">
      <!-- SON -->
      <g style="fill: #4d4d4d" transform="translate(15.525 252.878824) scale(0.09 -0.09)">
       <defs>
        <path id="NotoSans-Regular-53" d="M 3213 1222 
Q 3213 813 3014 528 
Q 2816 243 2448 89 
Q 2080 -64 1581 -64 
Q 1325 -64 1091 -38 
Q 858 -13 666 35 
Q 474 83 326 154 
L 326 704 
Q 557 602 899 518 
Q 1242 435 1606 435 
Q 1946 435 2176 524 
Q 2406 614 2521 780 
Q 2637 947 2637 1171 
Q 2637 1395 2541 1548 
Q 2445 1702 2211 1833 
Q 1978 1965 1562 2112 
Q 1267 2221 1046 2345 
Q 826 2470 678 2630 
Q 531 2790 457 2995 
Q 384 3200 384 3469 
Q 384 3834 569 4093 
Q 755 4352 1084 4493 
Q 1414 4634 1843 4634 
Q 2221 4634 2534 4563 
Q 2848 4493 3104 4378 
L 2925 3885 
Q 2688 3987 2409 4057 
Q 2131 4128 1830 4128 
Q 1542 4128 1350 4045 
Q 1158 3962 1062 3811 
Q 966 3661 966 3462 
Q 966 3232 1062 3078 
Q 1158 2925 1376 2803 
Q 1594 2682 1965 2541 
Q 2368 2394 2646 2224 
Q 2925 2054 3069 1817 
Q 3213 1581 3213 1222 
z
" transform="scale(0.015625)"/>
        <path id="NotoSans-Regular-4e" d="M 4243 0 
L 3571 0 
L 1126 3795 
L 1101 3795 
Q 1114 3648 1123 3446 
Q 1133 3245 1142 3017 
Q 1152 2790 1152 2554 
L 1152 0 
L 621 0 
L 621 4570 
L 1286 4570 
L 3725 787 
L 3750 787 
Q 3744 890 3734 1094 
Q 3725 1299 3715 1542 
Q 3706 1786 3706 1990 
L 3706 4570 
L 4243 4570 
L 4243 0 
z
" transform="scale(0.015625)"/>
       </defs>
       <use xlink:href="#NotoSans-Regular-53"/>
       <use xlink:href="#NotoSans-Regular-4f" transform="translate(54.899994 0)"/>
       <use xlink:href="#NotoSans-Regular-4e" transform="translate(132.999985 0)"/>
      </g>
     </g>
    </g>
    <g id="ytick_5">
     <g id="line2d_18">
      <path d="M 34.335 217.819608 
L 855.36 217.819608 
" clip-path="url(#p8ca5c2c74d)" style="fill: none; stroke: #f5f5f5; stroke-linecap: square"/>
     </g>
     <g id="text_12">
      <!-- NL -->
      <g style="fill: #4d4d4d" transform="translate(22.778438 221.239608) scale(0.09 -0.09)">
       <defs>
        <path id="NotoSans-Regular-4c" d="M 621 0 
L 621 4570 
L 1197 4570 
L 1197 512 
L 3194 512 
L 3194 0 
L 621 0 
z
" transform="scale(0.015625)"/>
       </defs>
       <use xlink:href="#NotoSans-Regular-4e"/>
       <use xlink:href="#NotoSans-Regular-4c" transform="translate(75.999985 0)"/>
      </g>
     </g>
    </g>
    <g id="ytick_6">
     <g id="line2d_19">
      <path d="M 34.335 186.180392 
L 855.36 186.180392 
" clip-path="url(#p8ca5c2c74d)" style="fill: none; stroke: #f5f5f5; stroke-linecap: square"/>
     </g>
     <g id="text_13">
      <!-- JAL -->
      <g style="fill: #4d4d4d" transform="translate(21.410156 189.600392) scale(0.09 -0.09)">
       <defs>
        <path id="NotoSans-Regular-4a" d="M -26 -1216 
Q -179 -1216 -294 -1193 
Q -410 -1171 -499 -1133 
L -499 -646 
Q -397 -672 -281 -691 
Q -166 -710 -38 -710 
Q 122 -710 266 -646 
Q 410 -582 499 -422 
Q 589 -262 589 26 
L 589 4570 
L 1165 4570 
L 1165 70 
Q 1165 -371 1017 -656 
Q 870 -941 601 -1078 
Q 333 -1216 -26 -1216 
z
" transform="scale(0.015625)"/>
        <path id="NotoSans-Regular-41" d="M 3488 0 
L 2938 1414 
L 1126 1414 
L 582 0 
L 0 0 
L 1786 4589 
L 2304 4589 
L 4083 0 
L 3488 0 
z
M 2253 3309 
Q 2234 3360 2189 3494 
Q 2144 3629 2102 3773 
Q 2061 3917 2035 3994 
Q 2003 3866 1968 3734 
Q 1933 3603 1897 3494 
Q 1862 3386 1837 3309 
L 1318 1926 
L 2765 1926 
L 2253 3309 
z
" transform="scale(0.015625)"/>
       </defs>
       <use xlink:href="#NotoSans-Regular-4a"/>
       <use xlink:href="#NotoSans-Regular-41" transform="translate(27.299988 0)"/>
       <use xlink:href="#NotoSans-Regular-4c" transform="translate(91.199982 0)"/>
      </g>
     </g>
    </g>
    <g id="ytick_7">
     <g id="line2d_20">
      <path d="M 34.335 154.541176 
L 855.36 154.541176 
" clip-path="url(#p8ca5c2c74d)" style="fill: none; stroke: #f5f5f5; stroke-linecap: square"/>
     </g>
     <g id="text_14">
      <!-- CHIH -->
      <g style="fill: #4d4d4d" transform="translate(12.258281 157.961176) scale(0.09 -0.09)">
       <defs>
        <path id="NotoSans-Regular-43" d="M 2579 4128 
Q 2214 4128 1920 4003 
Q 1626 3878 1421 3638 
Q 1216 3398 1107 3056 
Q 998 2714 998 2285 
Q 998 1722 1174 1306 
Q 1350 890 1699 666 
Q 2048 442 2573 442 
Q 2874 442 3142 493 
Q 3411 544 3667 621 
L 3667 122 
Q 3411 26 3139 -19 
Q 2867 -64 2490 -64 
Q 1792 -64 1325 224 
Q 858 512 624 1043 
Q 390 1574 390 2291 
Q 390 2810 534 3238 
Q 678 3667 956 3980 
Q 1235 4294 1644 4464 
Q 2054 4634 2586 4634 
Q 2938 4634 3264 4563 
Q 3590 4493 3846 4365 
L 3616 3878 
Q 3405 3974 3145 4051 
Q 2886 4128 2579 4128 
z
" transform="scale(0.015625)"/>
        <path id="NotoSans-Regular-48" d="M 4115 0 
L 3539 0 
L 3539 2131 
L 1197 2131 
L 1197 0 
L 621 0 
L 621 4570 
L 1197 4570 
L 1197 2637 
L 3539 2637 
L 3539 4570 
L 4115 4570 
L 4115 0 
z
" transform="scale(0.015625)"/>
        <path id="NotoSans-Regular-49" d="M 1907 0 
L 256 0 
L 256 333 
L 794 454 
L 794 4109 
L 256 4237 
L 256 4570 
L 1907 4570 
L 1907 4237 
L 1370 4109 
L 1370 454 
L 1907 333 
L 1907 0 
z
" transform="scale(0.015625)"/>
       </defs>
       <use xlink:href="#NotoSans-Regular-43"/>
       <use xlink:href="#NotoSans-Regular-48" transform="translate(63.199997 0)"/>
       <use xlink:href="#NotoSans-Regular-49" transform="translate(137.299988 0)"/>
       <use xlink:href="#NotoSans-Regular-48" transform="translate(171.199982 0)"/>
      </g>
     </g>
    </g>
    <g id="ytick_8">
     <g id="line2d_21">
      <path d="M 34.335 122.901961 
L 855.36 122.901961 
" clip-path="url(#p8ca5c2c74d)" style="fill: none; stroke: #f5f5f5; stroke-linecap: square"/>
     </g>
     <g id="text_15">
      <!-- MEX -->
      <g style="fill: #4d4d4d" transform="translate(15.894844 126.321961) scale(0.09 -0.09)">
       <defs>
        <path id="NotoSans-Regular-4d" d="M 2637 0 
L 1133 4006 
L 1107 4006 
Q 1120 3878 1129 3680 
Q 1139 3482 1145 3248 
Q 1152 3014 1152 2771 
L 1152 0 
L 621 0 
L 621 4570 
L 1472 4570 
L 2880 826 
L 2906 826 
L 4339 4570 
L 5184 4570 
L 5184 0 
L 4614 0 
L 4614 2810 
Q 4614 3034 4620 3254 
Q 4627 3475 4640 3670 
Q 4653 3866 4659 4000 
L 4634 4000 
L 3110 0 
L 2637 0 
z
" transform="scale(0.015625)"/>
        <path id="NotoSans-Regular-58" d="M 3725 0 
L 3072 0 
L 1862 1984 
L 634 0 
L 26 0 
L 1542 2381 
L 122 4570 
L 762 4570 
L 1882 2778 
L 3008 4570 
L 3616 4570 
L 2202 2394 
L 3725 0 
z
" transform="scale(0.015625)"/>
       </defs>
       <use xlink:href="#NotoSans-Regular-4d"/>
       <use xlink:href="#NotoSans-Regular-45" transform="translate(90.699982 0)"/>
       <use xlink:href="#NotoSans-Regular-58" transform="translate(146.299973 0)"/>
      </g>
     </g>
    </g>
    <g id="ytick_9">
     <g id="line2d_22">
      <path d="M 34.335 91.262745 
L 855.36 91.262745 
" clip-path="url(#p8ca5c2c74d)" style="fill: none; stroke: #f5f5f5; stroke-linecap: square"/>
     </g>
     <g id="text_16">
      <!-- BC -->
      <g style="fill: #4d4d4d" transform="translate(22.796719 94.682745) scale(0.09 -0.09)">
       <defs>
        <path id="NotoSans-Regular-42" d="M 1926 4570 
Q 2784 4570 3222 4317 
Q 3661 4064 3661 3437 
Q 3661 3168 3561 2960 
Q 3462 2752 3267 2614 
Q 3072 2477 2790 2426 
L 2790 2394 
Q 3078 2349 3312 2227 
Q 3546 2106 3680 1882 
Q 3814 1658 3814 1299 
Q 3814 883 3622 592 
Q 3430 301 3075 150 
Q 2720 0 2227 0 
L 621 0 
L 621 4570 
L 1926 4570 
z
M 2042 2624 
Q 2630 2624 2848 2813 
Q 3066 3002 3066 3373 
Q 3066 3750 2800 3913 
Q 2534 4077 1952 4077 
L 1197 4077 
L 1197 2624 
L 2042 2624 
z
M 1197 2144 
L 1197 486 
L 2118 486 
Q 2726 486 2963 723 
Q 3200 960 3200 1344 
Q 3200 1587 3094 1766 
Q 2989 1946 2742 2045 
Q 2496 2144 2074 2144 
L 1197 2144 
z
" transform="scale(0.015625)"/>
       </defs>
       <use xlink:href="#NotoSans-Regular-42"/>
       <use xlink:href="#NotoSans-Regular-43" transform="translate(64.999985 0)"/>
      </g>
     </g>
    </g>
    <g id="ytick_10">
     <g id="line2d_23">
      <path d="M 34.335 59.623529 
L 855.36 59.623529 
" clip-path="url(#p8ca5c2c74d)" style="fill: none; stroke: #f5f5f5; stroke-linecap: square"/>
     </g>
     <g id="text_17">
      <!-- CDMX -->
      <g style="fill: #4d4d4d" transform="translate(8.64 63.043529) scale(0.09 -0.09)">
       <defs>
        <path id="NotoSans-Regular-44" d="M 4282 2330 
Q 4282 1562 3997 1043 
Q 3712 525 3181 262 
Q 2650 0 1894 0 
L 621 0 
L 621 4570 
L 2029 4570 
Q 2720 4570 3225 4314 
Q 3731 4058 4006 3562 
Q 4282 3066 4282 2330 
z
M 3674 2310 
Q 3674 2918 3472 3308 
Q 3270 3699 2883 3888 
Q 2496 4077 1946 4077 
L 1197 4077 
L 1197 493 
L 1818 493 
Q 2746 493 3210 950 
Q 3674 1408 3674 2310 
z
" transform="scale(0.015625)"/>
       </defs>
       <use xlink:href="#NotoSans-Regular-43"/>
       <use xlink:href="#NotoSans-Regular-44" transform="translate(63.199997 0)"/>
       <use xlink:href="#NotoSans-Regular-4d" transform="translate(136.199982 0)"/>
       <use xlink:href="#NotoSans-Regular-58" transform="translate(226.899963 0)"/>
      </g>
     </g>
    </g>
   </g>
   <g id="LineCollection_1">
    <path d="M 371.232654 344.376471 
L 71.654318 344.376471 
" clip-path="url(#p8ca5c2c74d)" style="fill: none; stroke: #bc955c; stroke-width: 2.835926"/>
   </g>
   <g id="LineCollection_2">
    <path d="M 386.682945 312.737255 
L 71.654318 312.737255 
" clip-path="url(#p8ca5c2c74d)" style="fill: none; stroke: #bc955c; stroke-width: 2.835926"/>
   </g>
   <g id="LineCollection_3">
    <path d="M 388.800625 281.098039 
L 71.654318 281.098039 
" clip-path="url(#p8ca5c2c74d)" style="fill: none; stroke: #bc955c; stroke-width: 2.835926"/>
   </g>
   <g id="LineCollection_4">
    <path d="M 391.694556 249.458824 
L 71.654318 249.458824 
" clip-path="url(#p8ca5c2c74d)" style="fill: none; stroke: #bc955c; stroke-width: 2.835926"/>
   </g>
   <g id="LineCollection_5">
    <path d="M 393.280259 217.819608 
L 71.654318 217.819608 
" clip-path="url(#p8ca5c2c74d)" style="fill: none; stroke: #bc955c; stroke-width: 2.835926"/>
   </g>
   <g id="LineCollection_6">
    <path d="M 394.04773 186.180392 
L 71.654318 186.180392 
" clip-path="url(#p8ca5c2c74d)" style="fill: none; stroke: #bc955c; stroke-width: 2.835926"/>
   </g>
   <g id="LineCollection_7">
    <path d="M 413.062947 154.541176 
L 71.654318 154.541176 
" clip-path="url(#p8ca5c2c74d)" style="fill: none; stroke: #bc955c; stroke-width: 2.835926"/>
   </g>
   <g id="LineCollection_8">
    <path d="M 414.498109 122.901961 
L 71.654318 122.901961 
" clip-path="url(#p8ca5c2c74d)" style="fill: none; stroke: #bc955c; stroke-width: 2.835926"/>
   </g>
   <g id="LineCollection_9">
    <path d="M 420.032507 91.262745 
L 71.654318 91.262745 
" clip-path="url(#p8ca5c2c74d)" style="fill: none; stroke: #bc955c; stroke-width: 2.835926"/>
   </g>
   <g id="LineCollection_10">
    <path d="M 778.645622 59.623529 
L 71.654318 59.623529 
" clip-path="url(#p8ca5c2c74d)" style="fill: none; stroke: #bc955c; stroke-width: 2.835926"/>
   </g>
   <g id="PathCollection_1">
    <path d="M 778.645622 65.384004 
C 780.173318 65.384004 781.638649 64.777044 782.718893 63.6968 
C 783.799137 62.616556 784.406097 61.151225 784.406097 59.623529 
C 784.406097 58.095834 783.799137 56.630503 782.718893 55.550258 
C 781.638649 54.470014 780.173318 53.863054 778.645622 53.863054 
C 777.117926 53.863054 775.652595 54.470014 774.572351 55.550258 
C 773.492107 56.630503 772.885147 58.095834 772.885147 59.623529 
C 772.885147 61.151225 773.492107 62.616556 774.572351 63.6968 
C 775.652595 64.777044 777.117926 65.384004 778.645622 65.384004 
z
" clip-path="url(#p8ca5c2c74d)" style="fill: #9f2241; stroke: #bc955c; stroke-width: 0.886227"/>
    <path d="M 420.032507 97.02322 
C 421.560202 97.02322 423.025533 96.41626 424.105777 95.336016 
C 425.186022 94.255772 425.792982 92.790441 425.792982 91.262745 
C 425.792982 89.735049 425.186022 88.269718 424.105777 87.189474 
C 423.025533 86.10923 421.560202 85.50227 420.032507 85.50227 
C 418.504811 85.50227 417.03948 86.10923 415.959236 87.189474 
C 414.878992 88.269718 414.272032 89.735049 414.272032 91.262745 
C 414.272032 92.790441 414.878992 94.255772 415.959236 95.336016 
C 417.03948 96.41626 418.504811 97.02322 420.032507 97.02322 
z
" clip-path="url(#p8ca5c2c74d)" style="fill: #9f2241; stroke: #bc955c; stroke-width: 0.886227"/>
    <path d="M 414.498109 128.662436 
C 416.025804 128.662436 417.491135 128.055476 418.57138 126.975232 
C 419.651624 125.894988 420.258584 124.429657 420.258584 122.901961 
C 420.258584 121.374265 419.651624 119.908934 418.57138 118.82869 
C 417.491135 117.748446 416.025804 117.141486 414.498109 117.141486 
C 412.970413 117.141486 411.505082 117.748446 410.424838 118.82869 
C 409.344594 119.908934 408.737634 121.374265 408.737634 122.901961 
C 408.737634 124.429657 409.344594 125.894988 410.424838 126.975232 
C 411.505082 128.055476 412.970413 128.662436 414.498109 128.662436 
z
" clip-path="url(#p8ca5c2c74d)" style="fill: #9f2241; stroke: #bc955c; stroke-width: 0.886227"/>
    <path d="M 413.062947 160.301651 
C 414.590643 160.301651 416.055974 159.694691 417.136218 158.614447 
C 418.216462 157.534203 418.823422 156.068872 418.823422 154.541176 
C 418.823422 153.013481 418.216462 151.54815 417.136218 150.467906 
C 416.055974 149.387661 414.590643 148.780701 413.062947 148.780701 
C 411.535251 148.780701 410.06992 149.387661 408.989676 150.467906 
C 407.909432 151.54815 407.302472 153.013481 407.302472 154.541176 
C 407.302472 156.068872 407.909432 157.534203 408.989676 158.614447 
C 410.06992 159.694691 411.535251 160.301651 413.062947 160.301651 
z
" clip-path="url(#p8ca5c2c74d)" style="fill: #9f2241; stroke: #bc955c; stroke-width: 0.886227"/>
    <path d="M 394.04773 191.940867 
C 395.575425 191.940867 397.040756 191.333907 398.121 190.253663 
C 399.201245 189.173419 399.808205 187.708088 399.808205 186.180392 
C 399.808205 184.652696 399.201245 183.187365 398.121 182.107121 
C 397.040756 181.026877 395.575425 180.419917 394.04773 180.419917 
C 392.520034 180.419917 391.054703 181.026877 389.974459 182.107121 
C 388.894215 183.187365 388.287255 184.652696 388.287255 186.180392 
C 388.287255 187.708088 388.894215 189.173419 389.974459 190.253663 
C 391.054703 191.333907 392.520034 191.940867 394.04773 191.940867 
z
" clip-path="url(#p8ca5c2c74d)" style="fill: #9f2241; stroke: #bc955c; stroke-width: 0.886227"/>
    <path d="M 393.280259 223.580083 
C 394.807955 223.580083 396.273286 222.973123 397.35353 221.892879 
C 398.433774 220.812635 399.040734 219.347304 399.040734 217.819608 
C 399.040734 216.291912 398.433774 214.826581 397.35353 213.746337 
C 396.273286 212.666093 394.807955 212.059133 393.280259 212.059133 
C 391.752564 212.059133 390.287233 212.666093 389.206988 213.746337 
C 388.126744 214.826581 387.519784 216.291912 387.519784 217.819608 
C 387.519784 219.347304 388.126744 220.812635 389.206988 221.892879 
C 390.287233 222.973123 391.752564 223.580083 393.280259 223.580083 
z
" clip-path="url(#p8ca5c2c74d)" style="fill: #9f2241; stroke: #bc955c; stroke-width: 0.886227"/>
    <path d="M 391.694556 255.219299 
C 393.222252 255.219299 394.687583 254.612339 395.767827 253.532094 
C 396.848071 252.45185 397.455031 250.986519 397.455031 249.458824 
C 397.455031 247.931128 396.848071 246.465797 395.767827 245.385553 
C 394.687583 244.305309 393.222252 243.698349 391.694556 243.698349 
C 390.16686 243.698349 388.701529 244.305309 387.621285 245.385553 
C 386.541041 246.465797 385.934081 247.931128 385.934081 249.458824 
C 385.934081 250.986519 386.541041 252.45185 387.621285 253.532094 
C 388.701529 254.612339 390.16686 255.219299 391.694556 255.219299 
z
" clip-path="url(#p8ca5c2c74d)" style="fill: #9f2241; stroke: #bc955c; stroke-width: 0.886227"/>
    <path d="M 388.800625 286.858514 
C 390.328321 286.858514 391.793652 286.251554 392.873896 285.17131 
C 393.95414 284.091066 394.5611 282.625735 394.5611 281.098039 
C 394.5611 279.570343 393.95414 278.105012 392.873896 277.024768 
C 391.793652 275.944524 390.328321 275.337564 388.800625 275.337564 
C 387.27293 275.337564 385.807599 275.944524 384.727355 277.024768 
C 383.64711 278.105012 383.04015 279.570343 383.04015 281.098039 
C 383.04015 282.625735 383.64711 284.091066 384.727355 285.17131 
C 385.807599 286.251554 387.27293 286.858514 388.800625 286.858514 
z
" clip-path="url(#p8ca5c2c74d)" style="fill: #9f2241; stroke: #bc955c; stroke-width: 0.886227"/>
    <path d="M 386.682945 318.49773 
C 388.210641 318.49773 389.675972 317.89077 390.756216 316.810526 
C 391.83646 315.730282 392.44342 314.264951 392.44342 312.737255 
C 392.44342 311.209559 391.83646 309.744228 390.756216 308.663984 
C 389.675972 307.58374 388.210641 306.97678 386.682945 306.97678 
C 385.15525 306.97678 383.689919 307.58374 382.609675 308.663984 
C 381.52943 309.744228 380.92247 311.209559 380.92247 312.737255 
C 380.92247 314.264951 381.52943 315.730282 382.609675 316.810526 
C 383.689919 317.89077 385.15525 318.49773 386.682945 318.49773 
z
" clip-path="url(#p8ca5c2c74d)" style="fill: #9f2241; stroke: #bc955c; stroke-width: 0.886227"/>
    <path d="M 371.232654 350.136946 
C 372.76035 350.136946 374.225681 349.529986 375.305925 348.449742 
C 376.386169 347.369497 376.993129 345.904166 376.993129 344.376471 
C 376.993129 342.848775 376.386169 341.383444 375.305925 340.3032 
C 374.225681 339.222956 372.76035 338.615996 371.232654 338.615996 
C 369.704958 338.615996 368.239627 339.222956 367.159383 340.3032 
C 366.079139 341.383444 365.472179 342.848775 365.472179 344.376471 
C 365.472179 345.904166 366.079139 347.369497 367.159383 348.449742 
C 368.239627 349.529986 369.704958 350.136946 371.232654 350.136946 
z
" clip-path="url(#p8ca5c2c74d)" style="fill: #9f2241; stroke: #bc955c; stroke-width: 0.886227"/>
   </g>
  </g>
  <g id="text_18">
   <!-- Gasto por Entidad Federativa -->
   <g style="fill: #691c32" transform="translate(34.335 25.36) scale(0.22 -0.22)">
    <defs>
     <path id="NotoSans-Bold-47" d="M 2310 2566 
L 4122 2566 
L 4122 198 
Q 3763 77 3376 6 
Q 2989 -64 2496 -64 
Q 1818 -64 1341 205 
Q 864 474 617 998 
Q 371 1523 371 2291 
Q 371 3008 649 3533 
Q 928 4058 1459 4346 
Q 1990 4634 2758 4634 
Q 3123 4634 3475 4557 
Q 3827 4480 4115 4352 
L 3795 3578 
Q 3584 3686 3315 3756 
Q 3046 3827 2752 3827 
Q 2330 3827 2019 3635 
Q 1709 3443 1539 3094 
Q 1370 2746 1370 2272 
Q 1370 1824 1491 1478 
Q 1613 1133 1875 937 
Q 2138 742 2560 742 
Q 2765 742 2909 761 
Q 3053 781 3174 806 
L 3174 1760 
L 2310 1760 
L 2310 2566 
z
" transform="scale(0.015625)"/>
     <path id="NotoSans-Bold-61" d="M 1933 3565 
Q 2637 3565 3011 3261 
Q 3386 2957 3386 2330 
L 3386 0 
L 2720 0 
L 2534 474 
L 2509 474 
Q 2362 288 2205 166 
Q 2048 45 1846 -9 
Q 1645 -64 1350 -64 
Q 1043 -64 796 54 
Q 550 173 409 419 
Q 269 666 269 1043 
Q 269 1600 659 1865 
Q 1050 2131 1830 2157 
L 2438 2176 
L 2438 2330 
Q 2438 2605 2294 2733 
Q 2150 2861 1894 2861 
Q 1638 2861 1395 2787 
Q 1152 2714 909 2605 
L 595 3251 
Q 877 3398 1219 3481 
Q 1562 3565 1933 3565 
z
M 2067 1606 
Q 1606 1594 1427 1440 
Q 1248 1286 1248 1037 
Q 1248 819 1376 726 
Q 1504 634 1709 634 
Q 2016 634 2227 816 
Q 2438 998 2438 1331 
L 2438 1619 
L 2067 1606 
z
" transform="scale(0.015625)"/>
     <path id="NotoSans-Bold-73" d="M 2938 1037 
Q 2938 685 2771 438 
Q 2605 192 2272 64 
Q 1939 -64 1446 -64 
Q 1082 -64 819 -16 
Q 557 32 294 141 
L 294 928 
Q 576 800 902 717 
Q 1229 634 1478 634 
Q 1760 634 1878 717 
Q 1997 800 1997 934 
Q 1997 1024 1949 1094 
Q 1901 1165 1741 1254 
Q 1581 1344 1242 1485 
Q 915 1626 704 1763 
Q 493 1901 390 2096 
Q 288 2291 288 2586 
Q 288 3072 665 3315 
Q 1043 3558 1670 3558 
Q 1997 3558 2291 3494 
Q 2586 3430 2899 3283 
L 2611 2598 
Q 2355 2707 2124 2780 
Q 1894 2854 1658 2854 
Q 1446 2854 1340 2796 
Q 1235 2739 1235 2624 
Q 1235 2541 1289 2473 
Q 1344 2406 1501 2329 
Q 1658 2253 1965 2125 
Q 2266 2003 2483 1872 
Q 2701 1741 2819 1545 
Q 2938 1350 2938 1037 
z
" transform="scale(0.015625)"/>
     <path id="NotoSans-Bold-74" d="M 1971 698 
Q 2131 698 2278 730 
Q 2426 762 2573 806 
L 2573 96 
Q 2419 32 2192 -16 
Q 1965 -64 1696 -64 
Q 1382 -64 1136 38 
Q 890 141 746 393 
Q 602 646 602 1094 
L 602 2778 
L 147 2778 
L 147 3181 
L 672 3501 
L 947 4237 
L 1555 4237 
L 1555 3494 
L 2534 3494 
L 2534 2778 
L 1555 2778 
L 1555 1094 
Q 1555 896 1670 797 
Q 1786 698 1971 698 
z
" transform="scale(0.015625)"/>
     <path id="NotoSans-Bold-6f" d="M 3674 1754 
Q 3674 1318 3555 979 
Q 3437 640 3216 406 
Q 2995 173 2681 54 
Q 2368 -64 1971 -64 
Q 1606 -64 1296 54 
Q 986 173 762 406 
Q 538 640 413 979 
Q 288 1318 288 1754 
Q 288 2336 493 2736 
Q 698 3136 1082 3347 
Q 1466 3558 1990 3558 
Q 2483 3558 2860 3347 
Q 3238 3136 3456 2736 
Q 3674 2336 3674 1754 
z
M 1261 1754 
Q 1261 1408 1334 1174 
Q 1408 941 1568 822 
Q 1728 704 1984 704 
Q 2240 704 2397 822 
Q 2554 941 2627 1174 
Q 2701 1408 2701 1754 
Q 2701 2099 2627 2329 
Q 2554 2560 2394 2675 
Q 2234 2790 1978 2790 
Q 1600 2790 1430 2531 
Q 1261 2272 1261 1754 
z
" transform="scale(0.015625)"/>
     <path id="NotoSans-Bold-20" transform="scale(0.015625)"/>
     <path id="NotoSans-Bold-70" d="M 2445 3558 
Q 3034 3558 3398 3100 
Q 3763 2643 3763 1754 
Q 3763 1158 3590 752 
Q 3418 346 3117 141 
Q 2816 -64 2419 -64 
Q 2170 -64 1987 0 
Q 1805 64 1677 166 
Q 1549 269 1453 384 
L 1402 384 
Q 1427 262 1440 131 
Q 1453 0 1453 -128 
L 1453 -1536 
L 499 -1536 
L 499 3494 
L 1274 3494 
L 1408 3040 
L 1453 3040 
Q 1549 3181 1683 3299 
Q 1818 3418 2006 3488 
Q 2195 3558 2445 3558 
z
M 2138 2797 
Q 1888 2797 1741 2694 
Q 1594 2592 1526 2384 
Q 1459 2176 1453 1862 
L 1453 1760 
Q 1453 1421 1517 1187 
Q 1581 954 1734 832 
Q 1888 710 2150 710 
Q 2368 710 2509 832 
Q 2650 954 2720 1190 
Q 2790 1427 2790 1766 
Q 2790 2278 2633 2537 
Q 2477 2797 2138 2797 
z
" transform="scale(0.015625)"/>
     <path id="NotoSans-Bold-72" d="M 2451 3558 
Q 2522 3558 2618 3552 
Q 2714 3546 2771 3533 
L 2701 2637 
Q 2656 2650 2569 2659 
Q 2483 2669 2419 2669 
Q 2234 2669 2061 2621 
Q 1888 2573 1750 2470 
Q 1613 2368 1533 2198 
Q 1453 2029 1453 1779 
L 1453 0 
L 499 0 
L 499 3494 
L 1222 3494 
L 1363 2906 
L 1408 2906 
Q 1510 3085 1664 3232 
Q 1818 3379 2019 3468 
Q 2221 3558 2451 3558 
z
" transform="scale(0.015625)"/>
     <path id="NotoSans-Bold-45" d="M 3206 0 
L 576 0 
L 576 4570 
L 3206 4570 
L 3206 3776 
L 1542 3776 
L 1542 2771 
L 3091 2771 
L 3091 1978 
L 1542 1978 
L 1542 800 
L 3206 800 
L 3206 0 
z
" transform="scale(0.015625)"/>
     <path id="NotoSans-Bold-6e" d="M 2483 3558 
Q 3046 3558 3385 3254 
Q 3725 2950 3725 2278 
L 3725 0 
L 2771 0 
L 2771 2042 
Q 2771 2419 2636 2608 
Q 2502 2797 2208 2797 
Q 1773 2797 1613 2499 
Q 1453 2202 1453 1645 
L 1453 0 
L 499 0 
L 499 3494 
L 1229 3494 
L 1357 3046 
L 1408 3046 
Q 1523 3226 1689 3338 
Q 1856 3450 2061 3504 
Q 2266 3558 2483 3558 
z
" transform="scale(0.015625)"/>
     <path id="NotoSans-Bold-69" d="M 1453 3494 
L 1453 0 
L 499 0 
L 499 3494 
L 1453 3494 
z
M 979 4864 
Q 1190 4864 1344 4765 
Q 1498 4666 1498 4397 
Q 1498 4134 1344 4032 
Q 1190 3930 979 3930 
Q 762 3930 611 4032 
Q 461 4134 461 4397 
Q 461 4666 611 4765 
Q 762 4864 979 4864 
z
" transform="scale(0.015625)"/>
     <path id="NotoSans-Bold-64" d="M 1606 -64 
Q 1024 -64 656 393 
Q 288 851 288 1741 
Q 288 2637 659 3097 
Q 1030 3558 1632 3558 
Q 1882 3558 2074 3491 
Q 2266 3424 2403 3309 
Q 2541 3194 2637 3046 
L 2669 3046 
Q 2650 3149 2624 3344 
Q 2598 3539 2598 3744 
L 2598 4864 
L 3552 4864 
L 3552 0 
L 2822 0 
L 2637 454 
L 2598 454 
Q 2509 314 2371 195 
Q 2234 77 2048 6 
Q 1862 -64 1606 -64 
z
M 1939 698 
Q 2336 698 2496 931 
Q 2656 1165 2662 1632 
L 2662 1734 
Q 2662 2246 2505 2515 
Q 2349 2784 1926 2784 
Q 1613 2784 1433 2512 
Q 1254 2240 1254 1728 
Q 1254 1216 1433 957 
Q 1613 698 1939 698 
z
" transform="scale(0.015625)"/>
     <path id="NotoSans-Bold-46" d="M 1530 0 
L 576 0 
L 576 4570 
L 3194 4570 
L 3194 3776 
L 1530 3776 
L 1530 2598 
L 3078 2598 
L 3078 1805 
L 1530 1805 
L 1530 0 
z
" transform="scale(0.015625)"/>
     <path id="NotoSans-Bold-65" d="M 1939 3558 
Q 2426 3558 2774 3372 
Q 3123 3187 3315 2835 
Q 3507 2483 3507 1971 
L 3507 1510 
L 1254 1510 
Q 1267 1107 1494 876 
Q 1722 646 2125 646 
Q 2464 646 2739 713 
Q 3014 781 3309 922 
L 3309 186 
Q 3053 58 2768 -3 
Q 2483 -64 2080 -64 
Q 1555 -64 1152 131 
Q 749 326 518 723 
Q 288 1120 288 1722 
Q 288 2336 496 2742 
Q 704 3149 1075 3353 
Q 1446 3558 1939 3558 
z
M 1946 2880 
Q 1670 2880 1488 2701 
Q 1306 2522 1274 2144 
L 2611 2144 
Q 2611 2355 2537 2521 
Q 2464 2688 2317 2784 
Q 2170 2880 1946 2880 
z
" transform="scale(0.015625)"/>
     <path id="NotoSans-Bold-76" d="M 1331 0 
L 0 3494 
L 998 3494 
L 1670 1504 
Q 1709 1389 1737 1261 
Q 1766 1133 1782 1011 
Q 1798 890 1805 787 
L 1830 787 
Q 1837 896 1856 1017 
Q 1875 1139 1904 1264 
Q 1933 1389 1971 1504 
L 2643 3494 
L 3642 3494 
L 2310 0 
L 1331 0 
z
" transform="scale(0.015625)"/>
    </defs>
    <use xlink:href="#NotoSans-Bold-47"/>
    <use xlink:href="#NotoSans-Bold-61" transform="translate(72.399994 0)"/>
    <use xlink:href="#NotoSans-Bold-73" transform="translate(132.799988 0)"/>
    <use xlink:href="#NotoSans-Bold-74" transform="translate(182.499985 0)"/>
    <use xlink:href="#NotoSans-Bold-6f" transform="translate(225.899979 0)"/>
    <use xlink:href="#NotoSans-Bold-20" transform="translate(287.799973 0)"/>
    <use xlink:href="#NotoSans-Bold-70" transform="translate(313.799957 0)"/>
    <use xlink:href="#NotoSans-Bold-6f" transform="translate(377.099945 0)"/>
    <use xlink:href="#NotoSans-Bold-72" transform="translate(438.999939 0)"/>
    <use xlink:href="#NotoSans-Bold-20" transform="translate(484.399933 0)"/>
    <use xlink:href="#NotoSans-Bold-45" transform="translate(510.399918 0)"/>
    <use xlink:href="#NotoSans-Bold-6e" transform="translate(566.399902 0)"/>
    <use xlink:href="#NotoSans-Bold-74" transform="translate(632.099899 0)"/>
    <use xlink:href="#NotoSans-Bold-69" transform="translate(675.499893 0)"/>
    <use xlink:href="#NotoSans-Bold-64" transform="translate(705.999878 0)"/>
    <use xlink:href="#NotoSans-Bold-61" transform="translate(769.299866 0)"/>
    <use xlink:href="#NotoSans-Bold-64" transform="translate(829.69986 0)"/>
    <use xlink:href="#NotoSans-Bold-20" transform="translate(892.999847 0)"/>
    <use xlink:href="#NotoSans-Bold-46" transform="translate(918.999832 0)"/>
    <use xlink:href="#NotoSans-Bold-65" transform="translate(973.899826 0)"/>
    <use xlink:href="#NotoSans-Bold-64" transform="translate(1032.999817 0)"/>
    <use xlink:href="#NotoSans-Bold-65" transform="translate(1096.299805 0)"/>
    <use xlink:href="#NotoSans-Bold-72" transform="translate(1155.399796 0)"/>
    <use xlink:href="#NotoSans-Bold-61" transform="translate(1200.799789 0)"/>
    <use xlink:href="#NotoSans-Bold-74" transform="translate(1261.199783 0)"/>
    <use xlink:href="#NotoSans-Bold-69" transform="translate(1304.599777 0)"/>
    <use xlink:href="#NotoSans-Bold-76" transform="translate(1335.099762 0)"/>
    <use xlink:href="#NotoSans-Bold-61" transform="translate(1391.999756 0)"/>
   </g>
  </g>
  <g id="text_19">
   <!-- Fuente: Informe Estatal de Evaluación 2024 -->
   <g style="fill: #98989a" transform="translate(34.335 420) scale(0.14 -0.14)">
    <defs>
     <path id="NotoSans-Regular-46" d="M 1197 0 
L 621 0 
L 621 4570 
L 3174 4570 
L 3174 4064 
L 1197 4064 
L 1197 2445 
L 3053 2445 
L 3053 1939 
L 1197 1939 
L 1197 0 
z
" transform="scale(0.015625)"/>
     <path id="NotoSans-Regular-75" d="M 3411 3430 
L 3411 0 
L 2950 0 
L 2867 454 
L 2842 454 
Q 2733 275 2560 160 
Q 2387 45 2182 -9 
Q 1978 -64 1754 -64 
Q 1344 -64 1065 67 
Q 787 198 646 473 
Q 506 749 506 1184 
L 506 3430 
L 1075 3430 
L 1075 1222 
Q 1075 813 1260 608 
Q 1446 403 1837 403 
Q 2221 403 2441 547 
Q 2662 691 2755 969 
Q 2848 1248 2848 1645 
L 2848 3430 
L 3411 3430 
z
" transform="scale(0.015625)"/>
     <path id="NotoSans-Regular-65" d="M 1869 3494 
Q 2310 3494 2627 3302 
Q 2944 3110 3113 2761 
Q 3283 2413 3283 1946 
L 3283 1606 
L 934 1606 
Q 947 1024 1232 720 
Q 1517 416 2029 416 
Q 2355 416 2608 477 
Q 2861 538 3130 653 
L 3130 160 
Q 2867 45 2611 -9 
Q 2355 -64 2003 -64 
Q 1517 -64 1142 134 
Q 768 333 560 726 
Q 352 1120 352 1690 
Q 352 2253 541 2656 
Q 730 3059 1072 3276 
Q 1414 3494 1869 3494 
z
M 1862 3034 
Q 1459 3034 1225 2774 
Q 992 2515 947 2054 
L 2694 2054 
Q 2694 2349 2604 2566 
Q 2515 2784 2332 2909 
Q 2150 3034 1862 3034 
z
" transform="scale(0.015625)"/>
     <path id="NotoSans-Regular-6e" d="M 2195 3494 
Q 2810 3494 3123 3196 
Q 3437 2899 3437 2234 
L 3437 0 
L 2880 0 
L 2880 2195 
Q 2880 2611 2694 2816 
Q 2509 3021 2112 3021 
Q 1542 3021 1324 2701 
Q 1107 2381 1107 1779 
L 1107 0 
L 544 0 
L 544 3430 
L 998 3430 
L 1082 2963 
L 1114 2963 
Q 1229 3142 1398 3260 
Q 1568 3379 1773 3436 
Q 1978 3494 2195 3494 
z
" transform="scale(0.015625)"/>
     <path id="NotoSans-Regular-74" d="M 1690 397 
Q 1818 397 1952 419 
Q 2086 442 2170 467 
L 2170 38 
Q 2080 -6 1913 -35 
Q 1747 -64 1594 -64 
Q 1325 -64 1097 29 
Q 870 122 729 352 
Q 589 582 589 998 
L 589 2995 
L 102 2995 
L 102 3264 
L 595 3488 
L 819 4218 
L 1152 4218 
L 1152 3430 
L 2144 3430 
L 2144 2995 
L 1152 2995 
L 1152 1011 
Q 1152 698 1302 547 
Q 1453 397 1690 397 
z
" transform="scale(0.015625)"/>
     <path id="NotoSans-Regular-3a" d="M 461 346 
Q 461 582 576 678 
Q 691 774 851 774 
Q 1018 774 1136 678 
Q 1254 582 1254 346 
Q 1254 115 1136 12 
Q 1018 -90 851 -90 
Q 691 -90 576 12 
Q 461 115 461 346 
z
M 461 3085 
Q 461 3328 576 3424 
Q 691 3520 851 3520 
Q 1018 3520 1136 3424 
Q 1254 3328 1254 3085 
Q 1254 2854 1136 2752 
Q 1018 2650 851 2650 
Q 691 2650 576 2752 
Q 461 2854 461 3085 
z
" transform="scale(0.015625)"/>
     <path id="NotoSans-Regular-20" transform="scale(0.015625)"/>
     <path id="NotoSans-Regular-66" d="M 2125 2995 
L 1261 2995 
L 1261 0 
L 698 0 
L 698 2995 
L 96 2995 
L 96 3258 
L 698 3450 
L 698 3648 
Q 698 4090 829 4365 
Q 960 4640 1209 4768 
Q 1459 4896 1811 4896 
Q 2016 4896 2185 4861 
Q 2355 4826 2477 4781 
L 2330 4339 
Q 2227 4371 2092 4403 
Q 1958 4435 1818 4435 
Q 1536 4435 1398 4246 
Q 1261 4058 1261 3654 
L 1261 3430 
L 2125 3430 
L 2125 2995 
z
" transform="scale(0.015625)"/>
     <path id="NotoSans-Regular-6f" d="M 3526 1722 
Q 3526 1293 3414 963 
Q 3302 634 3094 403 
Q 2886 173 2588 54 
Q 2291 -64 1926 -64 
Q 1587 -64 1299 54 
Q 1011 173 800 403 
Q 589 634 470 963 
Q 352 1293 352 1722 
Q 352 2291 544 2684 
Q 736 3078 1094 3286 
Q 1453 3494 1946 3494 
Q 2413 3494 2768 3286 
Q 3123 3078 3324 2684 
Q 3526 2291 3526 1722 
z
M 934 1722 
Q 934 1318 1040 1020 
Q 1146 723 1370 563 
Q 1594 403 1939 403 
Q 2285 403 2509 563 
Q 2733 723 2838 1020 
Q 2944 1318 2944 1722 
Q 2944 2131 2835 2419 
Q 2726 2707 2505 2864 
Q 2285 3021 1933 3021 
Q 1408 3021 1171 2675 
Q 934 2330 934 1722 
z
" transform="scale(0.015625)"/>
     <path id="NotoSans-Regular-72" d="M 2144 3494 
Q 2240 3494 2352 3484 
Q 2464 3475 2547 3456 
L 2477 2938 
Q 2394 2957 2294 2969 
Q 2195 2982 2106 2982 
Q 1907 2982 1728 2899 
Q 1549 2816 1408 2665 
Q 1267 2515 1187 2304 
Q 1107 2093 1107 1830 
L 1107 0 
L 544 0 
L 544 3430 
L 1005 3430 
L 1069 2803 
L 1094 2803 
Q 1203 2995 1356 3152 
Q 1510 3309 1708 3401 
Q 1907 3494 2144 3494 
z
" transform="scale(0.015625)"/>
     <path id="NotoSans-Regular-6d" d="M 4307 3494 
Q 4890 3494 5178 3196 
Q 5466 2899 5466 2234 
L 5466 0 
L 4909 0 
L 4909 2208 
Q 4909 2611 4739 2816 
Q 4570 3021 4211 3021 
Q 3712 3021 3497 2733 
Q 3283 2445 3283 1894 
L 3283 0 
L 2726 0 
L 2726 2208 
Q 2726 2477 2649 2659 
Q 2573 2842 2419 2931 
Q 2266 3021 2022 3021 
Q 1677 3021 1478 2877 
Q 1280 2733 1193 2457 
Q 1107 2182 1107 1779 
L 1107 0 
L 544 0 
L 544 3430 
L 998 3430 
L 1082 2963 
L 1114 2963 
Q 1222 3142 1379 3260 
Q 1536 3379 1728 3436 
Q 1920 3494 2125 3494 
Q 2522 3494 2787 3353 
Q 3053 3213 3174 2918 
L 3206 2918 
Q 3379 3213 3676 3353 
Q 3974 3494 4307 3494 
z
" transform="scale(0.015625)"/>
     <path id="NotoSans-Regular-73" d="M 2778 947 
Q 2778 614 2611 390 
Q 2445 166 2137 51 
Q 1830 -64 1408 -64 
Q 1050 -64 790 -6 
Q 531 51 333 154 
L 333 666 
Q 538 563 829 476 
Q 1120 390 1421 390 
Q 1850 390 2042 528 
Q 2234 666 2234 896 
Q 2234 1024 2163 1126 
Q 2093 1229 1910 1331 
Q 1728 1434 1389 1562 
Q 1056 1690 819 1818 
Q 582 1946 454 2125 
Q 326 2304 326 2586 
Q 326 3021 681 3257 
Q 1037 3494 1613 3494 
Q 1926 3494 2198 3433 
Q 2470 3373 2707 3264 
L 2515 2816 
Q 2298 2906 2061 2970 
Q 1824 3034 1574 3034 
Q 1229 3034 1046 2922 
Q 864 2810 864 2618 
Q 864 2477 947 2377 
Q 1030 2278 1225 2185 
Q 1421 2093 1747 1965 
Q 2074 1843 2304 1715 
Q 2534 1587 2656 1404 
Q 2778 1222 2778 947 
z
" transform="scale(0.015625)"/>
     <path id="NotoSans-Regular-61" d="M 1843 3488 
Q 2470 3488 2771 3213 
Q 3072 2938 3072 2336 
L 3072 0 
L 2662 0 
L 2554 486 
L 2528 486 
Q 2381 301 2224 176 
Q 2067 51 1865 -6 
Q 1664 -64 1376 -64 
Q 1069 -64 822 45 
Q 576 154 435 381 
Q 294 608 294 954 
Q 294 1466 697 1744 
Q 1101 2022 1939 2048 
L 2522 2067 
L 2522 2272 
Q 2522 2701 2336 2867 
Q 2150 3034 1811 3034 
Q 1542 3034 1299 2954 
Q 1056 2874 845 2771 
L 672 3194 
Q 896 3315 1203 3401 
Q 1510 3488 1843 3488 
z
M 2010 1658 
Q 1370 1632 1123 1453 
Q 877 1274 877 947 
Q 877 659 1053 524 
Q 1229 390 1504 390 
Q 1939 390 2227 630 
Q 2515 870 2515 1370 
L 2515 1677 
L 2010 1658 
z
" transform="scale(0.015625)"/>
     <path id="NotoSans-Regular-6c" d="M 1107 0 
L 544 0 
L 544 4864 
L 1107 4864 
L 1107 0 
z
" transform="scale(0.015625)"/>
     <path id="NotoSans-Regular-64" d="M 1760 -64 
Q 1120 -64 736 381 
Q 352 826 352 1709 
Q 352 2592 739 3043 
Q 1126 3494 1766 3494 
Q 2035 3494 2233 3427 
Q 2432 3360 2579 3245 
Q 2726 3130 2829 2989 
L 2867 2989 
Q 2861 3072 2845 3235 
Q 2829 3398 2829 3494 
L 2829 4864 
L 3392 4864 
L 3392 0 
L 2938 0 
L 2854 461 
L 2829 461 
Q 2726 314 2579 195 
Q 2432 77 2230 6 
Q 2029 -64 1760 -64 
z
M 1850 403 
Q 2394 403 2614 700 
Q 2835 998 2835 1600 
L 2835 1702 
Q 2835 2342 2624 2684 
Q 2413 3027 1843 3027 
Q 1389 3027 1161 2665 
Q 934 2304 934 1696 
Q 934 1082 1161 742 
Q 1389 403 1850 403 
z
" transform="scale(0.015625)"/>
     <path id="NotoSans-Regular-76" d="M 1299 0 
L 0 3430 
L 602 3430 
L 1331 1408 
Q 1382 1267 1440 1094 
Q 1498 922 1542 765 
Q 1587 608 1606 499 
L 1632 499 
Q 1658 608 1706 768 
Q 1754 928 1814 1101 
Q 1875 1274 1920 1408 
L 2650 3430 
L 3251 3430 
L 1946 0 
L 1299 0 
z
" transform="scale(0.015625)"/>
     <path id="NotoSans-Regular-63" d="M 1920 -64 
Q 1466 -64 1110 121 
Q 755 307 553 697 
Q 352 1088 352 1696 
Q 352 2330 563 2726 
Q 774 3123 1136 3308 
Q 1498 3494 1958 3494 
Q 2221 3494 2464 3440 
Q 2707 3386 2861 3309 
L 2688 2842 
Q 2534 2899 2329 2950 
Q 2125 3002 1946 3002 
Q 1600 3002 1376 2854 
Q 1152 2707 1043 2419 
Q 934 2131 934 1702 
Q 934 1293 1043 1005 
Q 1152 717 1369 569 
Q 1587 422 1914 422 
Q 2195 422 2409 480 
Q 2624 538 2803 621 
L 2803 122 
Q 2630 32 2422 -16 
Q 2214 -64 1920 -64 
z
" transform="scale(0.015625)"/>
     <path id="NotoSans-Regular-69" d="M 1107 3430 
L 1107 0 
L 544 0 
L 544 3430 
L 1107 3430 
z
M 832 4717 
Q 960 4717 1059 4630 
Q 1158 4544 1158 4358 
Q 1158 4179 1059 4089 
Q 960 4000 832 4000 
Q 691 4000 595 4089 
Q 499 4179 499 4358 
Q 499 4544 595 4630 
Q 691 4717 832 4717 
z
" transform="scale(0.015625)"/>
     <path id="NotoSans-Regular-f3" d="M 3526 1722 
Q 3526 1293 3414 963 
Q 3302 634 3094 403 
Q 2886 173 2588 54 
Q 2291 -64 1926 -64 
Q 1587 -64 1299 54 
Q 1011 173 800 403 
Q 589 634 470 963 
Q 352 1293 352 1722 
Q 352 2291 544 2684 
Q 736 3078 1094 3286 
Q 1453 3494 1946 3494 
Q 2413 3494 2768 3286 
Q 3123 3078 3324 2684 
Q 3526 2291 3526 1722 
z
M 934 1722 
Q 934 1318 1040 1020 
Q 1146 723 1370 563 
Q 1594 403 1939 403 
Q 2285 403 2509 563 
Q 2733 723 2838 1020 
Q 2944 1318 2944 1722 
Q 2944 2131 2835 2419 
Q 2726 2707 2505 2864 
Q 2285 3021 1933 3021 
Q 1408 3021 1171 2675 
Q 934 2330 934 1722 
z
M 2886 4838 
Q 2829 4749 2720 4621 
Q 2611 4493 2480 4355 
Q 2349 4218 2217 4093 
Q 2086 3968 1971 3878 
L 1600 3878 
L 1600 3955 
Q 1696 4077 1808 4243 
Q 1920 4410 2029 4586 
Q 2138 4762 2208 4902 
L 2886 4902 
L 2886 4838 
z
" transform="scale(0.015625)"/>
    </defs>
    <use xlink:href="#NotoSans-Regular-46"/>
    <use xlink:href="#NotoSans-Regular-75" transform="translate(51.899994 0)"/>
    <use xlink:href="#NotoSans-Regular-65" transform="translate(113.699982 0)"/>
    <use xlink:href="#NotoSans-Regular-6e" transform="translate(170.099976 0)"/>
    <use xlink:href="#NotoSans-Regular-74" transform="translate(231.899963 0)"/>
    <use xlink:href="#NotoSans-Regular-65" transform="translate(267.999954 0)"/>
    <use xlink:href="#NotoSans-Regular-3a" transform="translate(324.399948 0)"/>
    <use xlink:href="#NotoSans-Regular-20" transform="translate(351.199936 0)"/>
    <use xlink:href="#NotoSans-Regular-49" transform="translate(377.199921 0)"/>
    <use xlink:href="#NotoSans-Regular-6e" transform="translate(411.099915 0)"/>
    <use xlink:href="#NotoSans-Regular-66" transform="translate(472.899902 0)"/>
    <use xlink:href="#NotoSans-Regular-6f" transform="translate(507.299896 0)"/>
    <use xlink:href="#NotoSans-Regular-72" transform="translate(567.799881 0)"/>
    <use xlink:href="#NotoSans-Regular-6d" transform="translate(609.099869 0)"/>
    <use xlink:href="#NotoSans-Regular-65" transform="translate(702.599854 0)"/>
    <use xlink:href="#NotoSans-Regular-20" transform="translate(758.999847 0)"/>
    <use xlink:href="#NotoSans-Regular-45" transform="translate(784.999832 0)"/>
    <use xlink:href="#NotoSans-Regular-73" transform="translate(840.599823 0)"/>
    <use xlink:href="#NotoSans-Regular-74" transform="translate(888.499817 0)"/>
    <use xlink:href="#NotoSans-Regular-61" transform="translate(924.599808 0)"/>
    <use xlink:href="#NotoSans-Regular-74" transform="translate(980.699799 0)"/>
    <use xlink:href="#NotoSans-Regular-61" transform="translate(1016.799789 0)"/>
    <use xlink:href="#NotoSans-Regular-6c" transform="translate(1072.89978 0)"/>
    <use xlink:href="#NotoSans-Regular-20" transform="translate(1098.699768 0)"/>
    <use xlink:href="#NotoSans-Regular-64" transform="translate(1124.699753 0)"/>
    <use xlink:href="#NotoSans-Regular-65" transform="translate(1186.199738 0)"/>
    <use xlink:href="#NotoSans-Regular-20" transform="translate(1242.599731 0)"/>
    <use xlink:href="#NotoSans-Regular-45" transform="translate(1268.599716 0)"/>
    <use xlink:href="#NotoSans-Regular-76" transform="translate(1324.199707 0)"/>
    <use xlink:href="#NotoSans-Regular-61" transform="translate(1374.999695 0)"/>
    <use xlink:href="#NotoSans-Regular-6c" transform="translate(1431.099686 0)"/>
    <use xlink:href="#NotoSans-Regular-75" transform="translate(1456.899673 0)"/>
    <use xlink:href="#NotoSans-Regular-61" transform="translate(1518.699661 0)"/>
    <use xlink:href="#NotoSans-Regular-63" transform="translate(1574.799652 0)"/>
    <use xlink:href="#NotoSans-Regular-69" transform="translate(1622.799637 0)"/>
    <use xlink:href="#NotoSans-Regular-f3" transform="translate(1648.599625 0)"/>
    <use xlink:href="#NotoSans-Regular-6e" transform="translate(1709.099609 0)"/>
    <use xlink:href="#NotoSans-Regular-20" transform="translate(1770.899597 0)"/>
    <use xlink:href="#NotoSans-Regular-32" transform="translate(1796.899582 0)"/>
    <use xlink:href="#NotoSans-Regular-30" transform="translate(1854.099579 0)"/>
    <use xlink:href="#NotoSans-Regular-32" transform="translate(1911.299576 0)"/>
    <use xlink:href="#NotoSans-Regular-34" transform="translate(1968.499573 0)"/>
   </g>
  </g>
  <g id="text_20">
   <!-- (Millones de pesos) -->
   <g transform="translate(381.929531 396) scale(0.14 -0.14)">
    <defs>
     <path id="NotoSans-Regular-28" d="M 256 1754 
Q 256 2278 355 2777 
Q 454 3277 665 3731 
Q 877 4186 1197 4570 
L 1728 4570 
Q 1280 3968 1053 3245 
Q 826 2522 826 1760 
Q 826 1267 928 780 
Q 1030 294 1228 -157 
Q 1427 -608 1722 -1011 
L 1197 -1011 
Q 877 -634 665 -189 
Q 454 256 355 749 
Q 256 1242 256 1754 
z
" transform="scale(0.015625)"/>
     <path id="NotoSans-Regular-70" d="M 2176 3494 
Q 2810 3494 3197 3052 
Q 3584 2611 3584 1722 
Q 3584 1139 3408 739 
Q 3232 339 2915 137 
Q 2598 -64 2170 -64 
Q 1907 -64 1702 6 
Q 1498 77 1354 189 
Q 1210 301 1107 435 
L 1069 435 
Q 1082 326 1094 160 
Q 1107 -6 1107 -128 
L 1107 -1536 
L 544 -1536 
L 544 3430 
L 1005 3430 
L 1082 2963 
L 1107 2963 
Q 1210 3110 1354 3232 
Q 1498 3354 1699 3424 
Q 1901 3494 2176 3494 
z
M 2074 3021 
Q 1728 3021 1517 2889 
Q 1306 2758 1210 2496 
Q 1114 2234 1107 1830 
L 1107 1722 
Q 1107 1299 1196 1004 
Q 1286 710 1500 556 
Q 1715 403 2086 403 
Q 2400 403 2601 576 
Q 2803 749 2902 1046 
Q 3002 1344 3002 1728 
Q 3002 2317 2774 2669 
Q 2547 3021 2074 3021 
z
" transform="scale(0.015625)"/>
     <path id="NotoSans-Regular-29" d="M 1664 1754 
Q 1664 1242 1565 749 
Q 1466 256 1258 -189 
Q 1050 -634 723 -1011 
L 198 -1011 
Q 493 -608 691 -157 
Q 890 294 992 780 
Q 1094 1267 1094 1760 
Q 1094 2266 992 2758 
Q 890 3251 691 3712 
Q 493 4173 192 4570 
L 723 4570 
Q 1050 4186 1258 3731 
Q 1466 3277 1565 2777 
Q 1664 2278 1664 1754 
z
" transform="scale(0.015625)"/>
    </defs>
    <use xlink:href="#NotoSans-Regular-28"/>
    <use xlink:href="#NotoSans-Regular-4d" transform="translate(29.999985 0)"/>
    <use xlink:href="#NotoSans-Regular-69" transform="translate(120.699966 0)"/>
    <use xlink:href="#NotoSans-Regular-6c" transform="translate(146.499954 0)"/>
    <use xlink:href="#NotoSans-Regular-6c" transform="translate(172.299942 0)"/>
    <use xlink:href="#NotoSans-Regular-6f" transform="translate(198.09993 0)"/>
    <use xlink:href="#NotoSans-Regular-6e" transform="translate(258.599915 0)"/>
    <use xlink:href="#NotoSans-Regular-65" transform="translate(320.399902 0)"/>
    <use xlink:href="#NotoSans-Regular-73" transform="translate(376.799896 0)"/>
    <use xlink:href="#NotoSans-Regular-20" transform="translate(424.69989 0)"/>
    <use xlink:href="#NotoSans-Regular-64" transform="translate(450.699875 0)"/>
    <use xlink:href="#NotoSans-Regular-65" transform="translate(512.19986 0)"/>
    <use xlink:href="#NotoSans-Regular-20" transform="translate(568.599854 0)"/>
    <use xlink:href="#NotoSans-Regular-70" transform="translate(594.599838 0)"/>
    <use xlink:href="#NotoSans-Regular-65" transform="translate(656.099823 0)"/>
    <use xlink:href="#NotoSans-Regular-73" transform="translate(712.499817 0)"/>
    <use xlink:href="#NotoSans-Regular-6f" transform="translate(760.399811 0)"/>
    <use xlink:href="#NotoSans-Regular-73" transform="translate(820.899796 0)"/>
    <use xlink:href="#NotoSans-Regular-29" transform="translate(868.799789 0)"/>
   </g>
  </g>
 </g>
 <defs>
  <clipPath id="p8ca5c2c74d">
   <rect x="34.335" y="40.64" width="821.025" height="322.72"/>
  </clipPath>
 </defs>
</svg>
