<?xml version="1.0" encoding="utf-8" standalone="no"?>
<!DOCTYPE svg PUBLIC "-//W3C//DTD SVG 1.1//EN"
  "http://www.w3.org/Graphics/SVG/1.1/DTD/svg11.dtd">
<svg xmlns:xlink="http://www.w3.org/1999/xlink" width="864pt" height="576pt" viewBox="0 0 864 576" xmlns="http://www.w3.org/2000/svg" version="1.1">
 <metadata>
  <rdf:RDF xmlns:dc="http://purl.org/dc/elements/1.1/" xmlns:cc="http://creativecommons.org/ns#" xmlns:rdf="http://www.w3.org/1999/02/22-rdf-syntax-ns#">
   <cc:Work>
    <dc:type rdf:resource="http://purl.org/dc/dcmitype/StillImage"/>
    <dc:date>2025-08-20T09:12:49.450786</dc:date>
    <dc:format>image/svg+xml</dc:format>
    <dc:creator>
     <cc:Agent>
      <dc:title>Matplotlib v3.10.0, https://matplotlib.org/</dc:title>
     </cc:Agent>
    </dc:creator>
   </cc:Work>
  </rdf:RDF>
 </metadata>
 <defs>
  <style type="text/css">*{stroke-linejoin: round; stroke-linecap: butt}</style>
 </defs>
 <g id="figure_1">
  <g id="patch_1">
   <path d="M 0 576 
L 864 576 
L 864 0 
L 0 0 
z
" style="fill: #ffffff; stroke: #ffffff; stroke-linejoin: miter"/>
  </g>
  <g id="axes_1">
   <g id="patch_2">
    <path d="M 22.36875 507.36 
L 855.36 507.36 
L 855.36 40.64 
L 22.36875 40.64 
z
" style="fill: #fafafa"/>
   </g>
   <g id="matplotlib.axis_1">
    <g id="xtick_1">
     <g id="line2d_1">
      <path d="M 60.231989 507.36 
L 60.231989 40.64 
" clip-path="url(#pa676937fb9)" style="fill: none; stroke: #f5f5f5; stroke-linecap: square"/>
     </g>
     <g id="text_1">
      <!-- 0 -->
      <g style="fill: #4d4d4d" transform="translate(53.367614 516.48) scale(0.12 -0.12)">
       <defs>
        <path id="NotoSans-Regular-30" d="M 3347 2291 
Q 3347 1734 3264 1299 
Q 3181 864 2998 560 
Q 2816 256 2525 96 
Q 2234 -64 1824 -64 
Q 1312 -64 976 217 
Q 640 499 477 1027 
Q 314 1555 314 2291 
Q 314 3034 464 3558 
Q 614 4083 947 4361 
Q 1280 4640 1824 4640 
Q 2336 4640 2675 4361 
Q 3014 4083 3180 3558 
Q 3347 3034 3347 2291 
z
M 877 2291 
Q 877 1664 969 1248 
Q 1062 832 1270 624 
Q 1478 416 1824 416 
Q 2170 416 2378 621 
Q 2586 826 2682 1245 
Q 2778 1664 2778 2291 
Q 2778 2918 2682 3331 
Q 2586 3744 2378 3952 
Q 2170 4160 1824 4160 
Q 1478 4160 1270 3952 
Q 1062 3744 969 3331 
Q 877 2918 877 2291 
z
" transform="scale(0.015625)"/>
       </defs>
       <use xlink:href="#NotoSans-Regular-30"/>
      </g>
     </g>
    </g>
    <g id="xtick_2">
     <g id="line2d_2">
      <path d="M 129.074241 507.36 
L 129.074241 40.64 
" clip-path="url(#pa676937fb9)" style="fill: none; stroke: #f5f5f5; stroke-linecap: square"/>
     </g>
     <g id="text_2">
      <!-- 200 -->
      <g style="fill: #4d4d4d" transform="translate(108.481116 516.48) scale(0.12 -0.12)">
       <defs>
        <path id="NotoSans-Regular-32" d="M 3328 0 
L 307 0 
L 307 467 
L 1504 1677 
Q 1850 2022 2086 2291 
Q 2323 2560 2444 2819 
Q 2566 3078 2566 3386 
Q 2566 3763 2342 3958 
Q 2118 4154 1760 4154 
Q 1427 4154 1174 4038 
Q 922 3923 659 3718 
L 358 4096 
Q 538 4250 752 4371 
Q 966 4493 1219 4563 
Q 1472 4634 1760 4634 
Q 2189 4634 2496 4486 
Q 2803 4339 2972 4067 
Q 3142 3795 3142 3418 
Q 3142 3059 2995 2745 
Q 2848 2432 2585 2128 
Q 2323 1824 1971 1478 
L 1018 538 
L 1018 512 
L 3328 512 
L 3328 0 
z
" transform="scale(0.015625)"/>
       </defs>
       <use xlink:href="#NotoSans-Regular-32"/>
       <use xlink:href="#NotoSans-Regular-30" transform="translate(57.199997 0)"/>
       <use xlink:href="#NotoSans-Regular-30" transform="translate(114.399994 0)"/>
      </g>
     </g>
    </g>
    <g id="xtick_3">
     <g id="line2d_3">
      <path d="M 197.916493 507.36 
L 197.916493 40.64 
" clip-path="url(#pa676937fb9)" style="fill: none; stroke: #f5f5f5; stroke-linecap: square"/>
     </g>
     <g id="text_3">
      <!-- 400 -->
      <g style="fill: #4d4d4d" transform="translate(177.323368 516.48) scale(0.12 -0.12)">
       <defs>
        <path id="NotoSans-Regular-34" d="M 3533 1037 
L 2867 1037 
L 2867 0 
L 2323 0 
L 2323 1037 
L 134 1037 
L 134 1517 
L 2285 4595 
L 2867 4595 
L 2867 1542 
L 3533 1542 
L 3533 1037 
z
M 2323 2982 
Q 2323 3149 2326 3286 
Q 2330 3424 2336 3545 
Q 2342 3667 2345 3779 
Q 2349 3891 2355 3994 
L 2330 3994 
Q 2278 3872 2201 3731 
Q 2125 3590 2054 3494 
L 685 1542 
L 2323 1542 
L 2323 2982 
z
" transform="scale(0.015625)"/>
       </defs>
       <use xlink:href="#NotoSans-Regular-34"/>
       <use xlink:href="#NotoSans-Regular-30" transform="translate(57.199997 0)"/>
       <use xlink:href="#NotoSans-Regular-30" transform="translate(114.399994 0)"/>
      </g>
     </g>
    </g>
    <g id="xtick_4">
     <g id="line2d_4">
      <path d="M 266.758745 507.36 
L 266.758745 40.64 
" clip-path="url(#pa676937fb9)" style="fill: none; stroke: #f5f5f5; stroke-linecap: square"/>
     </g>
     <g id="text_4">
      <!-- 600 -->
      <g style="fill: #4d4d4d" transform="translate(246.16562 516.48) scale(0.12 -0.12)">
       <defs>
        <path id="NotoSans-Regular-36" d="M 352 1952 
Q 352 2349 406 2733 
Q 461 3117 595 3459 
Q 730 3802 966 4067 
Q 1203 4333 1564 4483 
Q 1926 4634 2445 4634 
Q 2579 4634 2742 4621 
Q 2906 4608 3008 4576 
L 3008 4096 
Q 2893 4134 2749 4153 
Q 2605 4173 2458 4173 
Q 2016 4173 1721 4025 
Q 1427 3878 1257 3622 
Q 1088 3366 1011 3033 
Q 934 2701 915 2323 
L 954 2323 
Q 1050 2477 1197 2598 
Q 1344 2720 1552 2790 
Q 1760 2861 2035 2861 
Q 2432 2861 2729 2697 
Q 3027 2534 3193 2224 
Q 3360 1914 3360 1472 
Q 3360 998 3181 652 
Q 3002 307 2678 121 
Q 2355 -64 1907 -64 
Q 1581 -64 1299 57 
Q 1018 179 803 428 
Q 589 678 470 1059 
Q 352 1440 352 1952 
z
M 1901 410 
Q 2304 410 2553 669 
Q 2803 928 2803 1472 
Q 2803 1907 2582 2163 
Q 2362 2419 1920 2419 
Q 1619 2419 1395 2294 
Q 1171 2170 1046 1978 
Q 922 1786 922 1581 
Q 922 1370 982 1165 
Q 1043 960 1168 787 
Q 1293 614 1475 512 
Q 1658 410 1901 410 
z
" transform="scale(0.015625)"/>
       </defs>
       <use xlink:href="#NotoSans-Regular-36"/>
       <use xlink:href="#NotoSans-Regular-30" transform="translate(57.199997 0)"/>
       <use xlink:href="#NotoSans-Regular-30" transform="translate(114.399994 0)"/>
      </g>
     </g>
    </g>
    <g id="xtick_5">
     <g id="line2d_5">
      <path d="M 335.600997 507.36 
L 335.600997 40.64 
" clip-path="url(#pa676937fb9)" style="fill: none; stroke: #f5f5f5; stroke-linecap: square"/>
     </g>
     <g id="text_5">
      <!-- 800 -->
      <g style="fill: #4d4d4d" transform="translate(315.007872 516.48) scale(0.12 -0.12)">
       <defs>
        <path id="NotoSans-Regular-38" d="M 1824 4634 
Q 2227 4634 2534 4509 
Q 2842 4384 3018 4141 
Q 3194 3898 3194 3539 
Q 3194 3264 3075 3059 
Q 2957 2854 2758 2697 
Q 2560 2541 2323 2419 
Q 2605 2285 2835 2115 
Q 3066 1946 3203 1722 
Q 3341 1498 3341 1184 
Q 3341 800 3155 521 
Q 2970 243 2634 89 
Q 2298 -64 1843 -64 
Q 1350 -64 1008 83 
Q 666 230 490 502 
Q 314 774 314 1165 
Q 314 1478 445 1708 
Q 576 1939 793 2105 
Q 1011 2272 1261 2387 
Q 1037 2515 854 2678 
Q 672 2842 566 3053 
Q 461 3264 461 3546 
Q 461 3898 640 4138 
Q 819 4378 1126 4506 
Q 1434 4634 1824 4634 
z
M 864 1158 
Q 864 826 1101 605 
Q 1338 384 1830 384 
Q 2298 384 2544 605 
Q 2790 826 2790 1178 
Q 2790 1402 2672 1571 
Q 2554 1741 2339 1875 
Q 2125 2010 1830 2118 
L 1728 2157 
Q 1446 2035 1254 1894 
Q 1062 1754 963 1574 
Q 864 1395 864 1158 
z
M 1818 4179 
Q 1466 4179 1238 4009 
Q 1011 3840 1011 3520 
Q 1011 3283 1123 3123 
Q 1235 2963 1427 2851 
Q 1619 2739 1850 2637 
Q 2074 2733 2250 2848 
Q 2426 2963 2531 3126 
Q 2637 3290 2637 3520 
Q 2637 3840 2413 4009 
Q 2189 4179 1818 4179 
z
" transform="scale(0.015625)"/>
       </defs>
       <use xlink:href="#NotoSans-Regular-38"/>
       <use xlink:href="#NotoSans-Regular-30" transform="translate(57.199997 0)"/>
       <use xlink:href="#NotoSans-Regular-30" transform="translate(114.399994 0)"/>
      </g>
     </g>
    </g>
    <g id="xtick_6">
     <g id="line2d_6">
      <path d="M 404.443249 507.36 
L 404.443249 40.64 
" clip-path="url(#pa676937fb9)" style="fill: none; stroke: #f5f5f5; stroke-linecap: square"/>
     </g>
     <g id="text_6">
      <!-- 1,000 -->
      <g style="fill: #4d4d4d" transform="translate(373.770124 516.48) scale(0.12 -0.12)">
       <defs>
        <path id="NotoSans-Regular-31" d="M 2272 0 
L 1722 0 
L 1722 3194 
Q 1722 3379 1725 3507 
Q 1728 3635 1734 3747 
Q 1741 3859 1747 3981 
Q 1645 3878 1561 3808 
Q 1478 3738 1350 3629 
L 864 3232 
L 570 3610 
L 1805 4570 
L 2272 4570 
L 2272 0 
z
" transform="scale(0.015625)"/>
        <path id="NotoSans-Regular-2c" d="M 1229 672 
Q 1171 448 1081 185 
Q 992 -77 886 -336 
Q 781 -595 678 -826 
L 262 -826 
Q 326 -582 387 -304 
Q 448 -26 499 246 
Q 550 518 582 742 
L 1184 742 
L 1229 672 
z
" transform="scale(0.015625)"/>
       </defs>
       <use xlink:href="#NotoSans-Regular-31"/>
       <use xlink:href="#NotoSans-Regular-2c" transform="translate(57.199997 0)"/>
       <use xlink:href="#NotoSans-Regular-30" transform="translate(83.999985 0)"/>
       <use xlink:href="#NotoSans-Regular-30" transform="translate(141.199982 0)"/>
       <use xlink:href="#NotoSans-Regular-30" transform="translate(198.399979 0)"/>
      </g>
     </g>
    </g>
    <g id="xtick_7">
     <g id="line2d_7">
      <path d="M 473.285501 507.36 
L 473.285501 40.64 
" clip-path="url(#pa676937fb9)" style="fill: none; stroke: #f5f5f5; stroke-linecap: square"/>
     </g>
     <g id="text_7">
      <!-- 1,200 -->
      <g style="fill: #4d4d4d" transform="translate(442.612376 516.48) scale(0.12 -0.12)">
       <use xlink:href="#NotoSans-Regular-31"/>
       <use xlink:href="#NotoSans-Regular-2c" transform="translate(57.199997 0)"/>
       <use xlink:href="#NotoSans-Regular-32" transform="translate(83.999985 0)"/>
       <use xlink:href="#NotoSans-Regular-30" transform="translate(141.199982 0)"/>
       <use xlink:href="#NotoSans-Regular-30" transform="translate(198.399979 0)"/>
      </g>
     </g>
    </g>
    <g id="xtick_8">
     <g id="line2d_8">
      <path d="M 542.127753 507.36 
L 542.127753 40.64 
" clip-path="url(#pa676937fb9)" style="fill: none; stroke: #f5f5f5; stroke-linecap: square"/>
     </g>
     <g id="text_8">
      <!-- 1,400 -->
      <g style="fill: #4d4d4d" transform="translate(511.454628 516.48) scale(0.12 -0.12)">
       <use xlink:href="#NotoSans-Regular-31"/>
       <use xlink:href="#NotoSans-Regular-2c" transform="translate(57.199997 0)"/>
       <use xlink:href="#NotoSans-Regular-34" transform="translate(83.999985 0)"/>
       <use xlink:href="#NotoSans-Regular-30" transform="translate(141.199982 0)"/>
       <use xlink:href="#NotoSans-Regular-30" transform="translate(198.399979 0)"/>
      </g>
     </g>
    </g>
    <g id="xtick_9">
     <g id="line2d_9">
      <path d="M 610.970005 507.36 
L 610.970005 40.64 
" clip-path="url(#pa676937fb9)" style="fill: none; stroke: #f5f5f5; stroke-linecap: square"/>
     </g>
     <g id="text_9">
      <!-- 1,600 -->
      <g style="fill: #4d4d4d" transform="translate(580.29688 516.48) scale(0.12 -0.12)">
       <use xlink:href="#NotoSans-Regular-31"/>
       <use xlink:href="#NotoSans-Regular-2c" transform="translate(57.199997 0)"/>
       <use xlink:href="#NotoSans-Regular-36" transform="translate(83.999985 0)"/>
       <use xlink:href="#NotoSans-Regular-30" transform="translate(141.199982 0)"/>
       <use xlink:href="#NotoSans-Regular-30" transform="translate(198.399979 0)"/>
      </g>
     </g>
    </g>
    <g id="xtick_10">
     <g id="line2d_10">
      <path d="M 679.812257 507.36 
L 679.812257 40.64 
" clip-path="url(#pa676937fb9)" style="fill: none; stroke: #f5f5f5; stroke-linecap: square"/>
     </g>
     <g id="text_10">
      <!-- 1,800 -->
      <g style="fill: #4d4d4d" transform="translate(649.139132 516.48) scale(0.12 -0.12)">
       <use xlink:href="#NotoSans-Regular-31"/>
       <use xlink:href="#NotoSans-Regular-2c" transform="translate(57.199997 0)"/>
       <use xlink:href="#NotoSans-Regular-38" transform="translate(83.999985 0)"/>
       <use xlink:href="#NotoSans-Regular-30" transform="translate(141.199982 0)"/>
       <use xlink:href="#NotoSans-Regular-30" transform="translate(198.399979 0)"/>
      </g>
     </g>
    </g>
    <g id="xtick_11">
     <g id="line2d_11">
      <path d="M 748.654509 507.36 
L 748.654509 40.64 
" clip-path="url(#pa676937fb9)" style="fill: none; stroke: #f5f5f5; stroke-linecap: square"/>
     </g>
     <g id="text_11">
      <!-- 2,000 -->
      <g style="fill: #4d4d4d" transform="translate(717.981384 516.48) scale(0.12 -0.12)">
       <use xlink:href="#NotoSans-Regular-32"/>
       <use xlink:href="#NotoSans-Regular-2c" transform="translate(57.199997 0)"/>
       <use xlink:href="#NotoSans-Regular-30" transform="translate(83.999985 0)"/>
       <use xlink:href="#NotoSans-Regular-30" transform="translate(141.199982 0)"/>
       <use xlink:href="#NotoSans-Regular-30" transform="translate(198.399979 0)"/>
      </g>
     </g>
    </g>
    <g id="xtick_12">
     <g id="line2d_12">
      <path d="M 817.496761 507.36 
L 817.496761 40.64 
" clip-path="url(#pa676937fb9)" style="fill: none; stroke: #f5f5f5; stroke-linecap: square"/>
     </g>
     <g id="text_12">
      <!-- 2,200 -->
      <g style="fill: #4d4d4d" transform="translate(786.823636 516.48) scale(0.12 -0.12)">
       <use xlink:href="#NotoSans-Regular-32"/>
       <use xlink:href="#NotoSans-Regular-2c" transform="translate(57.199997 0)"/>
       <use xlink:href="#NotoSans-Regular-32" transform="translate(83.999985 0)"/>
       <use xlink:href="#NotoSans-Regular-30" transform="translate(141.199982 0)"/>
       <use xlink:href="#NotoSans-Regular-30" transform="translate(198.399979 0)"/>
      </g>
     </g>
    </g>
    <g id="xtick_13">
     <g id="line2d_13">
      <path d="M 25.810863 507.36 
L 25.810863 40.64 
" clip-path="url(#pa676937fb9)" style="fill: none; stroke: #f5f5f5; stroke-width: 0.5; stroke-linecap: square"/>
     </g>
    </g>
    <g id="xtick_14">
     <g id="line2d_14">
      <path d="M 94.653115 507.36 
L 94.653115 40.64 
" clip-path="url(#pa676937fb9)" style="fill: none; stroke: #f5f5f5; stroke-width: 0.5; stroke-linecap: square"/>
     </g>
    </g>
    <g id="xtick_15">
     <g id="line2d_15">
      <path d="M 163.495367 507.36 
L 163.495367 40.64 
" clip-path="url(#pa676937fb9)" style="fill: none; stroke: #f5f5f5; stroke-width: 0.5; stroke-linecap: square"/>
     </g>
    </g>
    <g id="xtick_16">
     <g id="line2d_16">
      <path d="M 232.337619 507.36 
L 232.337619 40.64 
" clip-path="url(#pa676937fb9)" style="fill: none; stroke: #f5f5f5; stroke-width: 0.5; stroke-linecap: square"/>
     </g>
    </g>
    <g id="xtick_17">
     <g id="line2d_17">
      <path d="M 301.179871 507.36 
L 301.179871 40.64 
" clip-path="url(#pa676937fb9)" style="fill: none; stroke: #f5f5f5; stroke-width: 0.5; stroke-linecap: square"/>
     </g>
    </g>
    <g id="xtick_18">
     <g id="line2d_18">
      <path d="M 370.022123 507.36 
L 370.022123 40.64 
" clip-path="url(#pa676937fb9)" style="fill: none; stroke: #f5f5f5; stroke-width: 0.5; stroke-linecap: square"/>
     </g>
    </g>
    <g id="xtick_19">
     <g id="line2d_19">
      <path d="M 438.864375 507.36 
L 438.864375 40.64 
" clip-path="url(#pa676937fb9)" style="fill: none; stroke: #f5f5f5; stroke-width: 0.5; stroke-linecap: square"/>
     </g>
    </g>
    <g id="xtick_20">
     <g id="line2d_20">
      <path d="M 507.706627 507.36 
L 507.706627 40.64 
" clip-path="url(#pa676937fb9)" style="fill: none; stroke: #f5f5f5; stroke-width: 0.5; stroke-linecap: square"/>
     </g>
    </g>
    <g id="xtick_21">
     <g id="line2d_21">
      <path d="M 576.548879 507.36 
L 576.548879 40.64 
" clip-path="url(#pa676937fb9)" style="fill: none; stroke: #f5f5f5; stroke-width: 0.5; stroke-linecap: square"/>
     </g>
    </g>
    <g id="xtick_22">
     <g id="line2d_22">
      <path d="M 645.391131 507.36 
L 645.391131 40.64 
" clip-path="url(#pa676937fb9)" style="fill: none; stroke: #f5f5f5; stroke-width: 0.5; stroke-linecap: square"/>
     </g>
    </g>
    <g id="xtick_23">
     <g id="line2d_23">
      <path d="M 714.233383 507.36 
L 714.233383 40.64 
" clip-path="url(#pa676937fb9)" style="fill: none; stroke: #f5f5f5; stroke-width: 0.5; stroke-linecap: square"/>
     </g>
    </g>
    <g id="xtick_24">
     <g id="line2d_24">
      <path d="M 783.075635 507.36 
L 783.075635 40.64 
" clip-path="url(#pa676937fb9)" style="fill: none; stroke: #f5f5f5; stroke-width: 0.5; stroke-linecap: square"/>
     </g>
    </g>
    <g id="xtick_25">
     <g id="line2d_25">
      <path d="M 851.917887 507.36 
L 851.917887 40.64 
" clip-path="url(#pa676937fb9)" style="fill: none; stroke: #f5f5f5; stroke-width: 0.5; stroke-linecap: square"/>
     </g>
    </g>
   </g>
   <g id="matplotlib.axis_2">
    <g id="ytick_1">
     <g id="line2d_26">
      <path d="M 22.36875 479.905882 
L 855.36 479.905882 
" clip-path="url(#pa676937fb9)" style="fill: none; stroke: #f5f5f5; stroke-linecap: square"/>
     </g>
     <g id="text_13">
      <!-- 3 -->
      <g style="fill: #4d4d4d" transform="translate(15.504375 484.465882) scale(0.12 -0.12)">
       <defs>
        <path id="NotoSans-Regular-33" d="M 3155 3501 
Q 3155 3194 3040 2970 
Q 2925 2746 2710 2605 
Q 2496 2464 2208 2406 
L 2208 2381 
Q 2758 2317 3027 2035 
Q 3296 1754 3296 1299 
Q 3296 902 3110 592 
Q 2925 282 2537 109 
Q 2150 -64 1542 -64 
Q 1184 -64 877 -9 
Q 570 45 288 186 
L 288 710 
Q 576 570 909 490 
Q 1242 410 1549 410 
Q 2163 410 2435 650 
Q 2707 890 2707 1312 
Q 2707 1600 2556 1776 
Q 2406 1952 2118 2035 
Q 1830 2118 1427 2118 
L 986 2118 
L 986 2598 
L 1434 2598 
Q 1811 2598 2064 2707 
Q 2317 2816 2448 3011 
Q 2579 3206 2579 3462 
Q 2579 3795 2355 3977 
Q 2131 4160 1747 4160 
Q 1504 4160 1305 4112 
Q 1107 4064 937 3977 
Q 768 3891 595 3776 
L 314 4160 
Q 557 4352 918 4493 
Q 1280 4634 1741 4634 
Q 2458 4634 2806 4314 
Q 3155 3994 3155 3501 
z
" transform="scale(0.015625)"/>
       </defs>
       <use xlink:href="#NotoSans-Regular-33"/>
      </g>
     </g>
    </g>
    <g id="ytick_2">
     <g id="line2d_27">
      <path d="M 22.36875 434.14902 
L 855.36 434.14902 
" clip-path="url(#pa676937fb9)" style="fill: none; stroke: #f5f5f5; stroke-linecap: square"/>
     </g>
     <g id="text_14">
      <!-- 15 -->
      <g style="fill: #4d4d4d" transform="translate(8.64 438.70902) scale(0.12 -0.12)">
       <defs>
        <path id="NotoSans-Regular-35" d="M 1760 2803 
Q 2227 2803 2572 2643 
Q 2918 2483 3107 2185 
Q 3296 1888 3296 1459 
Q 3296 986 3091 643 
Q 2886 301 2505 118 
Q 2125 -64 1587 -64 
Q 1235 -64 924 0 
Q 614 64 403 186 
L 403 717 
Q 634 576 963 496 
Q 1293 416 1594 416 
Q 1933 416 2185 521 
Q 2438 627 2579 848 
Q 2720 1069 2720 1402 
Q 2720 1850 2445 2090 
Q 2170 2330 1574 2330 
Q 1395 2330 1164 2298 
Q 934 2266 794 2234 
L 512 2413 
L 685 4570 
L 2976 4570 
L 2976 4058 
L 1165 4058 
L 1056 2733 
Q 1165 2752 1350 2777 
Q 1536 2803 1760 2803 
z
" transform="scale(0.015625)"/>
       </defs>
       <use xlink:href="#NotoSans-Regular-31"/>
       <use xlink:href="#NotoSans-Regular-35" transform="translate(57.199997 0)"/>
      </g>
     </g>
    </g>
    <g id="ytick_3">
     <g id="line2d_28">
      <path d="M 22.36875 388.392157 
L 855.36 388.392157 
" clip-path="url(#pa676937fb9)" style="fill: none; stroke: #f5f5f5; stroke-linecap: square"/>
     </g>
     <g id="text_15">
      <!-- 16 -->
      <g style="fill: #4d4d4d" transform="translate(8.64 392.952157) scale(0.12 -0.12)">
       <use xlink:href="#NotoSans-Regular-31"/>
       <use xlink:href="#NotoSans-Regular-36" transform="translate(57.199997 0)"/>
      </g>
     </g>
    </g>
    <g id="ytick_4">
     <g id="line2d_29">
      <path d="M 22.36875 342.635294 
L 855.36 342.635294 
" clip-path="url(#pa676937fb9)" style="fill: none; stroke: #f5f5f5; stroke-linecap: square"/>
     </g>
     <g id="text_16">
      <!-- 4 -->
      <g style="fill: #4d4d4d" transform="translate(15.504375 347.195294) scale(0.12 -0.12)">
       <use xlink:href="#NotoSans-Regular-34"/>
      </g>
     </g>
    </g>
    <g id="ytick_5">
     <g id="line2d_30">
      <path d="M 22.36875 296.878431 
L 855.36 296.878431 
" clip-path="url(#pa676937fb9)" style="fill: none; stroke: #f5f5f5; stroke-linecap: square"/>
     </g>
     <g id="text_17">
      <!-- 17 -->
      <g style="fill: #4d4d4d" transform="translate(8.64 301.438431) scale(0.12 -0.12)">
       <defs>
        <path id="NotoSans-Regular-37" d="M 870 0 
L 2746 4058 
L 282 4058 
L 282 4570 
L 3347 4570 
L 3347 4134 
L 1491 0 
L 870 0 
z
" transform="scale(0.015625)"/>
       </defs>
       <use xlink:href="#NotoSans-Regular-31"/>
       <use xlink:href="#NotoSans-Regular-37" transform="translate(57.199997 0)"/>
      </g>
     </g>
    </g>
    <g id="ytick_6">
     <g id="line2d_31">
      <path d="M 22.36875 251.121569 
L 855.36 251.121569 
" clip-path="url(#pa676937fb9)" style="fill: none; stroke: #f5f5f5; stroke-linecap: square"/>
     </g>
     <g id="text_18">
      <!-- 18 -->
      <g style="fill: #4d4d4d" transform="translate(8.64 255.681569) scale(0.12 -0.12)">
       <use xlink:href="#NotoSans-Regular-31"/>
       <use xlink:href="#NotoSans-Regular-38" transform="translate(57.199997 0)"/>
      </g>
     </g>
    </g>
    <g id="ytick_7">
     <g id="line2d_32">
      <path d="M 22.36875 205.364706 
L 855.36 205.364706 
" clip-path="url(#pa676937fb9)" style="fill: none; stroke: #f5f5f5; stroke-linecap: square"/>
     </g>
     <g id="text_19">
      <!-- 13 -->
      <g style="fill: #4d4d4d" transform="translate(8.64 209.924706) scale(0.12 -0.12)">
       <use xlink:href="#NotoSans-Regular-31"/>
       <use xlink:href="#NotoSans-Regular-33" transform="translate(57.199997 0)"/>
      </g>
     </g>
    </g>
    <g id="ytick_8">
     <g id="line2d_33">
      <path d="M 22.36875 159.607843 
L 855.36 159.607843 
" clip-path="url(#pa676937fb9)" style="fill: none; stroke: #f5f5f5; stroke-linecap: square"/>
     </g>
     <g id="text_20">
      <!-- 6 -->
      <g style="fill: #4d4d4d" transform="translate(15.504375 164.167843) scale(0.12 -0.12)">
       <use xlink:href="#NotoSans-Regular-36"/>
      </g>
     </g>
    </g>
    <g id="ytick_9">
     <g id="line2d_34">
      <path d="M 22.36875 113.85098 
L 855.36 113.85098 
" clip-path="url(#pa676937fb9)" style="fill: none; stroke: #f5f5f5; stroke-linecap: square"/>
     </g>
     <g id="text_21">
      <!-- 2 -->
      <g style="fill: #4d4d4d" transform="translate(15.504375 118.41098) scale(0.12 -0.12)">
       <use xlink:href="#NotoSans-Regular-32"/>
      </g>
     </g>
    </g>
    <g id="ytick_10">
     <g id="line2d_35">
      <path d="M 22.36875 68.094118 
L 855.36 68.094118 
" clip-path="url(#pa676937fb9)" style="fill: none; stroke: #f5f5f5; stroke-linecap: square"/>
     </g>
     <g id="text_22">
      <!-- 5 -->
      <g style="fill: #4d4d4d" transform="translate(15.504375 72.654118) scale(0.12 -0.12)">
       <use xlink:href="#NotoSans-Regular-35"/>
      </g>
     </g>
    </g>
   </g>
   <g id="LineCollection_1">
    <path d="M 135.929289 479.905882 
L 60.231989 479.905882 
" clip-path="url(#pa676937fb9)" style="fill: none; stroke: #bc955c; stroke-width: 2.835926"/>
   </g>
   <g id="LineCollection_2">
    <path d="M 150.332753 434.14902 
L 60.231989 434.14902 
" clip-path="url(#pa676937fb9)" style="fill: none; stroke: #bc955c; stroke-width: 2.835926"/>
   </g>
   <g id="LineCollection_3">
    <path d="M 190.799753 388.392157 
L 60.231989 388.392157 
" clip-path="url(#pa676937fb9)" style="fill: none; stroke: #bc955c; stroke-width: 2.835926"/>
   </g>
   <g id="LineCollection_4">
    <path d="M 250.555763 342.635294 
L 60.231989 342.635294 
" clip-path="url(#pa676937fb9)" style="fill: none; stroke: #bc955c; stroke-width: 2.835926"/>
   </g>
   <g id="LineCollection_5">
    <path d="M 251.153353 296.878431 
L 60.231989 296.878431 
" clip-path="url(#pa676937fb9)" style="fill: none; stroke: #bc955c; stroke-width: 2.835926"/>
   </g>
   <g id="LineCollection_6">
    <path d="M 263.077138 251.121569 
L 60.231989 251.121569 
" clip-path="url(#pa676937fb9)" style="fill: none; stroke: #bc955c; stroke-width: 2.835926"/>
   </g>
   <g id="LineCollection_7">
    <path d="M 272.106191 205.364706 
L 60.231989 205.364706 
" clip-path="url(#pa676937fb9)" style="fill: none; stroke: #bc955c; stroke-width: 2.835926"/>
   </g>
   <g id="LineCollection_8">
    <path d="M 289.817501 159.607843 
L 60.231989 159.607843 
" clip-path="url(#pa676937fb9)" style="fill: none; stroke: #bc955c; stroke-width: 2.835926"/>
   </g>
   <g id="LineCollection_9">
    <path d="M 341.772785 113.85098 
L 60.231989 113.85098 
" clip-path="url(#pa676937fb9)" style="fill: none; stroke: #bc955c; stroke-width: 2.835926"/>
   </g>
   <g id="LineCollection_10">
    <path d="M 780.68525 68.094118 
L 60.231989 68.094118 
" clip-path="url(#pa676937fb9)" style="fill: none; stroke: #bc955c; stroke-width: 2.835926"/>
   </g>
   <g id="PathCollection_1">
    <path d="M 780.68525 73.854593 
C 782.212945 73.854593 783.678276 73.247633 784.75852 72.167389 
C 785.838765 71.087145 786.445725 69.621813 786.445725 68.094118 
C 786.445725 66.566422 785.838765 65.101091 784.75852 64.020847 
C 783.678276 62.940603 782.212945 62.333643 780.68525 62.333643 
C 779.157554 62.333643 777.692223 62.940603 776.611979 64.020847 
C 775.531734 65.101091 774.924775 66.566422 774.924775 68.094118 
C 774.924775 69.621813 775.531734 71.087145 776.611979 72.167389 
C 777.692223 73.247633 779.157554 73.854593 780.68525 73.854593 
z
" clip-path="url(#pa676937fb9)" style="fill: #9f2241; stroke: #bc955c; stroke-width: 0.886227"/>
    <path d="M 341.772785 119.611455 
C 343.300481 119.611455 344.765812 119.004495 345.846056 117.924251 
C 346.9263 116.844007 347.53326 115.378676 347.53326 113.85098 
C 347.53326 112.323285 346.9263 110.857954 345.846056 109.777709 
C 344.765812 108.697465 343.300481 108.090505 341.772785 108.090505 
C 340.24509 108.090505 338.779759 108.697465 337.699514 109.777709 
C 336.61927 110.857954 336.01231 112.323285 336.01231 113.85098 
C 336.01231 115.378676 336.61927 116.844007 337.699514 117.924251 
C 338.779759 119.004495 340.24509 119.611455 341.772785 119.611455 
z
" clip-path="url(#pa676937fb9)" style="fill: #9f2241; stroke: #bc955c; stroke-width: 0.886227"/>
    <path d="M 289.817501 165.368318 
C 291.345197 165.368318 292.810528 164.761358 293.890772 163.681114 
C 294.971016 162.60087 295.577976 161.135539 295.577976 159.607843 
C 295.577976 158.080147 294.971016 156.614816 293.890772 155.534572 
C 292.810528 154.454328 291.345197 153.847368 289.817501 153.847368 
C 288.289805 153.847368 286.824474 154.454328 285.74423 155.534572 
C 284.663986 156.614816 284.057026 158.080147 284.057026 159.607843 
C 284.057026 161.135539 284.663986 162.60087 285.74423 163.681114 
C 286.824474 164.761358 288.289805 165.368318 289.817501 165.368318 
z
" clip-path="url(#pa676937fb9)" style="fill: #9f2241; stroke: #bc955c; stroke-width: 0.886227"/>
    <path d="M 272.106191 211.125181 
C 273.633887 211.125181 275.099218 210.518221 276.179462 209.437977 
C 277.259706 208.357733 277.866666 206.892402 277.866666 205.364706 
C 277.866666 203.83701 277.259706 202.371679 276.179462 201.291435 
C 275.099218 200.211191 273.633887 199.604231 272.106191 199.604231 
C 270.578495 199.604231 269.113164 200.211191 268.03292 201.291435 
C 266.952676 202.371679 266.345716 203.83701 266.345716 205.364706 
C 266.345716 206.892402 266.952676 208.357733 268.03292 209.437977 
C 269.113164 210.518221 270.578495 211.125181 272.106191 211.125181 
z
" clip-path="url(#pa676937fb9)" style="fill: #9f2241; stroke: #bc955c; stroke-width: 0.886227"/>
    <path d="M 263.077138 256.882044 
C 264.604834 256.882044 266.070165 256.275084 267.150409 255.19484 
C 268.230653 254.114595 268.837613 252.649264 268.837613 251.121569 
C 268.837613 249.593873 268.230653 248.128542 267.150409 247.048298 
C 266.070165 245.968054 264.604834 245.361094 263.077138 245.361094 
C 261.549442 245.361094 260.084111 245.968054 259.003867 247.048298 
C 257.923623 248.128542 257.316663 249.593873 257.316663 251.121569 
C 257.316663 252.649264 257.923623 254.114595 259.003867 255.19484 
C 260.084111 256.275084 261.549442 256.882044 263.077138 256.882044 
z
" clip-path="url(#pa676937fb9)" style="fill: #9f2241; stroke: #bc955c; stroke-width: 0.886227"/>
    <path d="M 251.153353 302.638906 
C 252.681048 302.638906 254.14638 302.031946 255.226624 300.951702 
C 256.306868 299.871458 256.913828 298.406127 256.913828 296.878431 
C 256.913828 295.350736 256.306868 293.885405 255.226624 292.80516 
C 254.14638 291.724916 252.681048 291.117956 251.153353 291.117956 
C 249.625657 291.117956 248.160326 291.724916 247.080082 292.80516 
C 245.999838 293.885405 245.392878 295.350736 245.392878 296.878431 
C 245.392878 298.406127 245.999838 299.871458 247.080082 300.951702 
C 248.160326 302.031946 249.625657 302.638906 251.153353 302.638906 
z
" clip-path="url(#pa676937fb9)" style="fill: #9f2241; stroke: #bc955c; stroke-width: 0.886227"/>
    <path d="M 250.555763 348.395769 
C 252.083459 348.395769 253.54879 347.788809 254.629034 346.708565 
C 255.709278 345.628321 256.316238 344.16299 256.316238 342.635294 
C 256.316238 341.107598 255.709278 339.642267 254.629034 338.562023 
C 253.54879 337.481779 252.083459 336.874819 250.555763 336.874819 
C 249.028067 336.874819 247.562736 337.481779 246.482492 338.562023 
C 245.402248 339.642267 244.795288 341.107598 244.795288 342.635294 
C 244.795288 344.16299 245.402248 345.628321 246.482492 346.708565 
C 247.562736 347.788809 249.028067 348.395769 250.555763 348.395769 
z
" clip-path="url(#pa676937fb9)" style="fill: #9f2241; stroke: #bc955c; stroke-width: 0.886227"/>
    <path d="M 190.799753 394.152632 
C 192.327449 394.152632 193.79278 393.545672 194.873024 392.465428 
C 195.953268 391.385184 196.560228 389.919853 196.560228 388.392157 
C 196.560228 386.864461 195.953268 385.39913 194.873024 384.318886 
C 193.79278 383.238642 192.327449 382.631682 190.799753 382.631682 
C 189.272057 382.631682 187.806726 383.238642 186.726482 384.318886 
C 185.646238 385.39913 185.039278 386.864461 185.039278 388.392157 
C 185.039278 389.919853 185.646238 391.385184 186.726482 392.465428 
C 187.806726 393.545672 189.272057 394.152632 190.799753 394.152632 
z
" clip-path="url(#pa676937fb9)" style="fill: #9f2241; stroke: #bc955c; stroke-width: 0.886227"/>
    <path d="M 150.332753 439.909495 
C 151.860449 439.909495 153.32578 439.302535 154.406024 438.222291 
C 155.486268 437.142046 156.093228 435.676715 156.093228 434.14902 
C 156.093228 432.621324 155.486268 431.155993 154.406024 430.075749 
C 153.32578 428.995505 151.860449 428.388545 150.332753 428.388545 
C 148.805057 428.388545 147.339726 428.995505 146.259482 430.075749 
C 145.179238 431.155993 144.572278 432.621324 144.572278 434.14902 
C 144.572278 435.676715 145.179238 437.142046 146.259482 438.222291 
C 147.339726 439.302535 148.805057 439.909495 150.332753 439.909495 
z
" clip-path="url(#pa676937fb9)" style="fill: #9f2241; stroke: #bc955c; stroke-width: 0.886227"/>
    <path d="M 135.929289 485.666357 
C 137.456984 485.666357 138.922315 485.059397 140.00256 483.979153 
C 141.082804 482.898909 141.689764 481.433578 141.689764 479.905882 
C 141.689764 478.378187 141.082804 476.912855 140.00256 475.832611 
C 138.922315 474.752367 137.456984 474.145407 135.929289 474.145407 
C 134.401593 474.145407 132.936262 474.752367 131.856018 475.832611 
C 130.775774 476.912855 130.168814 478.378187 130.168814 479.905882 
C 130.168814 481.433578 130.775774 482.898909 131.856018 483.979153 
C 132.936262 485.059397 134.401593 485.666357 135.929289 485.666357 
z
" clip-path="url(#pa676937fb9)" style="fill: #9f2241; stroke: #bc955c; stroke-width: 0.886227"/>
   </g>
  </g>
  <g id="text_23">
   <!-- Gasto por Subprograma -->
   <g style="fill: #691c32" transform="translate(22.36875 25.36) scale(0.22 -0.22)">
    <defs>
     <path id="NotoSans-Bold-47" d="M 2310 2566 
L 4122 2566 
L 4122 198 
Q 3763 77 3376 6 
Q 2989 -64 2496 -64 
Q 1818 -64 1341 205 
Q 864 474 617 998 
Q 371 1523 371 2291 
Q 371 3008 649 3533 
Q 928 4058 1459 4346 
Q 1990 4634 2758 4634 
Q 3123 4634 3475 4557 
Q 3827 4480 4115 4352 
L 3795 3578 
Q 3584 3686 3315 3756 
Q 3046 3827 2752 3827 
Q 2330 3827 2019 3635 
Q 1709 3443 1539 3094 
Q 1370 2746 1370 2272 
Q 1370 1824 1491 1478 
Q 1613 1133 1875 937 
Q 2138 742 2560 742 
Q 2765 742 2909 761 
Q 3053 781 3174 806 
L 3174 1760 
L 2310 1760 
L 2310 2566 
z
" transform="scale(0.015625)"/>
     <path id="NotoSans-Bold-61" d="M 1933 3565 
Q 2637 3565 3011 3261 
Q 3386 2957 3386 2330 
L 3386 0 
L 2720 0 
L 2534 474 
L 2509 474 
Q 2362 288 2205 166 
Q 2048 45 1846 -9 
Q 1645 -64 1350 -64 
Q 1043 -64 796 54 
Q 550 173 409 419 
Q 269 666 269 1043 
Q 269 1600 659 1865 
Q 1050 2131 1830 2157 
L 2438 2176 
L 2438 2330 
Q 2438 2605 2294 2733 
Q 2150 2861 1894 2861 
Q 1638 2861 1395 2787 
Q 1152 2714 909 2605 
L 595 3251 
Q 877 3398 1219 3481 
Q 1562 3565 1933 3565 
z
M 2067 1606 
Q 1606 1594 1427 1440 
Q 1248 1286 1248 1037 
Q 1248 819 1376 726 
Q 1504 634 1709 634 
Q 2016 634 2227 816 
Q 2438 998 2438 1331 
L 2438 1619 
L 2067 1606 
z
" transform="scale(0.015625)"/>
     <path id="NotoSans-Bold-73" d="M 2938 1037 
Q 2938 685 2771 438 
Q 2605 192 2272 64 
Q 1939 -64 1446 -64 
Q 1082 -64 819 -16 
Q 557 32 294 141 
L 294 928 
Q 576 800 902 717 
Q 1229 634 1478 634 
Q 1760 634 1878 717 
Q 1997 800 1997 934 
Q 1997 1024 1949 1094 
Q 1901 1165 1741 1254 
Q 1581 1344 1242 1485 
Q 915 1626 704 1763 
Q 493 1901 390 2096 
Q 288 2291 288 2586 
Q 288 3072 665 3315 
Q 1043 3558 1670 3558 
Q 1997 3558 2291 3494 
Q 2586 3430 2899 3283 
L 2611 2598 
Q 2355 2707 2124 2780 
Q 1894 2854 1658 2854 
Q 1446 2854 1340 2796 
Q 1235 2739 1235 2624 
Q 1235 2541 1289 2473 
Q 1344 2406 1501 2329 
Q 1658 2253 1965 2125 
Q 2266 2003 2483 1872 
Q 2701 1741 2819 1545 
Q 2938 1350 2938 1037 
z
" transform="scale(0.015625)"/>
     <path id="NotoSans-Bold-74" d="M 1971 698 
Q 2131 698 2278 730 
Q 2426 762 2573 806 
L 2573 96 
Q 2419 32 2192 -16 
Q 1965 -64 1696 -64 
Q 1382 -64 1136 38 
Q 890 141 746 393 
Q 602 646 602 1094 
L 602 2778 
L 147 2778 
L 147 3181 
L 672 3501 
L 947 4237 
L 1555 4237 
L 1555 3494 
L 2534 3494 
L 2534 2778 
L 1555 2778 
L 1555 1094 
Q 1555 896 1670 797 
Q 1786 698 1971 698 
z
" transform="scale(0.015625)"/>
     <path id="NotoSans-Bold-6f" d="M 3674 1754 
Q 3674 1318 3555 979 
Q 3437 640 3216 406 
Q 2995 173 2681 54 
Q 2368 -64 1971 -64 
Q 1606 -64 1296 54 
Q 986 173 762 406 
Q 538 640 413 979 
Q 288 1318 288 1754 
Q 288 2336 493 2736 
Q 698 3136 1082 3347 
Q 1466 3558 1990 3558 
Q 2483 3558 2860 3347 
Q 3238 3136 3456 2736 
Q 3674 2336 3674 1754 
z
M 1261 1754 
Q 1261 1408 1334 1174 
Q 1408 941 1568 822 
Q 1728 704 1984 704 
Q 2240 704 2397 822 
Q 2554 941 2627 1174 
Q 2701 1408 2701 1754 
Q 2701 2099 2627 2329 
Q 2554 2560 2394 2675 
Q 2234 2790 1978 2790 
Q 1600 2790 1430 2531 
Q 1261 2272 1261 1754 
z
" transform="scale(0.015625)"/>
     <path id="NotoSans-Bold-20" transform="scale(0.015625)"/>
     <path id="NotoSans-Bold-70" d="M 2445 3558 
Q 3034 3558 3398 3100 
Q 3763 2643 3763 1754 
Q 3763 1158 3590 752 
Q 3418 346 3117 141 
Q 2816 -64 2419 -64 
Q 2170 -64 1987 0 
Q 1805 64 1677 166 
Q 1549 269 1453 384 
L 1402 384 
Q 1427 262 1440 131 
Q 1453 0 1453 -128 
L 1453 -1536 
L 499 -1536 
L 499 3494 
L 1274 3494 
L 1408 3040 
L 1453 3040 
Q 1549 3181 1683 3299 
Q 1818 3418 2006 3488 
Q 2195 3558 2445 3558 
z
M 2138 2797 
Q 1888 2797 1741 2694 
Q 1594 2592 1526 2384 
Q 1459 2176 1453 1862 
L 1453 1760 
Q 1453 1421 1517 1187 
Q 1581 954 1734 832 
Q 1888 710 2150 710 
Q 2368 710 2509 832 
Q 2650 954 2720 1190 
Q 2790 1427 2790 1766 
Q 2790 2278 2633 2537 
Q 2477 2797 2138 2797 
z
" transform="scale(0.015625)"/>
     <path id="NotoSans-Bold-72" d="M 2451 3558 
Q 2522 3558 2618 3552 
Q 2714 3546 2771 3533 
L 2701 2637 
Q 2656 2650 2569 2659 
Q 2483 2669 2419 2669 
Q 2234 2669 2061 2621 
Q 1888 2573 1750 2470 
Q 1613 2368 1533 2198 
Q 1453 2029 1453 1779 
L 1453 0 
L 499 0 
L 499 3494 
L 1222 3494 
L 1363 2906 
L 1408 2906 
Q 1510 3085 1664 3232 
Q 1818 3379 2019 3468 
Q 2221 3558 2451 3558 
z
" transform="scale(0.015625)"/>
     <path id="NotoSans-Bold-53" d="M 3270 1267 
Q 3270 864 3072 563 
Q 2874 262 2499 99 
Q 2125 -64 1587 -64 
Q 1350 -64 1123 -32 
Q 896 0 688 61 
Q 480 122 294 211 
L 294 1114 
Q 621 973 969 854 
Q 1318 736 1664 736 
Q 1901 736 2045 800 
Q 2189 864 2256 973 
Q 2323 1082 2323 1222 
Q 2323 1395 2204 1516 
Q 2086 1638 1888 1744 
Q 1690 1850 1434 1971 
Q 1274 2048 1088 2153 
Q 902 2259 732 2416 
Q 563 2573 454 2797 
Q 346 3021 346 3334 
Q 346 3744 534 4035 
Q 723 4326 1072 4480 
Q 1421 4634 1894 4634 
Q 2253 4634 2576 4550 
Q 2899 4467 3251 4314 
L 2938 3558 
Q 2624 3686 2374 3756 
Q 2125 3827 1862 3827 
Q 1683 3827 1555 3769 
Q 1427 3712 1360 3609 
Q 1293 3507 1293 3366 
Q 1293 3206 1389 3094 
Q 1485 2982 1677 2880 
Q 1869 2778 2157 2637 
Q 2509 2470 2755 2291 
Q 3002 2112 3136 1869 
Q 3270 1626 3270 1267 
z
" transform="scale(0.015625)"/>
     <path id="NotoSans-Bold-75" d="M 3706 3494 
L 3706 0 
L 2976 0 
L 2848 448 
L 2797 448 
Q 2688 269 2518 157 
Q 2349 45 2144 -9 
Q 1939 -64 1722 -64 
Q 1350 -64 1068 70 
Q 787 205 633 486 
Q 480 768 480 1216 
L 480 3494 
L 1434 3494 
L 1434 1453 
Q 1434 1082 1568 890 
Q 1702 698 1997 698 
Q 2291 698 2454 832 
Q 2618 966 2685 1222 
Q 2752 1478 2752 1850 
L 2752 3494 
L 3706 3494 
z
" transform="scale(0.015625)"/>
     <path id="NotoSans-Bold-62" d="M 1453 3731 
Q 1453 3533 1440 3341 
Q 1427 3149 1414 3040 
L 1453 3040 
Q 1594 3258 1830 3408 
Q 2067 3558 2445 3558 
Q 3034 3558 3398 3100 
Q 3763 2643 3763 1754 
Q 3763 1158 3593 752 
Q 3424 346 3123 141 
Q 2822 -64 2419 -64 
Q 2035 -64 1814 73 
Q 1594 211 1453 384 
L 1389 384 
L 1229 0 
L 499 0 
L 499 4864 
L 1453 4864 
L 1453 3731 
z
M 2138 2797 
Q 1888 2797 1741 2694 
Q 1594 2592 1526 2384 
Q 1459 2176 1453 1862 
L 1453 1760 
Q 1453 1254 1603 982 
Q 1754 710 2150 710 
Q 2445 710 2617 982 
Q 2790 1254 2790 1766 
Q 2790 2278 2614 2537 
Q 2438 2797 2138 2797 
z
" transform="scale(0.015625)"/>
     <path id="NotoSans-Bold-67" d="M 1632 3558 
Q 1952 3558 2208 3430 
Q 2464 3302 2643 3046 
L 2669 3046 
L 2746 3494 
L 3552 3494 
L 3552 -6 
Q 3552 -506 3357 -845 
Q 3162 -1184 2771 -1360 
Q 2381 -1536 1805 -1536 
Q 1434 -1536 1117 -1491 
Q 800 -1446 499 -1331 
L 499 -570 
Q 819 -704 1161 -771 
Q 1504 -838 1862 -838 
Q 2234 -838 2416 -640 
Q 2598 -442 2598 -45 
L 2598 26 
Q 2598 134 2608 249 
Q 2618 365 2624 454 
L 2598 454 
Q 2419 179 2169 57 
Q 1920 -64 1606 -64 
Q 986 -64 637 413 
Q 288 890 288 1741 
Q 288 2598 646 3078 
Q 1005 3558 1632 3558 
z
M 1933 2784 
Q 1709 2784 1558 2665 
Q 1408 2547 1334 2313 
Q 1261 2080 1261 1728 
Q 1261 1203 1427 944 
Q 1594 685 1946 685 
Q 2131 685 2265 733 
Q 2400 781 2486 893 
Q 2573 1005 2617 1184 
Q 2662 1363 2662 1619 
L 2662 1734 
Q 2662 2112 2585 2342 
Q 2509 2573 2349 2678 
Q 2189 2784 1933 2784 
z
" transform="scale(0.015625)"/>
     <path id="NotoSans-Bold-6d" d="M 4602 3558 
Q 5197 3558 5501 3254 
Q 5805 2950 5805 2278 
L 5805 0 
L 4851 0 
L 4851 2042 
Q 4851 2419 4723 2608 
Q 4595 2797 4326 2797 
Q 3949 2797 3789 2528 
Q 3629 2259 3629 1754 
L 3629 0 
L 2675 0 
L 2675 2042 
Q 2675 2291 2617 2457 
Q 2560 2624 2445 2710 
Q 2330 2797 2150 2797 
Q 1888 2797 1734 2662 
Q 1581 2528 1517 2272 
Q 1453 2016 1453 1645 
L 1453 0 
L 499 0 
L 499 3494 
L 1229 3494 
L 1357 3046 
L 1408 3046 
Q 1517 3226 1677 3338 
Q 1837 3450 2032 3504 
Q 2227 3558 2426 3558 
Q 2810 3558 3078 3433 
Q 3347 3309 3488 3046 
L 3571 3046 
Q 3731 3315 4016 3436 
Q 4301 3558 4602 3558 
z
" transform="scale(0.015625)"/>
    </defs>
    <use xlink:href="#NotoSans-Bold-47"/>
    <use xlink:href="#NotoSans-Bold-61" transform="translate(72.399994 0)"/>
    <use xlink:href="#NotoSans-Bold-73" transform="translate(132.799988 0)"/>
    <use xlink:href="#NotoSans-Bold-74" transform="translate(182.499985 0)"/>
    <use xlink:href="#NotoSans-Bold-6f" transform="translate(225.899979 0)"/>
    <use xlink:href="#NotoSans-Bold-20" transform="translate(287.799973 0)"/>
    <use xlink:href="#NotoSans-Bold-70" transform="translate(313.799957 0)"/>
    <use xlink:href="#NotoSans-Bold-6f" transform="translate(377.099945 0)"/>
    <use xlink:href="#NotoSans-Bold-72" transform="translate(438.999939 0)"/>
    <use xlink:href="#NotoSans-Bold-20" transform="translate(484.399933 0)"/>
    <use xlink:href="#NotoSans-Bold-53" transform="translate(510.399918 0)"/>
    <use xlink:href="#NotoSans-Bold-75" transform="translate(565.499908 0)"/>
    <use xlink:href="#NotoSans-Bold-62" transform="translate(631.199905 0)"/>
    <use xlink:href="#NotoSans-Bold-70" transform="translate(694.499893 0)"/>
    <use xlink:href="#NotoSans-Bold-72" transform="translate(757.799881 0)"/>
    <use xlink:href="#NotoSans-Bold-6f" transform="translate(803.199875 0)"/>
    <use xlink:href="#NotoSans-Bold-67" transform="translate(865.099869 0)"/>
    <use xlink:href="#NotoSans-Bold-72" transform="translate(928.399857 0)"/>
    <use xlink:href="#NotoSans-Bold-61" transform="translate(973.79985 0)"/>
    <use xlink:href="#NotoSans-Bold-6d" transform="translate(1034.199844 0)"/>
    <use xlink:href="#NotoSans-Bold-61" transform="translate(1132.399826 0)"/>
   </g>
  </g>
  <g id="text_24">
   <!-- Fuente: Informe Estatal de Evaluación 2024 -->
   <g style="fill: #98989a" transform="translate(22.36875 564) scale(0.14 -0.14)">
    <defs>
     <path id="NotoSans-Regular-46" d="M 1197 0 
L 621 0 
L 621 4570 
L 3174 4570 
L 3174 4064 
L 1197 4064 
L 1197 2445 
L 3053 2445 
L 3053 1939 
L 1197 1939 
L 1197 0 
z
" transform="scale(0.015625)"/>
     <path id="NotoSans-Regular-75" d="M 3411 3430 
L 3411 0 
L 2950 0 
L 2867 454 
L 2842 454 
Q 2733 275 2560 160 
Q 2387 45 2182 -9 
Q 1978 -64 1754 -64 
Q 1344 -64 1065 67 
Q 787 198 646 473 
Q 506 749 506 1184 
L 506 3430 
L 1075 3430 
L 1075 1222 
Q 1075 813 1260 608 
Q 1446 403 1837 403 
Q 2221 403 2441 547 
Q 2662 691 2755 969 
Q 2848 1248 2848 1645 
L 2848 3430 
L 3411 3430 
z
" transform="scale(0.015625)"/>
     <path id="NotoSans-Regular-65" d="M 1869 3494 
Q 2310 3494 2627 3302 
Q 2944 3110 3113 2761 
Q 3283 2413 3283 1946 
L 3283 1606 
L 934 1606 
Q 947 1024 1232 720 
Q 1517 416 2029 416 
Q 2355 416 2608 477 
Q 2861 538 3130 653 
L 3130 160 
Q 2867 45 2611 -9 
Q 2355 -64 2003 -64 
Q 1517 -64 1142 134 
Q 768 333 560 726 
Q 352 1120 352 1690 
Q 352 2253 541 2656 
Q 730 3059 1072 3276 
Q 1414 3494 1869 3494 
z
M 1862 3034 
Q 1459 3034 1225 2774 
Q 992 2515 947 2054 
L 2694 2054 
Q 2694 2349 2604 2566 
Q 2515 2784 2332 2909 
Q 2150 3034 1862 3034 
z
" transform="scale(0.015625)"/>
     <path id="NotoSans-Regular-6e" d="M 2195 3494 
Q 2810 3494 3123 3196 
Q 3437 2899 3437 2234 
L 3437 0 
L 2880 0 
L 2880 2195 
Q 2880 2611 2694 2816 
Q 2509 3021 2112 3021 
Q 1542 3021 1324 2701 
Q 1107 2381 1107 1779 
L 1107 0 
L 544 0 
L 544 3430 
L 998 3430 
L 1082 2963 
L 1114 2963 
Q 1229 3142 1398 3260 
Q 1568 3379 1773 3436 
Q 1978 3494 2195 3494 
z
" transform="scale(0.015625)"/>
     <path id="NotoSans-Regular-74" d="M 1690 397 
Q 1818 397 1952 419 
Q 2086 442 2170 467 
L 2170 38 
Q 2080 -6 1913 -35 
Q 1747 -64 1594 -64 
Q 1325 -64 1097 29 
Q 870 122 729 352 
Q 589 582 589 998 
L 589 2995 
L 102 2995 
L 102 3264 
L 595 3488 
L 819 4218 
L 1152 4218 
L 1152 3430 
L 2144 3430 
L 2144 2995 
L 1152 2995 
L 1152 1011 
Q 1152 698 1302 547 
Q 1453 397 1690 397 
z
" transform="scale(0.015625)"/>
     <path id="NotoSans-Regular-3a" d="M 461 346 
Q 461 582 576 678 
Q 691 774 851 774 
Q 1018 774 1136 678 
Q 1254 582 1254 346 
Q 1254 115 1136 12 
Q 1018 -90 851 -90 
Q 691 -90 576 12 
Q 461 115 461 346 
z
M 461 3085 
Q 461 3328 576 3424 
Q 691 3520 851 3520 
Q 1018 3520 1136 3424 
Q 1254 3328 1254 3085 
Q 1254 2854 1136 2752 
Q 1018 2650 851 2650 
Q 691 2650 576 2752 
Q 461 2854 461 3085 
z
" transform="scale(0.015625)"/>
     <path id="NotoSans-Regular-20" transform="scale(0.015625)"/>
     <path id="NotoSans-Regular-49" d="M 1907 0 
L 256 0 
L 256 333 
L 794 454 
L 794 4109 
L 256 4237 
L 256 4570 
L 1907 4570 
L 1907 4237 
L 1370 4109 
L 1370 454 
L 1907 333 
L 1907 0 
z
" transform="scale(0.015625)"/>
     <path id="NotoSans-Regular-66" d="M 2125 2995 
L 1261 2995 
L 1261 0 
L 698 0 
L 698 2995 
L 96 2995 
L 96 3258 
L 698 3450 
L 698 3648 
Q 698 4090 829 4365 
Q 960 4640 1209 4768 
Q 1459 4896 1811 4896 
Q 2016 4896 2185 4861 
Q 2355 4826 2477 4781 
L 2330 4339 
Q 2227 4371 2092 4403 
Q 1958 4435 1818 4435 
Q 1536 4435 1398 4246 
Q 1261 4058 1261 3654 
L 1261 3430 
L 2125 3430 
L 2125 2995 
z
" transform="scale(0.015625)"/>
     <path id="NotoSans-Regular-6f" d="M 3526 1722 
Q 3526 1293 3414 963 
Q 3302 634 3094 403 
Q 2886 173 2588 54 
Q 2291 -64 1926 -64 
Q 1587 -64 1299 54 
Q 1011 173 800 403 
Q 589 634 470 963 
Q 352 1293 352 1722 
Q 352 2291 544 2684 
Q 736 3078 1094 3286 
Q 1453 3494 1946 3494 
Q 2413 3494 2768 3286 
Q 3123 3078 3324 2684 
Q 3526 2291 3526 1722 
z
M 934 1722 
Q 934 1318 1040 1020 
Q 1146 723 1370 563 
Q 1594 403 1939 403 
Q 2285 403 2509 563 
Q 2733 723 2838 1020 
Q 2944 1318 2944 1722 
Q 2944 2131 2835 2419 
Q 2726 2707 2505 2864 
Q 2285 3021 1933 3021 
Q 1408 3021 1171 2675 
Q 934 2330 934 1722 
z
" transform="scale(0.015625)"/>
     <path id="NotoSans-Regular-72" d="M 2144 3494 
Q 2240 3494 2352 3484 
Q 2464 3475 2547 3456 
L 2477 2938 
Q 2394 2957 2294 2969 
Q 2195 2982 2106 2982 
Q 1907 2982 1728 2899 
Q 1549 2816 1408 2665 
Q 1267 2515 1187 2304 
Q 1107 2093 1107 1830 
L 1107 0 
L 544 0 
L 544 3430 
L 1005 3430 
L 1069 2803 
L 1094 2803 
Q 1203 2995 1356 3152 
Q 1510 3309 1708 3401 
Q 1907 3494 2144 3494 
z
" transform="scale(0.015625)"/>
     <path id="NotoSans-Regular-6d" d="M 4307 3494 
Q 4890 3494 5178 3196 
Q 5466 2899 5466 2234 
L 5466 0 
L 4909 0 
L 4909 2208 
Q 4909 2611 4739 2816 
Q 4570 3021 4211 3021 
Q 3712 3021 3497 2733 
Q 3283 2445 3283 1894 
L 3283 0 
L 2726 0 
L 2726 2208 
Q 2726 2477 2649 2659 
Q 2573 2842 2419 2931 
Q 2266 3021 2022 3021 
Q 1677 3021 1478 2877 
Q 1280 2733 1193 2457 
Q 1107 2182 1107 1779 
L 1107 0 
L 544 0 
L 544 3430 
L 998 3430 
L 1082 2963 
L 1114 2963 
Q 1222 3142 1379 3260 
Q 1536 3379 1728 3436 
Q 1920 3494 2125 3494 
Q 2522 3494 2787 3353 
Q 3053 3213 3174 2918 
L 3206 2918 
Q 3379 3213 3676 3353 
Q 3974 3494 4307 3494 
z
" transform="scale(0.015625)"/>
     <path id="NotoSans-Regular-45" d="M 3174 0 
L 621 0 
L 621 4570 
L 3174 4570 
L 3174 4064 
L 1197 4064 
L 1197 2637 
L 3059 2637 
L 3059 2138 
L 1197 2138 
L 1197 506 
L 3174 506 
L 3174 0 
z
" transform="scale(0.015625)"/>
     <path id="NotoSans-Regular-73" d="M 2778 947 
Q 2778 614 2611 390 
Q 2445 166 2137 51 
Q 1830 -64 1408 -64 
Q 1050 -64 790 -6 
Q 531 51 333 154 
L 333 666 
Q 538 563 829 476 
Q 1120 390 1421 390 
Q 1850 390 2042 528 
Q 2234 666 2234 896 
Q 2234 1024 2163 1126 
Q 2093 1229 1910 1331 
Q 1728 1434 1389 1562 
Q 1056 1690 819 1818 
Q 582 1946 454 2125 
Q 326 2304 326 2586 
Q 326 3021 681 3257 
Q 1037 3494 1613 3494 
Q 1926 3494 2198 3433 
Q 2470 3373 2707 3264 
L 2515 2816 
Q 2298 2906 2061 2970 
Q 1824 3034 1574 3034 
Q 1229 3034 1046 2922 
Q 864 2810 864 2618 
Q 864 2477 947 2377 
Q 1030 2278 1225 2185 
Q 1421 2093 1747 1965 
Q 2074 1843 2304 1715 
Q 2534 1587 2656 1404 
Q 2778 1222 2778 947 
z
" transform="scale(0.015625)"/>
     <path id="NotoSans-Regular-61" d="M 1843 3488 
Q 2470 3488 2771 3213 
Q 3072 2938 3072 2336 
L 3072 0 
L 2662 0 
L 2554 486 
L 2528 486 
Q 2381 301 2224 176 
Q 2067 51 1865 -6 
Q 1664 -64 1376 -64 
Q 1069 -64 822 45 
Q 576 154 435 381 
Q 294 608 294 954 
Q 294 1466 697 1744 
Q 1101 2022 1939 2048 
L 2522 2067 
L 2522 2272 
Q 2522 2701 2336 2867 
Q 2150 3034 1811 3034 
Q 1542 3034 1299 2954 
Q 1056 2874 845 2771 
L 672 3194 
Q 896 3315 1203 3401 
Q 1510 3488 1843 3488 
z
M 2010 1658 
Q 1370 1632 1123 1453 
Q 877 1274 877 947 
Q 877 659 1053 524 
Q 1229 390 1504 390 
Q 1939 390 2227 630 
Q 2515 870 2515 1370 
L 2515 1677 
L 2010 1658 
z
" transform="scale(0.015625)"/>
     <path id="NotoSans-Regular-6c" d="M 1107 0 
L 544 0 
L 544 4864 
L 1107 4864 
L 1107 0 
z
" transform="scale(0.015625)"/>
     <path id="NotoSans-Regular-64" d="M 1760 -64 
Q 1120 -64 736 381 
Q 352 826 352 1709 
Q 352 2592 739 3043 
Q 1126 3494 1766 3494 
Q 2035 3494 2233 3427 
Q 2432 3360 2579 3245 
Q 2726 3130 2829 2989 
L 2867 2989 
Q 2861 3072 2845 3235 
Q 2829 3398 2829 3494 
L 2829 4864 
L 3392 4864 
L 3392 0 
L 2938 0 
L 2854 461 
L 2829 461 
Q 2726 314 2579 195 
Q 2432 77 2230 6 
Q 2029 -64 1760 -64 
z
M 1850 403 
Q 2394 403 2614 700 
Q 2835 998 2835 1600 
L 2835 1702 
Q 2835 2342 2624 2684 
Q 2413 3027 1843 3027 
Q 1389 3027 1161 2665 
Q 934 2304 934 1696 
Q 934 1082 1161 742 
Q 1389 403 1850 403 
z
" transform="scale(0.015625)"/>
     <path id="NotoSans-Regular-76" d="M 1299 0 
L 0 3430 
L 602 3430 
L 1331 1408 
Q 1382 1267 1440 1094 
Q 1498 922 1542 765 
Q 1587 608 1606 499 
L 1632 499 
Q 1658 608 1706 768 
Q 1754 928 1814 1101 
Q 1875 1274 1920 1408 
L 2650 3430 
L 3251 3430 
L 1946 0 
L 1299 0 
z
" transform="scale(0.015625)"/>
     <path id="NotoSans-Regular-63" d="M 1920 -64 
Q 1466 -64 1110 121 
Q 755 307 553 697 
Q 352 1088 352 1696 
Q 352 2330 563 2726 
Q 774 3123 1136 3308 
Q 1498 3494 1958 3494 
Q 2221 3494 2464 3440 
Q 2707 3386 2861 3309 
L 2688 2842 
Q 2534 2899 2329 2950 
Q 2125 3002 1946 3002 
Q 1600 3002 1376 2854 
Q 1152 2707 1043 2419 
Q 934 2131 934 1702 
Q 934 1293 1043 1005 
Q 1152 717 1369 569 
Q 1587 422 1914 422 
Q 2195 422 2409 480 
Q 2624 538 2803 621 
L 2803 122 
Q 2630 32 2422 -16 
Q 2214 -64 1920 -64 
z
" transform="scale(0.015625)"/>
     <path id="NotoSans-Regular-69" d="M 1107 3430 
L 1107 0 
L 544 0 
L 544 3430 
L 1107 3430 
z
M 832 4717 
Q 960 4717 1059 4630 
Q 1158 4544 1158 4358 
Q 1158 4179 1059 4089 
Q 960 4000 832 4000 
Q 691 4000 595 4089 
Q 499 4179 499 4358 
Q 499 4544 595 4630 
Q 691 4717 832 4717 
z
" transform="scale(0.015625)"/>
     <path id="NotoSans-Regular-f3" d="M 3526 1722 
Q 3526 1293 3414 963 
Q 3302 634 3094 403 
Q 2886 173 2588 54 
Q 2291 -64 1926 -64 
Q 1587 -64 1299 54 
Q 1011 173 800 403 
Q 589 634 470 963 
Q 352 1293 352 1722 
Q 352 2291 544 2684 
Q 736 3078 1094 3286 
Q 1453 3494 1946 3494 
Q 2413 3494 2768 3286 
Q 3123 3078 3324 2684 
Q 3526 2291 3526 1722 
z
M 934 1722 
Q 934 1318 1040 1020 
Q 1146 723 1370 563 
Q 1594 403 1939 403 
Q 2285 403 2509 563 
Q 2733 723 2838 1020 
Q 2944 1318 2944 1722 
Q 2944 2131 2835 2419 
Q 2726 2707 2505 2864 
Q 2285 3021 1933 3021 
Q 1408 3021 1171 2675 
Q 934 2330 934 1722 
z
M 2886 4838 
Q 2829 4749 2720 4621 
Q 2611 4493 2480 4355 
Q 2349 4218 2217 4093 
Q 2086 3968 1971 3878 
L 1600 3878 
L 1600 3955 
Q 1696 4077 1808 4243 
Q 1920 4410 2029 4586 
Q 2138 4762 2208 4902 
L 2886 4902 
L 2886 4838 
z
" transform="scale(0.015625)"/>
    </defs>
    <use xlink:href="#NotoSans-Regular-46"/>
    <use xlink:href="#NotoSans-Regular-75" transform="translate(51.899994 0)"/>
    <use xlink:href="#NotoSans-Regular-65" transform="translate(113.699982 0)"/>
    <use xlink:href="#NotoSans-Regular-6e" transform="translate(170.099976 0)"/>
    <use xlink:href="#NotoSans-Regular-74" transform="translate(231.899963 0)"/>
    <use xlink:href="#NotoSans-Regular-65" transform="translate(267.999954 0)"/>
    <use xlink:href="#NotoSans-Regular-3a" transform="translate(324.399948 0)"/>
    <use xlink:href="#NotoSans-Regular-20" transform="translate(351.199936 0)"/>
    <use xlink:href="#NotoSans-Regular-49" transform="translate(377.199921 0)"/>
    <use xlink:href="#NotoSans-Regular-6e" transform="translate(411.099915 0)"/>
    <use xlink:href="#NotoSans-Regular-66" transform="translate(472.899902 0)"/>
    <use xlink:href="#NotoSans-Regular-6f" transform="translate(507.299896 0)"/>
    <use xlink:href="#NotoSans-Regular-72" transform="translate(567.799881 0)"/>
    <use xlink:href="#NotoSans-Regular-6d" transform="translate(609.099869 0)"/>
    <use xlink:href="#NotoSans-Regular-65" transform="translate(702.599854 0)"/>
    <use xlink:href="#NotoSans-Regular-20" transform="translate(758.999847 0)"/>
    <use xlink:href="#NotoSans-Regular-45" transform="translate(784.999832 0)"/>
    <use xlink:href="#NotoSans-Regular-73" transform="translate(840.599823 0)"/>
    <use xlink:href="#NotoSans-Regular-74" transform="translate(888.499817 0)"/>
    <use xlink:href="#NotoSans-Regular-61" transform="translate(924.599808 0)"/>
    <use xlink:href="#NotoSans-Regular-74" transform="translate(980.699799 0)"/>
    <use xlink:href="#NotoSans-Regular-61" transform="translate(1016.799789 0)"/>
    <use xlink:href="#NotoSans-Regular-6c" transform="translate(1072.89978 0)"/>
    <use xlink:href="#NotoSans-Regular-20" transform="translate(1098.699768 0)"/>
    <use xlink:href="#NotoSans-Regular-64" transform="translate(1124.699753 0)"/>
    <use xlink:href="#NotoSans-Regular-65" transform="translate(1186.199738 0)"/>
    <use xlink:href="#NotoSans-Regular-20" transform="translate(1242.599731 0)"/>
    <use xlink:href="#NotoSans-Regular-45" transform="translate(1268.599716 0)"/>
    <use xlink:href="#NotoSans-Regular-76" transform="translate(1324.199707 0)"/>
    <use xlink:href="#NotoSans-Regular-61" transform="translate(1374.999695 0)"/>
    <use xlink:href="#NotoSans-Regular-6c" transform="translate(1431.099686 0)"/>
    <use xlink:href="#NotoSans-Regular-75" transform="translate(1456.899673 0)"/>
    <use xlink:href="#NotoSans-Regular-61" transform="translate(1518.699661 0)"/>
    <use xlink:href="#NotoSans-Regular-63" transform="translate(1574.799652 0)"/>
    <use xlink:href="#NotoSans-Regular-69" transform="translate(1622.799637 0)"/>
    <use xlink:href="#NotoSans-Regular-f3" transform="translate(1648.599625 0)"/>
    <use xlink:href="#NotoSans-Regular-6e" transform="translate(1709.099609 0)"/>
    <use xlink:href="#NotoSans-Regular-20" transform="translate(1770.899597 0)"/>
    <use xlink:href="#NotoSans-Regular-32" transform="translate(1796.899582 0)"/>
    <use xlink:href="#NotoSans-Regular-30" transform="translate(1854.099579 0)"/>
    <use xlink:href="#NotoSans-Regular-32" transform="translate(1911.299576 0)"/>
    <use xlink:href="#NotoSans-Regular-34" transform="translate(1968.499573 0)"/>
   </g>
  </g>
  <g id="text_25">
   <!-- (Millones de pesos) -->
   <g transform="translate(375.946406 540) scale(0.14 -0.14)">
    <defs>
     <path id="NotoSans-Regular-28" d="M 256 1754 
Q 256 2278 355 2777 
Q 454 3277 665 3731 
Q 877 4186 1197 4570 
L 1728 4570 
Q 1280 3968 1053 3245 
Q 826 2522 826 1760 
Q 826 1267 928 780 
Q 1030 294 1228 -157 
Q 1427 -608 1722 -1011 
L 1197 -1011 
Q 877 -634 665 -189 
Q 454 256 355 749 
Q 256 1242 256 1754 
z
" transform="scale(0.015625)"/>
     <path id="NotoSans-Regular-4d" d="M 2637 0 
L 1133 4006 
L 1107 4006 
Q 1120 3878 1129 3680 
Q 1139 3482 1145 3248 
Q 1152 3014 1152 2771 
L 1152 0 
L 621 0 
L 621 4570 
L 1472 4570 
L 2880 826 
L 2906 826 
L 4339 4570 
L 5184 4570 
L 5184 0 
L 4614 0 
L 4614 2810 
Q 4614 3034 4620 3254 
Q 4627 3475 4640 3670 
Q 4653 3866 4659 4000 
L 4634 4000 
L 3110 0 
L 2637 0 
z
" transform="scale(0.015625)"/>
     <path id="NotoSans-Regular-70" d="M 2176 3494 
Q 2810 3494 3197 3052 
Q 3584 2611 3584 1722 
Q 3584 1139 3408 739 
Q 3232 339 2915 137 
Q 2598 -64 2170 -64 
Q 1907 -64 1702 6 
Q 1498 77 1354 189 
Q 1210 301 1107 435 
L 1069 435 
Q 1082 326 1094 160 
Q 1107 -6 1107 -128 
L 1107 -1536 
L 544 -1536 
L 544 3430 
L 1005 3430 
L 1082 2963 
L 1107 2963 
Q 1210 3110 1354 3232 
Q 1498 3354 1699 3424 
Q 1901 3494 2176 3494 
z
M 2074 3021 
Q 1728 3021 1517 2889 
Q 1306 2758 1210 2496 
Q 1114 2234 1107 1830 
L 1107 1722 
Q 1107 1299 1196 1004 
Q 1286 710 1500 556 
Q 1715 403 2086 403 
Q 2400 403 2601 576 
Q 2803 749 2902 1046 
Q 3002 1344 3002 1728 
Q 3002 2317 2774 2669 
Q 2547 3021 2074 3021 
z
" transform="scale(0.015625)"/>
     <path id="NotoSans-Regular-29" d="M 1664 1754 
Q 1664 1242 1565 749 
Q 1466 256 1258 -189 
Q 1050 -634 723 -1011 
L 198 -1011 
Q 493 -608 691 -157 
Q 890 294 992 780 
Q 1094 1267 1094 1760 
Q 1094 2266 992 2758 
Q 890 3251 691 3712 
Q 493 4173 192 4570 
L 723 4570 
Q 1050 4186 1258 3731 
Q 1466 3277 1565 2777 
Q 1664 2278 1664 1754 
z
" transform="scale(0.015625)"/>
    </defs>
    <use xlink:href="#NotoSans-Regular-28"/>
    <use xlink:href="#NotoSans-Regular-4d" transform="translate(29.999985 0)"/>
    <use xlink:href="#NotoSans-Regular-69" transform="translate(120.699966 0)"/>
    <use xlink:href="#NotoSans-Regular-6c" transform="translate(146.499954 0)"/>
    <use xlink:href="#NotoSans-Regular-6c" transform="translate(172.299942 0)"/>
    <use xlink:href="#NotoSans-Regular-6f" transform="translate(198.09993 0)"/>
    <use xlink:href="#NotoSans-Regular-6e" transform="translate(258.599915 0)"/>
    <use xlink:href="#NotoSans-Regular-65" transform="translate(320.399902 0)"/>
    <use xlink:href="#NotoSans-Regular-73" transform="translate(376.799896 0)"/>
    <use xlink:href="#NotoSans-Regular-20" transform="translate(424.69989 0)"/>
    <use xlink:href="#NotoSans-Regular-64" transform="translate(450.699875 0)"/>
    <use xlink:href="#NotoSans-Regular-65" transform="translate(512.19986 0)"/>
    <use xlink:href="#NotoSans-Regular-20" transform="translate(568.599854 0)"/>
    <use xlink:href="#NotoSans-Regular-70" transform="translate(594.599838 0)"/>
    <use xlink:href="#NotoSans-Regular-65" transform="translate(656.099823 0)"/>
    <use xlink:href="#NotoSans-Regular-73" transform="translate(712.499817 0)"/>
    <use xlink:href="#NotoSans-Regular-6f" transform="translate(760.399811 0)"/>
    <use xlink:href="#NotoSans-Regular-73" transform="translate(820.899796 0)"/>
    <use xlink:href="#NotoSans-Regular-29" transform="translate(868.799789 0)"/>
   </g>
  </g>
 </g>
 <defs>
  <clipPath id="pa676937fb9">
   <rect x="22.36875" y="40.64" width="832.99125" height="466.72"/>
  </clipPath>
 </defs>
</svg>
